<svg width="720" height="92" viewBox="0 0 720 92" fill="none" xmlns="http://www.w3.org/2000/svg">
<path d="M0.515634 56.0589L0.515452 56.0887L0.518791 56.1182C0.87615 59.2784 3.66468 62.112 8.52079 64.6813C13.4076 67.2668 20.5388 69.6654 29.8893 71.8866C49.4714 76.6977 75.7971 80.7278 108.857 83.9804C141.923 87.2335 180.077 89.226 223.317 89.9585C266.744 91.1929 313.002 91.0689 362.09 89.5867L362.091 89.5866C411.871 87.9699 458.24 85.1342 501.198 81.0792C544.336 77.5265 582.085 73.4091 614.443 68.7265C646.794 64.0449 671.955 58.8812 689.91 53.2314C699.319 50.592 706.419 47.8612 711.182 45.0294C715.915 42.2154 718.496 39.2065 718.516 35.9606C718.536 32.697 715.865 29.7463 710.966 27.053C706.031 24.3395 698.654 21.7853 688.866 19.3803C669.283 14.5691 642.957 10.539 609.896 7.28627L609.889 7.28566C577.012 4.53499 538.516 2.6099 494.402 1.51C450.973 0.275469 404.806 0.650457 355.902 2.63469C306.814 4.11693 260.699 6.63441 217.558 10.1873C174.419 13.74 136.669 17.8575 104.311 22.5402L104.311 22.5401L104.303 22.5413C72.8247 27.591 47.6714 32.7544 28.8501 38.0333L28.8501 38.0331L28.837 38.0372C19.5172 40.9285 12.4856 43.8494 7.76956 46.8081C3.08349 49.748 0.535497 52.8203 0.515634 56.0589Z" fill="#000AFF" stroke="black"/>
</svg>
