<svg width="719" height="91" viewBox="0 0 719 91" fill="none" xmlns="http://www.w3.org/2000/svg">
<path d="M0.500009 55.7591L0.499827 55.7889L0.503166 55.8184C0.860525 58.9786 3.64906 61.8122 8.50516 64.3815C13.392 66.967 20.5232 69.3656 29.8736 71.5868C49.4557 76.3979 75.7814 80.428 108.842 83.6806C141.908 86.9337 180.062 88.9262 223.302 89.6587C266.729 90.8931 312.986 90.7691 362.075 89.2869L362.076 89.2868C411.856 87.6701 458.225 84.8344 501.182 80.7794C544.321 77.2267 582.069 73.1093 614.427 68.4267C646.779 63.7451 671.939 58.5814 689.895 52.9315C699.304 50.2922 706.404 47.5614 711.166 44.7296C715.9 41.9156 718.48 38.9067 718.5 35.6608C718.52 32.3972 715.85 29.4465 710.951 26.7532C706.015 24.0397 698.639 21.4855 688.85 19.0805C669.268 14.2693 642.941 10.2392 609.88 6.98647L609.873 6.98586C576.996 4.23519 538.5 2.3101 494.386 1.2102C450.957 -0.0243356 404.791 0.350652 355.886 2.33488C306.798 3.81712 260.684 6.3346 217.543 9.88746C174.403 13.4402 136.654 17.5577 104.295 22.2403L104.295 22.2403L104.287 22.2415C72.8091 27.2912 47.6558 32.4546 28.8345 37.7335L28.8344 37.7333L28.8214 37.7374C19.5015 40.6287 12.47 43.5496 7.75393 46.5083C3.06787 49.4482 0.519872 52.5205 0.500009 55.7591Z" stroke="black"/>
</svg>
