<svg width="746" height="608" viewBox="0 0 746 608" fill="none" xmlns="http://www.w3.org/2000/svg">
<path d="M63.1 7.8H65.62V33H63.1V22.38C60.916 23.46 58.636 24 56.26 24C53.86 24 51.94 23.328 50.5 21.984C49.06 20.64 48.34 18.912 48.34 16.8V7.8H50.86V16.8C50.86 18.264 51.328 19.44 52.264 20.328C53.224 21.192 54.556 21.624 56.26 21.624C58.636 21.624 60.916 21.084 63.1 20.004V7.8ZM83.98 15V17.304H77.608V33H75.232V17.304H68.86V15H83.98ZM94.4883 14.568C97.1523 14.568 99.3003 15.516 100.932 17.412C102.588 19.284 103.416 21.504 103.416 24.072C103.416 24.336 103.392 24.708 103.344 25.188H87.5403C87.7803 27.012 88.5483 28.464 89.8443 29.544C91.1643 30.6 92.7843 31.128 94.7043 31.128C96.0723 31.128 97.2483 30.852 98.2323 30.3C99.2403 29.724 99.9963 28.98 100.5 28.068L102.588 29.292C101.796 30.564 100.716 31.572 99.3483 32.316C97.9803 33.06 96.4203 33.432 94.6683 33.432C91.8363 33.432 89.5323 32.544 87.7563 30.768C85.9803 28.992 85.0923 26.736 85.0923 24C85.0923 21.312 85.9683 19.068 87.7203 17.268C89.4723 15.468 91.7283 14.568 94.4883 14.568ZM94.4883 16.872C92.6163 16.872 91.0443 17.436 89.7723 18.564C88.5243 19.668 87.7803 21.108 87.5403 22.884H100.968C100.728 20.988 99.9963 19.512 98.7723 18.456C97.5483 17.4 96.1203 16.872 94.4883 16.872ZM119.94 15H122.316V33H119.94V25.152H109.572V33H107.196V15H109.572V22.848H119.94V15ZM140.444 15H142.46V33H140.084V19.14L129.356 33H127.34V15H129.716V28.86L140.444 15ZM155.801 14.568C158.465 14.568 160.613 15.516 162.245 17.412C163.901 19.284 164.729 21.504 164.729 24.072C164.729 24.336 164.705 24.708 164.657 25.188H148.853C149.093 27.012 149.861 28.464 151.157 29.544C152.477 30.6 154.097 31.128 156.017 31.128C157.385 31.128 158.561 30.852 159.545 30.3C160.553 29.724 161.309 28.98 161.813 28.068L163.901 29.292C163.109 30.564 162.029 31.572 160.661 32.316C159.293 33.06 157.733 33.432 155.981 33.432C153.149 33.432 150.845 32.544 149.069 30.768C147.293 28.992 146.405 26.736 146.405 24C146.405 21.312 147.281 19.068 149.033 17.268C150.785 15.468 153.041 14.568 155.801 14.568ZM155.801 16.872C153.929 16.872 152.357 17.436 151.085 18.564C149.837 19.668 149.093 21.108 148.853 22.884H162.281C162.041 20.988 161.309 19.512 160.085 18.456C158.861 17.4 157.433 16.872 155.801 16.872ZM185.896 33.432C183.184 33.432 180.928 32.532 179.128 30.732C177.328 28.908 176.428 26.664 176.428 24C176.428 21.336 177.328 19.104 179.128 17.304C180.928 15.48 183.184 14.568 185.896 14.568C187.672 14.568 189.268 15 190.684 15.864C192.1 16.704 193.132 17.844 193.78 19.284L191.836 20.4C191.356 19.32 190.576 18.468 189.496 17.844C188.44 17.196 187.24 16.872 185.896 16.872C183.904 16.872 182.224 17.568 180.856 18.96C179.488 20.328 178.804 22.008 178.804 24C178.804 25.992 179.488 27.684 180.856 29.076C182.224 30.444 183.904 31.128 185.896 31.128C187.24 31.128 188.44 30.816 189.496 30.192C190.552 29.544 191.38 28.68 191.98 27.6L193.96 28.752C193.216 30.192 192.124 31.332 190.684 32.172C189.244 33.012 187.648 33.432 185.896 33.432ZM209.98 15V17.304H203.608V33H201.232V17.304H194.86V15H209.98ZM227.652 15H230.028V33H227.652V29.472C225.996 32.112 223.572 33.432 220.38 33.432C217.812 33.432 215.616 32.52 213.792 30.696C211.992 28.872 211.092 26.64 211.092 24C211.092 21.36 211.992 19.128 213.792 17.304C215.616 15.48 217.812 14.568 220.38 14.568C223.572 14.568 225.996 15.888 227.652 18.528V15ZM215.52 29.076C216.888 30.444 218.568 31.128 220.56 31.128C222.552 31.128 224.232 30.444 225.6 29.076C226.968 27.684 227.652 25.992 227.652 24C227.652 22.008 226.968 20.328 225.6 18.96C224.232 17.568 222.552 16.872 220.56 16.872C218.568 16.872 216.888 17.568 215.52 18.96C214.152 20.328 213.468 22.008 213.468 24C213.468 25.992 214.152 27.684 215.52 29.076ZM248.019 15V17.304H241.647V33H239.271V17.304H232.899V15H248.019ZM258.527 14.568C261.191 14.568 263.339 15.516 264.971 17.412C266.627 19.284 267.455 21.504 267.455 24.072C267.455 24.336 267.431 24.708 267.383 25.188H251.579C251.819 27.012 252.587 28.464 253.883 29.544C255.203 30.6 256.823 31.128 258.743 31.128C260.111 31.128 261.287 30.852 262.271 30.3C263.279 29.724 264.035 28.98 264.539 28.068L266.627 29.292C265.835 30.564 264.755 31.572 263.387 32.316C262.019 33.06 260.459 33.432 258.707 33.432C255.875 33.432 253.571 32.544 251.795 30.768C250.019 28.992 249.131 26.736 249.131 24C249.131 21.312 250.007 19.068 251.759 17.268C253.511 15.468 255.767 14.568 258.527 14.568ZM258.527 16.872C256.655 16.872 255.083 17.436 253.811 18.564C252.563 19.668 251.819 21.108 251.579 22.884H265.007C264.767 20.988 264.035 19.512 262.811 18.456C261.587 17.4 260.159 16.872 258.527 16.872ZM274.115 12.12V10.032H283.475V12.12H274.115ZM284.339 15H286.355V33H283.979V19.14L273.251 33H271.235V15H273.611V28.86L284.339 15ZM66.88 95.8V121H64.36V98.176H51.4V121H48.88V95.8H66.88ZM81.9336 102.568C84.5016 102.568 86.6856 103.48 88.4856 105.304C90.3096 107.128 91.2216 109.36 91.2216 112C91.2216 114.64 90.3096 116.872 88.4856 118.696C86.6856 120.52 84.5016 121.432 81.9336 121.432C78.7416 121.432 76.3176 120.112 74.6616 117.472V128.2H72.2856V103H74.6616V106.528C76.3176 103.888 78.7416 102.568 81.9336 102.568ZM76.7136 117.076C78.0816 118.444 79.7616 119.128 81.7536 119.128C83.7456 119.128 85.4256 118.444 86.7936 117.076C88.1616 115.684 88.8456 113.992 88.8456 112C88.8456 110.008 88.1616 108.328 86.7936 106.96C85.4256 105.568 83.7456 104.872 81.7536 104.872C79.7616 104.872 78.0816 105.568 76.7136 106.96C75.3456 108.328 74.6616 110.008 74.6616 112C74.6616 113.992 75.3456 115.684 76.7136 117.076ZM110.256 118.732C108.432 120.532 106.2 121.432 103.56 121.432C100.92 121.432 98.6763 120.532 96.8283 118.732C95.0043 116.908 94.0923 114.664 94.0923 112C94.0923 109.336 95.0043 107.104 96.8283 105.304C98.6763 103.48 100.92 102.568 103.56 102.568C106.2 102.568 108.432 103.48 110.256 105.304C112.104 107.104 113.028 109.336 113.028 112C113.028 114.664 112.104 116.908 110.256 118.732ZM98.5203 117.076C99.8883 118.444 101.568 119.128 103.56 119.128C105.552 119.128 107.232 118.444 108.6 117.076C109.968 115.684 110.652 113.992 110.652 112C110.652 110.008 109.968 108.328 108.6 106.96C107.232 105.568 105.552 104.872 103.56 104.872C101.568 104.872 99.8883 105.568 98.5203 106.96C97.1523 108.328 96.4683 110.008 96.4683 112C96.4683 113.992 97.1523 115.684 98.5203 117.076ZM125.392 121.432C122.68 121.432 120.424 120.532 118.624 118.732C116.824 116.908 115.924 114.664 115.924 112C115.924 109.336 116.824 107.104 118.624 105.304C120.424 103.48 122.68 102.568 125.392 102.568C127.168 102.568 128.764 103 130.18 103.864C131.596 104.704 132.628 105.844 133.276 107.284L131.332 108.4C130.852 107.32 130.072 106.468 128.992 105.844C127.936 105.196 126.736 104.872 125.392 104.872C123.4 104.872 121.72 105.568 120.352 106.96C118.984 108.328 118.3 110.008 118.3 112C118.3 113.992 118.984 115.684 120.352 117.076C121.72 118.444 123.4 119.128 125.392 119.128C126.736 119.128 127.936 118.816 128.992 118.192C130.048 117.544 130.876 116.68 131.476 115.6L133.456 116.752C132.712 118.192 131.62 119.332 130.18 120.172C128.74 121.012 127.144 121.432 125.392 121.432ZM154.508 103V121H152.132V106.636L145.832 116.86H145.544L139.244 106.636V121H136.868V103H139.604L145.688 112.864L151.772 103H154.508ZM174.627 118.732C172.803 120.532 170.571 121.432 167.931 121.432C165.291 121.432 163.047 120.532 161.199 118.732C159.375 116.908 158.463 114.664 158.463 112C158.463 109.336 159.375 107.104 161.199 105.304C163.047 103.48 165.291 102.568 167.931 102.568C170.571 102.568 172.803 103.48 174.627 105.304C176.475 107.104 177.399 109.336 177.399 112C177.399 114.664 176.475 116.908 174.627 118.732ZM162.891 117.076C164.259 118.444 165.939 119.128 167.931 119.128C169.923 119.128 171.603 118.444 172.971 117.076C174.339 115.684 175.023 113.992 175.023 112C175.023 110.008 174.339 108.328 172.971 106.96C171.603 105.568 169.923 104.872 167.931 104.872C165.939 104.872 164.259 105.568 162.891 106.96C161.523 108.328 160.839 110.008 160.839 112C160.839 113.992 161.523 115.684 162.891 117.076ZM193.632 103V105.304H187.26V121H184.884V105.304H178.512V103H193.632ZM206.176 102.568C208.744 102.568 210.928 103.48 212.728 105.304C214.552 107.128 215.464 109.36 215.464 112C215.464 114.64 214.552 116.872 212.728 118.696C210.928 120.52 208.744 121.432 206.176 121.432C202.984 121.432 200.56 120.112 198.904 117.472V128.2H196.528V103H198.904V106.528C200.56 103.888 202.984 102.568 206.176 102.568ZM200.956 117.076C202.324 118.444 204.004 119.128 205.996 119.128C207.988 119.128 209.668 118.444 211.036 117.076C212.404 115.684 213.088 113.992 213.088 112C213.088 110.008 212.404 108.328 211.036 106.96C209.668 105.568 207.988 104.872 205.996 104.872C204.004 104.872 202.324 105.568 200.956 106.96C199.588 108.328 198.904 110.008 198.904 112C198.904 113.992 199.588 115.684 200.956 117.076ZM241.519 103H243.535V121H241.159V107.14L230.431 121H228.415V103H230.791V116.86L241.519 103ZM265.947 121.432C263.235 121.432 260.979 120.532 259.179 118.732C257.379 116.908 256.479 114.664 256.479 112C256.479 109.336 257.379 107.104 259.179 105.304C260.979 103.48 263.235 102.568 265.947 102.568C267.723 102.568 269.319 103 270.735 103.864C272.151 104.704 273.183 105.844 273.831 107.284L271.887 108.4C271.407 107.32 270.627 106.468 269.547 105.844C268.491 105.196 267.291 104.872 265.947 104.872C263.955 104.872 262.275 105.568 260.907 106.96C259.539 108.328 258.855 110.008 258.855 112C258.855 113.992 259.539 115.684 260.907 117.076C262.275 118.444 263.955 119.128 265.947 119.128C267.291 119.128 268.491 118.816 269.547 118.192C270.603 117.544 271.431 116.68 272.031 115.6L274.011 116.752C273.267 118.192 272.175 119.332 270.735 120.172C269.295 121.012 267.699 121.432 265.947 121.432ZM292.331 118.732C290.507 120.532 288.275 121.432 285.635 121.432C282.995 121.432 280.751 120.532 278.903 118.732C277.079 116.908 276.167 114.664 276.167 112C276.167 109.336 277.079 107.104 278.903 105.304C280.751 103.48 282.995 102.568 285.635 102.568C288.275 102.568 290.507 103.48 292.331 105.304C294.179 107.104 295.103 109.336 295.103 112C295.103 114.664 294.179 116.908 292.331 118.732ZM280.595 117.076C281.963 118.444 283.643 119.128 285.635 119.128C287.627 119.128 289.307 118.444 290.675 117.076C292.043 115.684 292.727 113.992 292.727 112C292.727 110.008 292.043 108.328 290.675 106.96C289.307 105.568 287.627 104.872 285.635 104.872C283.643 104.872 281.963 105.568 280.595 106.96C279.227 108.328 278.543 110.008 278.543 112C278.543 113.992 279.227 115.684 280.595 117.076ZM307.663 111.748C309.751 112.54 310.795 113.98 310.795 116.068C310.795 117.556 310.207 118.828 309.031 119.884C307.879 120.916 306.223 121.432 304.063 121.432C300.439 121.432 298.063 119.992 296.935 117.112L298.951 115.924C299.695 118.06 301.399 119.128 304.063 119.128C305.455 119.128 306.523 118.828 307.267 118.228C308.035 117.628 308.419 116.86 308.419 115.924C308.419 115.084 308.107 114.4 307.483 113.872C306.859 113.344 306.019 113.08 304.963 113.08H302.335V110.776H304.243C305.275 110.776 306.079 110.524 306.655 110.02C307.255 109.492 307.555 108.772 307.555 107.86C307.555 106.996 307.207 106.288 306.511 105.736C305.815 105.16 304.879 104.872 303.703 104.872C301.447 104.872 299.947 105.772 299.203 107.572L297.223 106.42C298.423 103.852 300.583 102.568 303.703 102.568C305.599 102.568 307.111 103.072 308.239 104.08C309.367 105.064 309.931 106.276 309.931 107.716C309.931 109.564 309.175 110.908 307.663 111.748ZM329.175 118.696H331.695V125.824H329.319V121H314.631V125.824H312.255V118.696H314.451C315.675 117.088 316.287 114.82 316.287 111.892V103H329.175V118.696ZM317.331 118.696H326.799V105.304H318.663V111.892C318.663 114.652 318.219 116.92 317.331 118.696ZM350.066 103H352.442V121H350.066V117.472C348.41 120.112 345.986 121.432 342.794 121.432C340.226 121.432 338.03 120.52 336.206 118.696C334.406 116.872 333.506 114.64 333.506 112C333.506 109.36 334.406 107.128 336.206 105.304C338.03 103.48 340.226 102.568 342.794 102.568C345.986 102.568 348.41 103.888 350.066 106.528V103ZM337.934 117.076C339.302 118.444 340.982 119.128 342.974 119.128C344.966 119.128 346.646 118.444 348.014 117.076C349.382 115.684 350.066 113.992 350.066 112C350.066 110.008 349.382 108.328 348.014 106.96C346.646 105.568 344.966 104.872 342.974 104.872C340.982 104.872 339.302 105.568 337.934 106.96C336.566 108.328 335.882 110.008 335.882 112C335.882 113.992 336.566 115.684 337.934 117.076ZM370.217 103H372.593V121H370.217V113.152H359.849V121H357.473V103H359.849V110.848H370.217V103ZM390.722 103H392.738V121H390.362V107.14L379.634 121H377.618V103H379.994V116.86L390.722 103ZM406.078 102.568C408.742 102.568 410.89 103.516 412.522 105.412C414.178 107.284 415.006 109.504 415.006 112.072C415.006 112.336 414.982 112.708 414.934 113.188H399.13C399.37 115.012 400.138 116.464 401.434 117.544C402.754 118.6 404.374 119.128 406.294 119.128C407.662 119.128 408.838 118.852 409.822 118.3C410.83 117.724 411.586 116.98 412.09 116.068L414.178 117.292C413.386 118.564 412.306 119.572 410.938 120.316C409.57 121.06 408.01 121.432 406.258 121.432C403.426 121.432 401.122 120.544 399.346 118.768C397.57 116.992 396.682 114.736 396.682 112C396.682 109.312 397.558 107.068 399.31 105.268C401.062 103.468 403.318 102.568 406.078 102.568ZM406.078 104.872C404.206 104.872 402.634 105.436 401.362 106.564C400.114 107.668 399.37 109.108 399.13 110.884H412.558C412.318 108.988 411.586 107.512 410.362 106.456C409.138 105.4 407.71 104.872 406.078 104.872ZM445.426 103V121H443.05V106.636L436.75 116.86H436.462L430.162 106.636V121H427.786V103H430.522L436.606 112.864L442.69 103H445.426ZM458.777 102.568C461.441 102.568 463.589 103.516 465.221 105.412C466.877 107.284 467.705 109.504 467.705 112.072C467.705 112.336 467.681 112.708 467.633 113.188H451.829C452.069 115.012 452.837 116.464 454.133 117.544C455.453 118.6 457.073 119.128 458.993 119.128C460.361 119.128 461.537 118.852 462.521 118.3C463.529 117.724 464.285 116.98 464.789 116.068L466.877 117.292C466.085 118.564 465.005 119.572 463.637 120.316C462.269 121.06 460.709 121.432 458.957 121.432C456.125 121.432 453.821 120.544 452.045 118.768C450.269 116.992 449.381 114.736 449.381 112C449.381 109.312 450.257 107.068 452.009 105.268C453.761 103.468 456.017 102.568 458.777 102.568ZM458.777 104.872C456.905 104.872 455.333 105.436 454.061 106.564C452.813 107.668 452.069 109.108 451.829 110.884H465.257C465.017 108.988 464.285 107.512 463.061 106.456C461.837 105.4 460.409 104.872 458.777 104.872ZM481.133 102.568C483.701 102.568 485.885 103.48 487.685 105.304C489.509 107.128 490.421 109.36 490.421 112C490.421 114.64 489.509 116.872 487.685 118.696C485.885 120.52 483.701 121.432 481.133 121.432C477.941 121.432 475.517 120.112 473.861 117.472V128.2H471.485V103H473.861V106.528C475.517 103.888 477.941 102.568 481.133 102.568ZM475.913 117.076C477.281 118.444 478.961 119.128 480.953 119.128C482.945 119.128 484.625 118.444 485.993 117.076C487.361 115.684 488.045 113.992 488.045 112C488.045 110.008 487.361 108.328 485.993 106.96C484.625 105.568 482.945 104.872 480.953 104.872C478.961 104.872 477.281 105.568 475.913 106.96C474.545 108.328 473.861 110.008 473.861 112C473.861 113.992 474.545 115.684 475.913 117.076ZM509.456 118.732C507.632 120.532 505.4 121.432 502.76 121.432C500.12 121.432 497.876 120.532 496.028 118.732C494.204 116.908 493.292 114.664 493.292 112C493.292 109.336 494.204 107.104 496.028 105.304C497.876 103.48 500.12 102.568 502.76 102.568C505.4 102.568 507.632 103.48 509.456 105.304C511.304 107.104 512.228 109.336 512.228 112C512.228 114.664 511.304 116.908 509.456 118.732ZM497.72 117.076C499.088 118.444 500.768 119.128 502.76 119.128C504.752 119.128 506.432 118.444 507.8 117.076C509.168 115.684 509.852 113.992 509.852 112C509.852 110.008 509.168 108.328 507.8 106.96C506.432 105.568 504.752 104.872 502.76 104.872C500.768 104.872 499.088 105.568 497.72 106.96C496.352 108.328 495.668 110.008 495.668 112C495.668 113.992 496.352 115.684 497.72 117.076ZM531.324 103V121H528.948V105.304H518.58V121H516.204V103H531.324ZM545.996 102.568C548.564 102.568 550.748 103.48 552.548 105.304C554.372 107.128 555.284 109.36 555.284 112C555.284 114.64 554.372 116.872 552.548 118.696C550.748 120.52 548.564 121.432 545.996 121.432C542.804 121.432 540.38 120.112 538.724 117.472V128.2H536.348V103H538.724V106.528C540.38 103.888 542.804 102.568 545.996 102.568ZM540.776 117.076C542.144 118.444 543.824 119.128 545.816 119.128C547.808 119.128 549.488 118.444 550.856 117.076C552.224 115.684 552.908 113.992 552.908 112C552.908 110.008 552.224 108.328 550.856 106.96C549.488 105.568 547.808 104.872 545.816 104.872C543.824 104.872 542.144 105.568 540.776 106.96C539.408 108.328 538.724 110.008 538.724 112C538.724 113.992 539.408 115.684 540.776 117.076ZM572.339 103H574.355V121H571.979V107.14L561.251 121H559.235V103H561.611V116.86L572.339 103ZM592.339 103V121H589.963V114.088H586.867L581.323 121H578.299L583.987 114.016C582.547 113.8 581.359 113.2 580.423 112.216C579.487 111.232 579.019 110.02 579.019 108.58C579.019 106.948 579.595 105.616 580.747 104.584C581.923 103.528 583.351 103 585.031 103H592.339ZM585.031 111.856H589.963V105.304H585.031C584.023 105.304 583.159 105.604 582.439 106.204C581.743 106.804 581.395 107.596 581.395 108.58C581.395 109.564 581.743 110.356 582.439 110.956C583.159 111.556 584.023 111.856 585.031 111.856ZM610.339 103V105.304H603.967V121H601.591V105.304H595.219V103H610.339ZM626.339 103H628.355V121H625.979V107.14L615.251 121H613.235V103H615.611V116.86L626.339 103ZM636.259 100.12V98.032H645.619V100.12H636.259ZM646.483 103H648.499V121H646.123V107.14L635.395 121H633.379V103H635.755V116.86L646.483 103ZM657.484 117.94L655.324 126.04H653.164L654.604 117.94H657.484ZM56.908 163.432C54.196 163.432 51.94 162.532 50.14 160.732C48.34 158.908 47.44 156.664 47.44 154C47.44 151.336 48.34 149.104 50.14 147.304C51.94 145.48 54.196 144.568 56.908 144.568C58.684 144.568 60.28 145 61.696 145.864C63.112 146.704 64.144 147.844 64.792 149.284L62.848 150.4C62.368 149.32 61.588 148.468 60.508 147.844C59.452 147.196 58.252 146.872 56.908 146.872C54.916 146.872 53.236 147.568 51.868 148.96C50.5 150.328 49.816 152.008 49.816 154C49.816 155.992 50.5 157.684 51.868 159.076C53.236 160.444 54.916 161.128 56.908 161.128C58.252 161.128 59.452 160.816 60.508 160.192C61.564 159.544 62.392 158.68 62.992 157.6L64.972 158.752C64.228 160.192 63.136 161.332 61.696 162.172C60.256 163.012 58.66 163.432 56.908 163.432ZM79.8313 153.748C81.7993 154.468 82.7833 155.872 82.7833 157.96C82.7833 159.424 82.2913 160.636 81.3073 161.596C80.3473 162.532 78.9553 163 77.1313 163H68.3833V145H76.4113C78.1633 145 79.5193 145.456 80.4793 146.368C81.4393 147.256 81.9193 148.408 81.9193 149.824C81.9193 151.624 81.2233 152.932 79.8313 153.748ZM76.4113 147.304H70.7593V152.776H76.4113C78.4993 152.776 79.5433 151.84 79.5433 149.968C79.5433 149.128 79.2673 148.48 78.7153 148.024C78.1873 147.544 77.4193 147.304 76.4113 147.304ZM77.1313 160.696C78.1873 160.696 78.9913 160.444 79.5433 159.94C80.1193 159.436 80.4073 158.728 80.4073 157.816C80.4073 156.976 80.1193 156.316 79.5433 155.836C78.9913 155.332 78.1873 155.08 77.1313 155.08H70.7593V160.696H77.1313ZM101.467 160.732C99.6433 162.532 97.4113 163.432 94.7713 163.432C92.1313 163.432 89.8873 162.532 88.0393 160.732C86.2153 158.908 85.3033 156.664 85.3033 154C85.3033 151.336 86.2153 149.104 88.0393 147.304C89.8873 145.48 92.1313 144.568 94.7713 144.568C97.4113 144.568 99.6433 145.48 101.467 147.304C103.315 149.104 104.239 151.336 104.239 154C104.239 156.664 103.315 158.908 101.467 160.732ZM89.7313 159.076C91.0993 160.444 92.7793 161.128 94.7713 161.128C96.7633 161.128 98.4433 160.444 99.8113 159.076C101.179 157.684 101.863 155.992 101.863 154C101.863 152.008 101.179 150.328 99.8113 148.96C98.4433 147.568 96.7633 146.872 94.7713 146.872C92.7793 146.872 91.0993 147.568 89.7313 148.96C88.3633 150.328 87.6793 152.008 87.6793 154C87.6793 155.992 88.3633 157.684 89.7313 159.076ZM123.335 145V163H120.959V147.304H110.591V163H108.215V145H123.335ZM143.444 160.732C141.62 162.532 139.388 163.432 136.748 163.432C134.108 163.432 131.864 162.532 130.016 160.732C128.192 158.908 127.28 156.664 127.28 154C127.28 151.336 128.192 149.104 130.016 147.304C131.864 145.48 134.108 144.568 136.748 144.568C139.388 144.568 141.62 145.48 143.444 147.304C145.292 149.104 146.216 151.336 146.216 154C146.216 156.664 145.292 158.908 143.444 160.732ZM131.708 159.076C133.076 160.444 134.756 161.128 136.748 161.128C138.74 161.128 140.42 160.444 141.788 159.076C143.156 157.684 143.84 155.992 143.84 154C143.84 152.008 143.156 150.328 141.788 148.96C140.42 147.568 138.74 146.872 136.748 146.872C134.756 146.872 133.076 147.568 131.708 148.96C130.34 150.328 129.656 152.008 129.656 154C129.656 155.992 130.34 157.684 131.708 159.076ZM161.64 153.748C163.608 154.468 164.592 155.872 164.592 157.96C164.592 159.424 164.1 160.636 163.116 161.596C162.156 162.532 160.764 163 158.94 163H150.192V145H158.22C159.972 145 161.328 145.456 162.288 146.368C163.248 147.256 163.728 148.408 163.728 149.824C163.728 151.624 163.032 152.932 161.64 153.748ZM158.22 147.304H152.568V152.776H158.22C160.308 152.776 161.352 151.84 161.352 149.968C161.352 149.128 161.076 148.48 160.524 148.024C159.996 147.544 159.228 147.304 158.22 147.304ZM158.94 160.696C159.996 160.696 160.8 160.444 161.352 159.94C161.928 159.436 162.216 158.728 162.216 157.816C162.216 156.976 161.928 156.316 161.352 155.836C160.8 155.332 159.996 155.08 158.94 155.08H152.568V160.696H158.94ZM60.652 251.432C56.836 251.432 53.68 250.172 51.184 247.652C48.688 245.132 47.44 242.048 47.44 238.4C47.44 234.752 48.688 231.668 51.184 229.148C53.68 226.628 56.836 225.368 60.652 225.368C62.98 225.368 65.116 225.932 67.06 227.06C69.004 228.164 70.504 229.664 71.56 231.56L69.328 232.856C68.536 231.32 67.36 230.096 65.8 229.184C64.24 228.272 62.524 227.816 60.652 227.816C57.508 227.816 54.94 228.836 52.948 230.876C50.956 232.916 49.96 235.424 49.96 238.4C49.96 241.376 50.956 243.884 52.948 245.924C54.94 247.964 57.508 248.984 60.652 248.984C62.524 248.984 64.24 248.528 65.8 247.616C67.36 246.704 68.536 245.48 69.328 243.944L71.56 245.204C70.528 247.1 69.028 248.612 67.06 249.74C65.116 250.868 62.98 251.432 60.652 251.432ZM90.2524 248.732C88.4284 250.532 86.1964 251.432 83.5564 251.432C80.9164 251.432 78.6724 250.532 76.8244 248.732C75.0004 246.908 74.0884 244.664 74.0884 242C74.0884 239.336 75.0004 237.104 76.8244 235.304C78.6724 233.48 80.9164 232.568 83.5564 232.568C86.1964 232.568 88.4284 233.48 90.2524 235.304C92.1004 237.104 93.0244 239.336 93.0244 242C93.0244 244.664 92.1004 246.908 90.2524 248.732ZM78.5164 247.076C79.8844 248.444 81.5644 249.128 83.5564 249.128C85.5484 249.128 87.2284 248.444 88.5964 247.076C89.9644 245.684 90.6484 243.992 90.6484 242C90.6484 240.008 89.9644 238.328 88.5964 236.96C87.2284 235.568 85.5484 234.872 83.5564 234.872C81.5644 234.872 79.8844 235.568 78.5164 236.96C77.1484 238.328 76.4644 240.008 76.4644 242C76.4644 243.992 77.1484 245.684 78.5164 247.076ZM110.855 251H108.011L102.395 243.584L96.7788 251H93.9348L100.991 241.676L94.4028 233H97.2468L102.395 239.804L107.543 233H110.387L103.835 241.676L110.855 251ZM123.734 232.568C126.302 232.568 128.486 233.48 130.286 235.304C132.11 237.128 133.022 239.36 133.022 242C133.022 244.64 132.11 246.872 130.286 248.696C128.486 250.52 126.302 251.432 123.734 251.432C120.542 251.432 118.118 250.112 116.462 247.472V258.2H114.086V233H116.462V236.528C118.118 233.888 120.542 232.568 123.734 232.568ZM118.514 247.076C119.882 248.444 121.562 249.128 123.554 249.128C125.546 249.128 127.226 248.444 128.594 247.076C129.962 245.684 130.646 243.992 130.646 242C130.646 240.008 129.962 238.328 128.594 236.96C127.226 235.568 125.546 234.872 123.554 234.872C121.562 234.872 119.882 235.568 118.514 236.96C117.146 238.328 116.462 240.008 116.462 242C116.462 243.992 117.146 245.684 118.514 247.076ZM152.453 233H154.829V251H152.453V247.472C150.797 250.112 148.373 251.432 145.181 251.432C142.613 251.432 140.417 250.52 138.593 248.696C136.793 246.872 135.893 244.64 135.893 242C135.893 239.36 136.793 237.128 138.593 235.304C140.417 233.48 142.613 232.568 145.181 232.568C148.373 232.568 150.797 233.888 152.453 236.528V233ZM140.321 247.076C141.689 248.444 143.369 249.128 145.361 249.128C147.353 249.128 149.033 248.444 150.401 247.076C151.769 245.684 152.453 243.992 152.453 242C152.453 240.008 151.769 238.328 150.401 236.96C149.033 235.568 147.353 234.872 145.361 234.872C143.369 234.872 141.689 235.568 140.321 236.96C138.953 238.328 138.269 240.008 138.269 242C138.269 243.992 138.953 245.684 140.321 247.076ZM172.604 233H174.98V251H172.604V243.152H162.236V251H159.86V233H162.236V240.848H172.604V233ZM188.32 232.568C190.984 232.568 193.132 233.516 194.764 235.412C196.42 237.284 197.248 239.504 197.248 242.072C197.248 242.336 197.224 242.708 197.176 243.188H181.372C181.612 245.012 182.38 246.464 183.676 247.544C184.996 248.6 186.616 249.128 188.536 249.128C189.904 249.128 191.08 248.852 192.064 248.3C193.072 247.724 193.828 246.98 194.332 246.068L196.42 247.292C195.628 248.564 194.548 249.572 193.18 250.316C191.812 251.06 190.252 251.432 188.5 251.432C185.668 251.432 183.364 250.544 181.588 248.768C179.812 246.992 178.924 244.736 178.924 242C178.924 239.312 179.8 237.068 181.552 235.268C183.304 233.468 185.56 232.568 188.32 232.568ZM188.32 234.872C186.448 234.872 184.876 235.436 183.604 236.564C182.356 237.668 181.612 239.108 181.372 240.884H194.8C194.56 238.988 193.828 237.512 192.604 236.456C191.38 235.4 189.952 234.872 188.32 234.872ZM213.772 233H216.148V251H213.772V243.152H203.404V251H201.028V233H203.404V240.848H213.772V233ZM234.276 233H236.292V251H233.916V237.14L223.188 251H221.172V233H223.548V246.86L234.276 233ZM249.633 232.568C252.297 232.568 254.445 233.516 256.077 235.412C257.733 237.284 258.561 239.504 258.561 242.072C258.561 242.336 258.537 242.708 258.489 243.188H242.685C242.925 245.012 243.693 246.464 244.989 247.544C246.309 248.6 247.929 249.128 249.849 249.128C251.217 249.128 252.393 248.852 253.377 248.3C254.385 247.724 255.141 246.98 255.645 246.068L257.733 247.292C256.941 248.564 255.861 249.572 254.493 250.316C253.125 251.06 251.565 251.432 249.813 251.432C246.981 251.432 244.677 250.544 242.901 248.768C241.125 246.992 240.237 244.736 240.237 242C240.237 239.312 241.113 237.068 242.865 235.268C244.617 233.468 246.873 232.568 249.633 232.568ZM249.633 234.872C247.761 234.872 246.189 235.436 244.917 236.564C243.669 237.668 242.925 239.108 242.685 240.884H256.113C255.873 238.988 255.141 237.512 253.917 236.456C252.693 235.4 251.265 234.872 249.633 234.872ZM279.728 251.432C277.016 251.432 274.76 250.532 272.96 248.732C271.16 246.908 270.26 244.664 270.26 242C270.26 239.336 271.16 237.104 272.96 235.304C274.76 233.48 277.016 232.568 279.728 232.568C281.504 232.568 283.1 233 284.516 233.864C285.932 234.704 286.964 235.844 287.612 237.284L285.668 238.4C285.188 237.32 284.408 236.468 283.328 235.844C282.272 235.196 281.072 234.872 279.728 234.872C277.736 234.872 276.056 235.568 274.688 236.96C273.32 238.328 272.636 240.008 272.636 242C272.636 243.992 273.32 245.684 274.688 247.076C276.056 248.444 277.736 249.128 279.728 249.128C281.072 249.128 282.272 248.816 283.328 248.192C284.384 247.544 285.212 246.68 285.812 245.6L287.792 246.752C287.048 248.192 285.956 249.332 284.516 250.172C283.076 251.012 281.48 251.432 279.728 251.432ZM299.344 232.568C302.008 232.568 304.156 233.516 305.788 235.412C307.444 237.284 308.272 239.504 308.272 242.072C308.272 242.336 308.248 242.708 308.2 243.188H292.396C292.636 245.012 293.404 246.464 294.7 247.544C296.02 248.6 297.64 249.128 299.56 249.128C300.928 249.128 302.104 248.852 303.088 248.3C304.096 247.724 304.852 246.98 305.356 246.068L307.444 247.292C306.652 248.564 305.572 249.572 304.204 250.316C302.836 251.06 301.276 251.432 299.524 251.432C296.692 251.432 294.388 250.544 292.612 248.768C290.836 246.992 289.948 244.736 289.948 242C289.948 239.312 290.824 237.068 292.576 235.268C294.328 233.468 296.584 232.568 299.344 232.568ZM299.344 234.872C297.472 234.872 295.9 235.436 294.628 236.564C293.38 237.668 292.636 239.108 292.396 240.884H305.824C305.584 238.988 304.852 237.512 303.628 236.456C302.404 235.4 300.976 234.872 299.344 234.872ZM326.595 251H323.427L314.427 242.324V251H312.051V233H314.427V240.956L322.995 233H326.235L316.947 241.64L326.595 251ZM343.131 248.732C341.307 250.532 339.075 251.432 336.435 251.432C333.795 251.432 331.551 250.532 329.703 248.732C327.879 246.908 326.967 244.664 326.967 242C326.967 239.336 327.879 237.104 329.703 235.304C331.551 233.48 333.795 232.568 336.435 232.568C339.075 232.568 341.307 233.48 343.131 235.304C344.979 237.104 345.903 239.336 345.903 242C345.903 244.664 344.979 246.908 343.131 248.732ZM331.395 247.076C332.763 248.444 334.443 249.128 336.435 249.128C338.427 249.128 340.107 248.444 341.475 247.076C342.843 245.684 343.527 243.992 343.527 242C343.527 240.008 342.843 238.328 341.475 236.96C340.107 235.568 338.427 234.872 336.435 234.872C334.443 234.872 332.763 235.568 331.395 236.96C330.027 238.328 329.343 240.008 329.343 242C329.343 243.992 330.027 245.684 331.395 247.076ZM362.623 233H364.999V251H362.623V243.152H352.255V251H349.879V233H352.255V240.848H362.623V233ZM385.144 248.696H387.664V255.824H385.288V251H370.6V255.824H368.224V248.696H370.42C371.644 247.088 372.256 244.82 372.256 241.892V233H385.144V248.696ZM373.3 248.696H382.768V235.304H374.632V241.892C374.632 244.652 374.188 246.92 373.3 248.696ZM405.639 248.732C403.815 250.532 401.583 251.432 398.943 251.432C396.303 251.432 394.059 250.532 392.211 248.732C390.387 246.908 389.475 244.664 389.475 242C389.475 239.336 390.387 237.104 392.211 235.304C394.059 233.48 396.303 232.568 398.943 232.568C401.583 232.568 403.815 233.48 405.639 235.304C407.487 237.104 408.411 239.336 408.411 242C408.411 244.664 407.487 246.908 405.639 248.732ZM393.903 247.076C395.271 248.444 396.951 249.128 398.943 249.128C400.935 249.128 402.615 248.444 403.983 247.076C405.351 245.684 406.035 243.992 406.035 242C406.035 240.008 405.351 238.328 403.983 236.96C402.615 235.568 400.935 234.872 398.943 234.872C396.951 234.872 395.271 235.568 393.903 236.96C392.535 238.328 391.851 240.008 391.851 242C391.851 243.992 392.535 245.684 393.903 247.076ZM423.835 241.748C425.803 242.468 426.787 243.872 426.787 245.96C426.787 247.424 426.295 248.636 425.311 249.596C424.351 250.532 422.959 251 421.135 251H412.387V233H420.415C422.167 233 423.523 233.456 424.483 234.368C425.443 235.256 425.923 236.408 425.923 237.824C425.923 239.624 425.227 240.932 423.835 241.748ZM420.415 235.304H414.763V240.776H420.415C422.503 240.776 423.547 239.84 423.547 237.968C423.547 237.128 423.271 236.48 422.719 236.024C422.191 235.544 421.423 235.304 420.415 235.304ZM421.135 248.696C422.191 248.696 422.995 248.444 423.547 247.94C424.123 247.436 424.411 246.728 424.411 245.816C424.411 244.976 424.123 244.316 423.547 243.836C422.995 243.332 422.191 243.08 421.135 243.08H414.763V248.696H421.135ZM433.996 247.94L431.836 256.04H429.676L431.116 247.94H433.996ZM456.072 251.432C453.36 251.432 451.104 250.532 449.304 248.732C447.504 246.908 446.604 244.664 446.604 242C446.604 239.336 447.504 237.104 449.304 235.304C451.104 233.48 453.36 232.568 456.072 232.568C457.848 232.568 459.444 233 460.86 233.864C462.276 234.704 463.308 235.844 463.956 237.284L462.012 238.4C461.532 237.32 460.752 236.468 459.672 235.844C458.616 235.196 457.416 234.872 456.072 234.872C454.08 234.872 452.4 235.568 451.032 236.96C449.664 238.328 448.98 240.008 448.98 242C448.98 243.992 449.664 245.684 451.032 247.076C452.4 248.444 454.08 249.128 456.072 249.128C457.416 249.128 458.616 248.816 459.672 248.192C460.728 247.544 461.556 246.68 462.156 245.6L464.136 246.752C463.392 248.192 462.3 249.332 460.86 250.172C459.42 251.012 457.824 251.432 456.072 251.432ZM480.156 233V235.304H473.784V251H471.408V235.304H465.036V233H480.156ZM497.828 233H500.204V251H497.828V247.472C496.172 250.112 493.748 251.432 490.556 251.432C487.988 251.432 485.792 250.52 483.968 248.696C482.168 246.872 481.268 244.64 481.268 242C481.268 239.36 482.168 237.128 483.968 235.304C485.792 233.48 487.988 232.568 490.556 232.568C493.748 232.568 496.172 233.888 497.828 236.528V233ZM485.696 247.076C487.064 248.444 488.744 249.128 490.736 249.128C492.728 249.128 494.408 248.444 495.776 247.076C497.144 245.684 497.828 243.992 497.828 242C497.828 240.008 497.144 238.328 495.776 236.96C494.408 235.568 492.728 234.872 490.736 234.872C488.744 234.872 487.064 235.568 485.696 236.96C484.328 238.328 483.644 240.008 483.644 242C483.644 243.992 484.328 245.684 485.696 247.076ZM518.195 233V235.304H511.823V251H509.447V235.304H503.075V233H518.195ZM528.703 232.568C531.367 232.568 533.515 233.516 535.147 235.412C536.803 237.284 537.631 239.504 537.631 242.072C537.631 242.336 537.607 242.708 537.559 243.188H521.755C521.995 245.012 522.763 246.464 524.059 247.544C525.379 248.6 526.999 249.128 528.919 249.128C530.287 249.128 531.463 248.852 532.447 248.3C533.455 247.724 534.211 246.98 534.715 246.068L536.803 247.292C536.011 248.564 534.931 249.572 533.563 250.316C532.195 251.06 530.635 251.432 528.883 251.432C526.051 251.432 523.747 250.544 521.971 248.768C520.195 246.992 519.307 244.736 519.307 242C519.307 239.312 520.183 237.068 521.935 235.268C523.687 233.468 525.943 232.568 528.703 232.568ZM528.703 234.872C526.831 234.872 525.259 235.436 523.987 236.564C522.739 237.668 521.995 239.108 521.755 240.884H535.183C534.943 238.988 534.211 237.512 532.987 236.456C531.763 235.4 530.335 234.872 528.703 234.872ZM544.291 230.12V228.032H553.651V230.12H544.291ZM554.515 233H556.531V251H554.155V237.14L543.427 251H541.411V233H543.787V246.86L554.515 233ZM61.624 275H63.64V293H61.264V279.14L50.536 293H48.52V275H50.896V288.86L61.624 275ZM95.3045 275V293H92.9285V278.636L86.6285 288.86H86.3405L80.0405 278.636V293H77.6645V275H80.4005L86.4845 284.864L92.5685 275H95.3045ZM108.656 274.568C111.32 274.568 113.468 275.516 115.1 277.412C116.756 279.284 117.584 281.504 117.584 284.072C117.584 284.336 117.56 284.708 117.512 285.188H101.708C101.948 287.012 102.716 288.464 104.012 289.544C105.332 290.6 106.952 291.128 108.872 291.128C110.24 291.128 111.416 290.852 112.4 290.3C113.408 289.724 114.164 288.98 114.668 288.068L116.756 289.292C115.964 290.564 114.884 291.572 113.516 292.316C112.148 293.06 110.588 293.432 108.836 293.432C106.004 293.432 103.7 292.544 101.924 290.768C100.148 288.992 99.2603 286.736 99.2603 284C99.2603 281.312 100.136 279.068 101.888 277.268C103.64 275.468 105.896 274.568 108.656 274.568ZM108.656 276.872C106.784 276.872 105.212 277.436 103.94 278.564C102.692 279.668 101.948 281.108 101.708 282.884H115.136C114.896 280.988 114.164 279.512 112.94 278.456C111.716 277.4 110.288 276.872 108.656 276.872ZM131.012 274.568C133.58 274.568 135.764 275.48 137.564 277.304C139.388 279.128 140.3 281.36 140.3 284C140.3 286.64 139.388 288.872 137.564 290.696C135.764 292.52 133.58 293.432 131.012 293.432C127.82 293.432 125.396 292.112 123.74 289.472V300.2H121.364V275H123.74V278.528C125.396 275.888 127.82 274.568 131.012 274.568ZM125.792 289.076C127.16 290.444 128.84 291.128 130.832 291.128C132.824 291.128 134.504 290.444 135.872 289.076C137.24 287.684 137.924 285.992 137.924 284C137.924 282.008 137.24 280.328 135.872 278.96C134.504 277.568 132.824 276.872 130.832 276.872C128.84 276.872 127.16 277.568 125.792 278.96C124.424 280.328 123.74 282.008 123.74 284C123.74 285.992 124.424 287.684 125.792 289.076ZM159.334 290.732C157.51 292.532 155.278 293.432 152.638 293.432C149.998 293.432 147.754 292.532 145.906 290.732C144.082 288.908 143.17 286.664 143.17 284C143.17 281.336 144.082 279.104 145.906 277.304C147.754 275.48 149.998 274.568 152.638 274.568C155.278 274.568 157.51 275.48 159.334 277.304C161.182 279.104 162.106 281.336 162.106 284C162.106 286.664 161.182 288.908 159.334 290.732ZM147.598 289.076C148.966 290.444 150.646 291.128 152.638 291.128C154.63 291.128 156.31 290.444 157.678 289.076C159.046 287.684 159.73 285.992 159.73 284C159.73 282.008 159.046 280.328 157.678 278.96C156.31 277.568 154.63 276.872 152.638 276.872C150.646 276.872 148.966 277.568 147.598 278.96C146.23 280.328 145.546 282.008 145.546 284C145.546 285.992 146.23 287.684 147.598 289.076ZM181.203 275V293H178.827V277.304H168.459V293H166.083V275H181.203ZM195.875 274.568C198.443 274.568 200.627 275.48 202.427 277.304C204.251 279.128 205.163 281.36 205.163 284C205.163 286.64 204.251 288.872 202.427 290.696C200.627 292.52 198.443 293.432 195.875 293.432C192.683 293.432 190.259 292.112 188.603 289.472V300.2H186.227V275H188.603V278.528C190.259 275.888 192.683 274.568 195.875 274.568ZM190.655 289.076C192.023 290.444 193.703 291.128 195.695 291.128C197.687 291.128 199.367 290.444 200.735 289.076C202.103 287.684 202.787 285.992 202.787 284C202.787 282.008 202.103 280.328 200.735 278.96C199.367 277.568 197.687 276.872 195.695 276.872C193.703 276.872 192.023 277.568 190.655 278.96C189.287 280.328 188.603 282.008 188.603 284C188.603 285.992 189.287 287.684 190.655 289.076ZM222.218 275H224.234V293H221.858V279.14L211.13 293H209.114V275H211.49V288.86L222.218 275ZM242.218 275V293H239.842V286.088H236.746L231.202 293H228.178L233.866 286.016C232.426 285.8 231.238 285.2 230.302 284.216C229.366 283.232 228.898 282.02 228.898 280.58C228.898 278.948 229.474 277.616 230.626 276.584C231.802 275.528 233.23 275 234.91 275H242.218ZM234.91 283.856H239.842V277.304H234.91C233.902 277.304 233.038 277.604 232.318 278.204C231.622 278.804 231.274 279.596 231.274 280.58C231.274 281.564 231.622 282.356 232.318 282.956C233.038 283.556 233.902 283.856 234.91 283.856ZM260.218 275V277.304H253.846V293H251.47V277.304H245.098V275H260.218ZM276.218 275H278.234V293H275.858V279.14L265.13 293H263.114V275H265.49V288.86L276.218 275ZM286.138 272.12V270.032H295.498V272.12H286.138ZM296.362 275H298.378V293H296.002V279.14L285.274 293H283.258V275H285.634V288.86L296.362 275ZM66.88 355.8V381H64.36V358.176H51.4V381H48.88V355.8H66.88ZM81.9336 362.568C84.5016 362.568 86.6856 363.48 88.4856 365.304C90.3096 367.128 91.2216 369.36 91.2216 372C91.2216 374.64 90.3096 376.872 88.4856 378.696C86.6856 380.52 84.5016 381.432 81.9336 381.432C78.7416 381.432 76.3176 380.112 74.6616 377.472V388.2H72.2856V363H74.6616V366.528C76.3176 363.888 78.7416 362.568 81.9336 362.568ZM76.7136 377.076C78.0816 378.444 79.7616 379.128 81.7536 379.128C83.7456 379.128 85.4256 378.444 86.7936 377.076C88.1616 375.684 88.8456 373.992 88.8456 372C88.8456 370.008 88.1616 368.328 86.7936 366.96C85.4256 365.568 83.7456 364.872 81.7536 364.872C79.7616 364.872 78.0816 365.568 76.7136 366.96C75.3456 368.328 74.6616 370.008 74.6616 372C74.6616 373.992 75.3456 375.684 76.7136 377.076ZM110.256 378.732C108.432 380.532 106.2 381.432 103.56 381.432C100.92 381.432 98.6763 380.532 96.8283 378.732C95.0043 376.908 94.0923 374.664 94.0923 372C94.0923 369.336 95.0043 367.104 96.8283 365.304C98.6763 363.48 100.92 362.568 103.56 362.568C106.2 362.568 108.432 363.48 110.256 365.304C112.104 367.104 113.028 369.336 113.028 372C113.028 374.664 112.104 376.908 110.256 378.732ZM98.5203 377.076C99.8883 378.444 101.568 379.128 103.56 379.128C105.552 379.128 107.232 378.444 108.6 377.076C109.968 375.684 110.652 373.992 110.652 372C110.652 370.008 109.968 368.328 108.6 366.96C107.232 365.568 105.552 364.872 103.56 364.872C101.568 364.872 99.8883 365.568 98.5203 366.96C97.1523 368.328 96.4683 370.008 96.4683 372C96.4683 373.992 97.1523 375.684 98.5203 377.076ZM125.392 381.432C122.68 381.432 120.424 380.532 118.624 378.732C116.824 376.908 115.924 374.664 115.924 372C115.924 369.336 116.824 367.104 118.624 365.304C120.424 363.48 122.68 362.568 125.392 362.568C127.168 362.568 128.764 363 130.18 363.864C131.596 364.704 132.628 365.844 133.276 367.284L131.332 368.4C130.852 367.32 130.072 366.468 128.992 365.844C127.936 365.196 126.736 364.872 125.392 364.872C123.4 364.872 121.72 365.568 120.352 366.96C118.984 368.328 118.3 370.008 118.3 372C118.3 373.992 118.984 375.684 120.352 377.076C121.72 378.444 123.4 379.128 125.392 379.128C126.736 379.128 127.936 378.816 128.992 378.192C130.048 377.544 130.876 376.68 131.476 375.6L133.456 376.752C132.712 378.192 131.62 379.332 130.18 380.172C128.74 381.012 127.144 381.432 125.392 381.432ZM154.508 363V381H152.132V366.636L145.832 376.86H145.544L139.244 366.636V381H136.868V363H139.604L145.688 372.864L151.772 363H154.508ZM174.627 378.732C172.803 380.532 170.571 381.432 167.931 381.432C165.291 381.432 163.047 380.532 161.199 378.732C159.375 376.908 158.463 374.664 158.463 372C158.463 369.336 159.375 367.104 161.199 365.304C163.047 363.48 165.291 362.568 167.931 362.568C170.571 362.568 172.803 363.48 174.627 365.304C176.475 367.104 177.399 369.336 177.399 372C177.399 374.664 176.475 376.908 174.627 378.732ZM162.891 377.076C164.259 378.444 165.939 379.128 167.931 379.128C169.923 379.128 171.603 378.444 172.971 377.076C174.339 375.684 175.023 373.992 175.023 372C175.023 370.008 174.339 368.328 172.971 366.96C171.603 365.568 169.923 364.872 167.931 364.872C165.939 364.872 164.259 365.568 162.891 366.96C161.523 368.328 160.839 370.008 160.839 372C160.839 373.992 161.523 375.684 162.891 377.076ZM193.632 363V365.304H187.26V381H184.884V365.304H178.512V363H193.632ZM206.176 362.568C208.744 362.568 210.928 363.48 212.728 365.304C214.552 367.128 215.464 369.36 215.464 372C215.464 374.64 214.552 376.872 212.728 378.696C210.928 380.52 208.744 381.432 206.176 381.432C202.984 381.432 200.56 380.112 198.904 377.472V388.2H196.528V363H198.904V366.528C200.56 363.888 202.984 362.568 206.176 362.568ZM200.956 377.076C202.324 378.444 204.004 379.128 205.996 379.128C207.988 379.128 209.668 378.444 211.036 377.076C212.404 375.684 213.088 373.992 213.088 372C213.088 370.008 212.404 368.328 211.036 366.96C209.668 365.568 207.988 364.872 205.996 364.872C204.004 364.872 202.324 365.568 200.956 366.96C199.588 368.328 198.904 370.008 198.904 372C198.904 373.992 199.588 375.684 200.956 377.076ZM236.803 381.432C234.091 381.432 231.835 380.532 230.035 378.732C228.235 376.908 227.335 374.664 227.335 372C227.335 369.336 228.235 367.104 230.035 365.304C231.835 363.48 234.091 362.568 236.803 362.568C238.579 362.568 240.175 363 241.591 363.864C243.007 364.704 244.039 365.844 244.687 367.284L242.743 368.4C242.263 367.32 241.483 366.468 240.403 365.844C239.347 365.196 238.147 364.872 236.803 364.872C234.811 364.872 233.131 365.568 231.763 366.96C230.395 368.328 229.711 370.008 229.711 372C229.711 373.992 230.395 375.684 231.763 377.076C233.131 378.444 234.811 379.128 236.803 379.128C238.147 379.128 239.347 378.816 240.403 378.192C241.459 377.544 242.287 376.68 242.887 375.6L244.867 376.752C244.123 378.192 243.031 379.332 241.591 380.172C240.151 381.012 238.555 381.432 236.803 381.432ZM256.418 362.568C259.082 362.568 261.23 363.516 262.862 365.412C264.518 367.284 265.346 369.504 265.346 372.072C265.346 372.336 265.322 372.708 265.274 373.188H249.47C249.71 375.012 250.478 376.464 251.774 377.544C253.094 378.6 254.714 379.128 256.634 379.128C258.002 379.128 259.178 378.852 260.162 378.3C261.17 377.724 261.926 376.98 262.43 376.068L264.518 377.292C263.726 378.564 262.646 379.572 261.278 380.316C259.91 381.06 258.35 381.432 256.598 381.432C253.766 381.432 251.462 380.544 249.686 378.768C247.91 376.992 247.022 374.736 247.022 372C247.022 369.312 247.898 367.068 249.65 365.268C251.402 363.468 253.658 362.568 256.418 362.568ZM256.418 364.872C254.546 364.872 252.974 365.436 251.702 366.564C250.454 367.668 249.71 369.108 249.47 370.884H262.898C262.658 368.988 261.926 367.512 260.702 366.456C259.478 365.4 258.05 364.872 256.418 364.872ZM283.669 381H280.501L271.501 372.324V381H269.125V363H271.501V370.956L280.069 363H283.309L274.021 371.64L283.669 381ZM300.206 378.732C298.382 380.532 296.15 381.432 293.51 381.432C290.87 381.432 288.626 380.532 286.778 378.732C284.954 376.908 284.042 374.664 284.042 372C284.042 369.336 284.954 367.104 286.778 365.304C288.626 363.48 290.87 362.568 293.51 362.568C296.15 362.568 298.382 363.48 300.206 365.304C302.054 367.104 302.978 369.336 302.978 372C302.978 374.664 302.054 376.908 300.206 378.732ZM288.47 377.076C289.838 378.444 291.518 379.128 293.51 379.128C295.502 379.128 297.182 378.444 298.55 377.076C299.918 375.684 300.602 373.992 300.602 372C300.602 370.008 299.918 368.328 298.55 366.96C297.182 365.568 295.502 364.872 293.51 364.872C291.518 364.872 289.838 365.568 288.47 366.96C287.102 368.328 286.418 370.008 286.418 372C286.418 373.992 287.102 375.684 288.47 377.076ZM319.698 363H322.074V381H319.698V373.152H309.33V381H306.954V363H309.33V370.848H319.698V363ZM342.218 378.696H344.738V385.824H342.362V381H327.674V385.824H325.298V378.696H327.494C328.718 377.088 329.33 374.82 329.33 371.892V363H342.218V378.696ZM330.374 378.696H339.842V365.304H331.706V371.892C331.706 374.652 331.262 376.92 330.374 378.696ZM362.713 378.732C360.889 380.532 358.657 381.432 356.017 381.432C353.377 381.432 351.133 380.532 349.285 378.732C347.461 376.908 346.549 374.664 346.549 372C346.549 369.336 347.461 367.104 349.285 365.304C351.133 363.48 353.377 362.568 356.017 362.568C358.657 362.568 360.889 363.48 362.713 365.304C364.561 367.104 365.485 369.336 365.485 372C365.485 374.664 364.561 376.908 362.713 378.732ZM350.977 377.076C352.345 378.444 354.025 379.128 356.017 379.128C358.009 379.128 359.689 378.444 361.057 377.076C362.425 375.684 363.109 373.992 363.109 372C363.109 370.008 362.425 368.328 361.057 366.96C359.689 365.568 358.009 364.872 356.017 364.872C354.025 364.872 352.345 365.568 350.977 366.96C349.609 368.328 348.925 370.008 348.925 372C348.925 373.992 349.609 375.684 350.977 377.076ZM380.909 371.748C382.877 372.468 383.861 373.872 383.861 375.96C383.861 377.424 383.369 378.636 382.385 379.596C381.425 380.532 380.033 381 378.209 381H369.461V363H377.489C379.241 363 380.597 363.456 381.557 364.368C382.517 365.256 382.997 366.408 382.997 367.824C382.997 369.624 382.301 370.932 380.909 371.748ZM377.489 365.304H371.837V370.776H377.489C379.577 370.776 380.621 369.84 380.621 367.968C380.621 367.128 380.345 366.48 379.793 366.024C379.265 365.544 378.497 365.304 377.489 365.304ZM378.209 378.696C379.265 378.696 380.069 378.444 380.621 377.94C381.197 377.436 381.485 376.728 381.485 375.816C381.485 374.976 381.197 374.316 380.621 373.836C380.069 373.332 379.265 373.08 378.209 373.08H371.837V378.696H378.209ZM63.568 443.8H66.16L57.772 463.492C56.932 465.508 55.864 466.96 54.568 467.848C53.272 468.736 51.664 469.12 49.744 469V466.696C51.088 466.84 52.192 466.648 53.056 466.12C53.944 465.568 54.676 464.62 55.252 463.276L55.756 462.088L47.08 443.8H49.672L56.944 459.28L63.568 443.8ZM79.4094 459.748C81.3774 460.468 82.3614 461.872 82.3614 463.96C82.3614 465.424 81.8694 466.636 80.8854 467.596C79.9254 468.532 78.5334 469 76.7094 469H67.9614V451H75.9894C77.7414 451 79.0974 451.456 80.0574 452.368C81.0174 453.256 81.4974 454.408 81.4974 455.824C81.4974 457.624 80.8014 458.932 79.4094 459.748ZM75.9894 453.304H70.3374V458.776H75.9894C78.0774 458.776 79.1214 457.84 79.1214 455.968C79.1214 455.128 78.8454 454.48 78.2934 454.024C77.7654 453.544 76.9974 453.304 75.9894 453.304ZM76.7094 466.696C77.7654 466.696 78.5694 466.444 79.1214 465.94C79.6974 465.436 79.9854 464.728 79.9854 463.816C79.9854 462.976 79.6974 462.316 79.1214 461.836C78.5694 461.332 77.7654 461.08 76.7094 461.08H70.3374V466.696H76.7094ZM94.2774 450.568C96.9414 450.568 99.0894 451.516 100.721 453.412C102.377 455.284 103.205 457.504 103.205 460.072C103.205 460.336 103.181 460.708 103.133 461.188H87.3294C87.5694 463.012 88.3374 464.464 89.6334 465.544C90.9534 466.6 92.5734 467.128 94.4934 467.128C95.8614 467.128 97.0374 466.852 98.0214 466.3C99.0294 465.724 99.7854 464.98 100.289 464.068L102.377 465.292C101.585 466.564 100.505 467.572 99.1374 468.316C97.7694 469.06 96.2094 469.432 94.4574 469.432C91.6254 469.432 89.3214 468.544 87.5454 466.768C85.7694 464.992 84.8814 462.736 84.8814 460C84.8814 457.312 85.7574 455.068 87.5094 453.268C89.2614 451.468 91.5174 450.568 94.2774 450.568ZM94.2774 452.872C92.4054 452.872 90.8334 453.436 89.5614 454.564C88.3134 455.668 87.5694 457.108 87.3294 458.884H100.757C100.517 456.988 99.7854 455.512 98.5614 454.456C97.3374 453.4 95.9094 452.872 94.2774 452.872ZM121.402 466.696H123.922V473.824H121.546V469H106.858V473.824H104.482V466.696H106.678C107.902 465.088 108.514 462.82 108.514 459.892V451H121.402V466.696ZM109.558 466.696H119.026V453.304H110.89V459.892C110.89 462.652 110.446 464.92 109.558 466.696ZM141.897 466.732C140.073 468.532 137.841 469.432 135.201 469.432C132.561 469.432 130.317 468.532 128.469 466.732C126.645 464.908 125.733 462.664 125.733 460C125.733 457.336 126.645 455.104 128.469 453.304C130.317 451.48 132.561 450.568 135.201 450.568C137.841 450.568 140.073 451.48 141.897 453.304C143.745 455.104 144.669 457.336 144.669 460C144.669 462.664 143.745 464.908 141.897 466.732ZM130.161 465.076C131.529 466.444 133.209 467.128 135.201 467.128C137.193 467.128 138.873 466.444 140.241 465.076C141.609 463.684 142.293 461.992 142.293 460C142.293 458.008 141.609 456.328 140.241 454.96C138.873 453.568 137.193 452.872 135.201 452.872C133.209 452.872 131.529 453.568 130.161 454.96C128.793 456.328 128.109 458.008 128.109 460C128.109 461.992 128.793 463.684 130.161 465.076ZM166.285 451V469H163.909V454.636L157.609 464.86H157.321L151.021 454.636V469H148.645V451H151.381L157.465 460.864L163.549 451H166.285ZM186.081 451V469H183.705V453.304H175.569V461.332C175.569 464.332 174.993 466.396 173.841 467.524C172.713 468.652 171.153 469.144 169.161 469V466.768C170.529 466.912 171.537 466.588 172.185 465.796C172.857 465.004 173.193 463.516 173.193 461.332V451H186.081ZM199.43 450.568C202.094 450.568 204.242 451.516 205.874 453.412C207.53 455.284 208.358 457.504 208.358 460.072C208.358 460.336 208.334 460.708 208.286 461.188H192.482C192.722 463.012 193.49 464.464 194.786 465.544C196.106 466.6 197.726 467.128 199.646 467.128C201.014 467.128 202.19 466.852 203.174 466.3C204.182 465.724 204.938 464.98 205.442 464.068L207.53 465.292C206.738 466.564 205.658 467.572 204.29 468.316C202.922 469.06 201.362 469.432 199.61 469.432C196.778 469.432 194.474 468.544 192.698 466.768C190.922 464.992 190.034 462.736 190.034 460C190.034 457.312 190.91 455.068 192.662 453.268C194.414 451.468 196.67 450.568 199.43 450.568ZM199.43 452.872C197.558 452.872 195.986 453.436 194.714 454.564C193.466 455.668 192.722 457.108 192.482 458.884H205.91C205.67 456.988 204.938 455.512 203.714 454.456C202.49 453.4 201.062 452.872 199.43 452.872ZM224.881 451H227.257V469H224.881V461.152H214.513V469H212.137V451H214.513V458.848H224.881V451ZM245.386 451H247.402V469H245.026V455.14L234.298 469H232.282V451H234.658V464.86L245.386 451ZM265.386 451V469H263.01V462.088H259.914L254.37 469H251.346L257.034 462.016C255.594 461.8 254.406 461.2 253.47 460.216C252.534 459.232 252.066 458.02 252.066 456.58C252.066 454.948 252.642 453.616 253.794 452.584C254.97 451.528 256.398 451 258.078 451H265.386ZM258.078 459.856H263.01V453.304H258.078C257.07 453.304 256.206 453.604 255.486 454.204C254.79 454.804 254.442 455.596 254.442 456.58C254.442 457.564 254.79 458.356 255.486 458.956C256.206 459.556 257.07 459.856 258.078 459.856ZM294.51 466.732C292.686 468.532 290.454 469.432 287.814 469.432C285.174 469.432 282.93 468.532 281.082 466.732C279.258 464.908 278.346 462.664 278.346 460C278.346 457.336 279.258 455.104 281.082 453.304C282.93 451.48 285.174 450.568 287.814 450.568C290.454 450.568 292.686 451.48 294.51 453.304C296.358 455.104 297.282 457.336 297.282 460C297.282 462.664 296.358 464.908 294.51 466.732ZM282.774 465.076C284.142 466.444 285.822 467.128 287.814 467.128C289.806 467.128 291.486 466.444 292.854 465.076C294.222 463.684 294.906 461.992 294.906 460C294.906 458.008 294.222 456.328 292.854 454.96C291.486 453.568 289.806 452.872 287.814 452.872C285.822 452.872 284.142 453.568 282.774 454.96C281.406 456.328 280.722 458.008 280.722 460C280.722 461.992 281.406 463.684 282.774 465.076ZM325.378 451V469H323.002V453.304H312.634V469H310.258V451H325.378ZM340.051 450.568C342.619 450.568 344.803 451.48 346.603 453.304C348.427 455.128 349.339 457.36 349.339 460C349.339 462.64 348.427 464.872 346.603 466.696C344.803 468.52 342.619 469.432 340.051 469.432C336.859 469.432 334.435 468.112 332.779 465.472V476.2H330.403V451H332.779V454.528C334.435 451.888 336.859 450.568 340.051 450.568ZM334.831 465.076C336.199 466.444 337.879 467.128 339.871 467.128C341.863 467.128 343.543 466.444 344.911 465.076C346.279 463.684 346.963 461.992 346.963 460C346.963 458.008 346.279 456.328 344.911 454.96C343.543 453.568 341.863 452.872 339.871 452.872C337.879 452.872 336.199 453.568 334.831 454.96C333.463 456.328 332.779 458.008 332.779 460C332.779 461.992 333.463 463.684 334.831 465.076ZM366.394 451H368.41V469H366.034V455.14L355.306 469H353.29V451H355.666V464.86L366.394 451ZM381.426 469.432C378.834 469.432 376.674 468.58 374.946 466.876C373.218 465.148 372.354 462.916 372.354 460.18C372.354 457.108 372.81 454.756 373.722 453.124C374.634 451.468 376.482 449.968 379.266 448.624C379.794 448.36 380.49 448.048 381.354 447.688C382.242 447.328 382.902 447.04 383.334 446.824C383.79 446.608 384.282 446.332 384.81 445.996C385.338 445.636 385.734 445.24 385.998 444.808C386.262 444.376 386.43 443.86 386.502 443.26L388.374 444.34C388.278 444.916 388.086 445.456 387.798 445.96C387.51 446.464 387.21 446.872 386.898 447.184C386.61 447.496 386.142 447.844 385.494 448.228C384.87 448.588 384.378 448.852 384.018 449.02C383.682 449.164 383.082 449.416 382.218 449.776C381.378 450.136 380.814 450.376 380.526 450.496C378.846 451.216 377.61 451.972 376.818 452.764C376.026 453.532 375.462 454.54 375.126 455.788C375.942 454.708 376.974 453.916 378.222 453.412C379.494 452.884 380.73 452.62 381.93 452.62C384.33 452.62 386.31 453.412 387.87 454.996C389.454 456.556 390.246 458.56 390.246 461.008C390.246 463.432 389.406 465.448 387.726 467.056C386.07 468.64 383.97 469.432 381.426 469.432ZM381.426 467.056C383.298 467.056 384.834 466.492 386.034 465.364C387.258 464.212 387.87 462.76 387.87 461.008C387.87 459.232 387.294 457.78 386.142 456.652C385.014 455.5 383.502 454.924 381.606 454.924C379.902 454.924 378.354 455.464 376.962 456.544C375.57 457.6 374.874 459.016 374.874 460.792C374.874 462.616 375.498 464.116 376.746 465.292C378.018 466.468 379.578 467.056 381.426 467.056ZM407.917 451V469H405.541V453.304H397.405V461.332C397.405 464.332 396.829 466.396 395.677 467.524C394.549 468.652 392.989 469.144 390.997 469V466.768C392.365 466.912 393.373 466.588 394.021 465.796C394.693 465.004 395.029 463.516 395.029 461.332V451H407.917ZM426.054 451H428.07V469H425.694V455.14L414.966 469H412.95V451H415.326V464.86L426.054 451ZM454.118 469H451.238L443.894 460.324V469H441.518V460.324L434.174 469H431.294L439.358 459.64L431.654 451H434.534L441.518 458.992V451H443.894V458.992L450.878 451H453.758L446.054 459.64L454.118 469ZM471.391 451H473.767V469H471.391V465.472C469.735 468.112 467.311 469.432 464.119 469.432C461.551 469.432 459.355 468.52 457.531 466.696C455.731 464.872 454.831 462.64 454.831 460C454.831 457.36 455.731 455.128 457.531 453.304C459.355 451.48 461.551 450.568 464.119 450.568C467.311 450.568 469.735 451.888 471.391 454.528V451ZM459.259 465.076C460.627 466.444 462.307 467.128 464.299 467.128C466.291 467.128 467.971 466.444 469.339 465.076C470.707 463.684 471.391 461.992 471.391 460C471.391 458.008 470.707 456.328 469.339 454.96C467.971 453.568 466.291 452.872 464.299 452.872C462.307 452.872 460.627 453.568 459.259 454.96C457.891 456.328 457.207 458.008 457.207 460C457.207 461.992 457.891 463.684 459.259 465.076ZM494.169 450.568C496.809 450.568 499.041 451.48 500.865 453.304C502.713 455.104 503.637 457.336 503.637 460C503.637 462.664 502.713 464.908 500.865 466.732C499.041 468.532 496.809 469.432 494.169 469.432C491.745 469.432 489.657 468.652 487.905 467.092C486.177 465.508 485.181 463.528 484.917 461.152H481.173V469H478.797V451H481.173V458.848H484.917C485.181 456.472 486.177 454.504 487.905 452.944C489.657 451.36 491.745 450.568 494.169 450.568ZM489.129 465.076C490.497 466.444 492.177 467.128 494.169 467.128C496.161 467.128 497.841 466.444 499.209 465.076C500.577 463.684 501.261 461.992 501.261 460C501.261 458.008 500.577 456.328 499.209 454.96C497.841 453.568 496.161 452.872 494.169 452.872C492.177 452.872 490.497 453.568 489.129 454.96C487.761 456.328 487.077 458.008 487.077 460C487.077 461.992 487.761 463.684 489.129 465.076ZM531.71 466.696H534.23V473.824H531.854V469H507.59V451H509.966V466.696H518.462V451H520.838V466.696H529.334V451H531.71V466.696ZM545.438 450.568C548.102 450.568 550.25 451.516 551.882 453.412C553.538 455.284 554.366 457.504 554.366 460.072C554.366 460.336 554.342 460.708 554.294 461.188H538.49C538.73 463.012 539.498 464.464 540.794 465.544C542.114 466.6 543.734 467.128 545.654 467.128C547.022 467.128 548.198 466.852 549.182 466.3C550.19 465.724 550.946 464.98 551.45 464.068L553.538 465.292C552.746 466.564 551.666 467.572 550.298 468.316C548.93 469.06 547.37 469.432 545.618 469.432C542.786 469.432 540.482 468.544 538.706 466.768C536.93 464.992 536.042 462.736 536.042 460C536.042 457.312 536.918 455.068 538.67 453.268C540.422 451.468 542.678 450.568 545.438 450.568ZM545.438 452.872C543.566 452.872 541.994 453.436 540.722 454.564C539.474 455.668 538.73 457.108 538.49 458.884H551.918C551.678 456.988 550.946 455.512 549.722 454.456C548.498 453.4 547.07 452.872 545.438 452.872ZM575.785 451V469H573.409V454.636L567.109 464.86H566.821L560.521 454.636V469H558.145V451H560.881L566.965 460.864L573.049 451H575.785ZM589.209 469.432C586.497 469.432 584.241 468.532 582.441 466.732C580.641 464.908 579.741 462.664 579.741 460C579.741 457.336 580.641 455.104 582.441 453.304C584.241 451.48 586.497 450.568 589.209 450.568C590.985 450.568 592.581 451 593.997 451.864C595.413 452.704 596.445 453.844 597.093 455.284L595.149 456.4C594.669 455.32 593.889 454.468 592.809 453.844C591.753 453.196 590.553 452.872 589.209 452.872C587.217 452.872 585.537 453.568 584.169 454.96C582.801 456.328 582.117 458.008 582.117 460C582.117 461.992 582.801 463.684 584.169 465.076C585.537 466.444 587.217 467.128 589.209 467.128C590.553 467.128 591.753 466.816 592.809 466.192C593.865 465.544 594.693 464.68 595.293 463.6L597.273 464.752C596.529 466.192 595.437 467.332 593.997 468.172C592.557 469.012 590.961 469.432 589.209 469.432ZM613.293 451V469H610.917V462.088H607.821L602.277 469H599.253L604.941 462.016C603.501 461.8 602.313 461.2 601.377 460.216C600.441 459.232 599.973 458.02 599.973 456.58C599.973 454.948 600.549 453.616 601.701 452.584C602.877 451.528 604.305 451 605.985 451H613.293ZM605.985 459.856H610.917V453.304H605.985C604.977 453.304 604.113 453.604 603.393 454.204C602.697 454.804 602.349 455.596 602.349 456.58C602.349 457.564 602.697 458.356 603.393 458.956C604.113 459.556 604.977 459.856 605.985 459.856ZM66.16 493V511H63.784V496.636L57.484 506.86H57.196L50.896 496.636V511H48.52V493H51.256L57.34 502.864L63.424 493H66.16ZM79.5118 492.568C82.1758 492.568 84.3238 493.516 85.9558 495.412C87.6118 497.284 88.4398 499.504 88.4398 502.072C88.4398 502.336 88.4158 502.708 88.3678 503.188H72.5638C72.8038 505.012 73.5718 506.464 74.8678 507.544C76.1878 508.6 77.8078 509.128 79.7278 509.128C81.0958 509.128 82.2718 508.852 83.2558 508.3C84.2638 507.724 85.0198 506.98 85.5238 506.068L87.6118 507.292C86.8198 508.564 85.7398 509.572 84.3718 510.316C83.0038 511.06 81.4438 511.432 79.6918 511.432C76.8598 511.432 74.5558 510.544 72.7798 508.768C71.0038 506.992 70.1158 504.736 70.1158 502C70.1158 499.312 70.9918 497.068 72.7438 495.268C74.4958 493.468 76.7518 492.568 79.5118 492.568ZM79.5118 494.872C77.6398 494.872 76.0678 495.436 74.7958 496.564C73.5478 497.668 72.8038 499.108 72.5638 500.884H85.9918C85.7518 498.988 85.0198 497.512 83.7958 496.456C82.5718 495.4 81.1438 494.872 79.5118 494.872ZM101.867 492.568C104.435 492.568 106.619 493.48 108.419 495.304C110.243 497.128 111.155 499.36 111.155 502C111.155 504.64 110.243 506.872 108.419 508.696C106.619 510.52 104.435 511.432 101.867 511.432C98.6752 511.432 96.2512 510.112 94.5952 507.472V518.2H92.2192V493H94.5952V496.528C96.2512 493.888 98.6752 492.568 101.867 492.568ZM96.6472 507.076C98.0152 508.444 99.6952 509.128 101.687 509.128C103.679 509.128 105.359 508.444 106.727 507.076C108.095 505.684 108.779 503.992 108.779 502C108.779 500.008 108.095 498.328 106.727 496.96C105.359 495.568 103.679 494.872 101.687 494.872C99.6952 494.872 98.0152 495.568 96.6472 496.96C95.2792 498.328 94.5952 500.008 94.5952 502C94.5952 503.992 95.2792 505.684 96.6472 507.076ZM130.19 508.732C128.366 510.532 126.134 511.432 123.494 511.432C120.854 511.432 118.61 510.532 116.762 508.732C114.938 506.908 114.026 504.664 114.026 502C114.026 499.336 114.938 497.104 116.762 495.304C118.61 493.48 120.854 492.568 123.494 492.568C126.134 492.568 128.366 493.48 130.19 495.304C132.038 497.104 132.962 499.336 132.962 502C132.962 504.664 132.038 506.908 130.19 508.732ZM118.454 507.076C119.822 508.444 121.502 509.128 123.494 509.128C125.486 509.128 127.166 508.444 128.534 507.076C129.902 505.684 130.586 503.992 130.586 502C130.586 500.008 129.902 498.328 128.534 496.96C127.166 495.568 125.486 494.872 123.494 494.872C121.502 494.872 119.822 495.568 118.454 496.96C117.086 498.328 116.402 500.008 116.402 502C116.402 503.992 117.086 505.684 118.454 507.076ZM152.058 493V511H149.682V495.304H139.314V511H136.938V493H152.058ZM166.731 492.568C169.299 492.568 171.483 493.48 173.283 495.304C175.107 497.128 176.019 499.36 176.019 502C176.019 504.64 175.107 506.872 173.283 508.696C171.483 510.52 169.299 511.432 166.731 511.432C163.539 511.432 161.115 510.112 159.459 507.472V518.2H157.083V493H159.459V496.528C161.115 493.888 163.539 492.568 166.731 492.568ZM161.511 507.076C162.879 508.444 164.559 509.128 166.551 509.128C168.543 509.128 170.223 508.444 171.591 507.076C172.959 505.684 173.643 503.992 173.643 502C173.643 500.008 172.959 498.328 171.591 496.96C170.223 495.568 168.543 494.872 166.551 494.872C164.559 494.872 162.879 495.568 161.511 496.96C160.143 498.328 159.459 500.008 159.459 502C159.459 503.992 160.143 505.684 161.511 507.076ZM193.073 493H195.089V511H192.713V497.14L181.985 511H179.969V493H182.345V506.86L193.073 493ZM213.074 493V495.304H206.702V511H204.326V495.304H197.954V493H213.074ZM227.839 493V511H225.463V504.088H222.367L216.823 511H213.799L219.487 504.016C218.047 503.8 216.859 503.2 215.923 502.216C214.987 501.232 214.519 500.02 214.519 498.58C214.519 496.948 215.095 495.616 216.247 494.584C217.423 493.528 218.851 493 220.531 493H227.839ZM220.531 501.856H225.463V495.304H220.531C219.523 495.304 218.659 495.604 217.939 496.204C217.243 496.804 216.895 497.596 216.895 498.58C216.895 499.564 217.243 500.356 217.939 500.956C218.659 501.556 219.523 501.856 220.531 501.856ZM245.983 493H247.999V511H245.623V497.14L234.895 511H232.879V493H235.255V506.86L245.983 493ZM266.128 493H268.144V511H265.768V497.14L255.04 511H253.024V493H255.4V506.86L266.128 493ZM66.88 596.624H69.58V603.824H67.06V599H49.06V603.824H46.54V596.624H48.592C50.248 594.68 51.076 591.68 51.076 587.624V573.8H66.88V596.624ZM51.58 596.624H64.36V576.176H53.596V587.696C53.596 591.68 52.924 594.656 51.58 596.624ZM87.7563 596.732C85.9323 598.532 83.7003 599.432 81.0603 599.432C78.4203 599.432 76.1763 598.532 74.3283 596.732C72.5043 594.908 71.5923 592.664 71.5923 590C71.5923 587.336 72.5043 585.104 74.3283 583.304C76.1763 581.48 78.4203 580.568 81.0603 580.568C83.7003 580.568 85.9323 581.48 87.7563 583.304C89.6043 585.104 90.5283 587.336 90.5283 590C90.5283 592.664 89.6043 594.908 87.7563 596.732ZM76.0203 595.076C77.3883 596.444 79.0683 597.128 81.0603 597.128C83.0523 597.128 84.7323 596.444 86.1003 595.076C87.4683 593.684 88.1523 591.992 88.1523 590C88.1523 588.008 87.4683 586.328 86.1003 584.96C84.7323 583.568 83.0523 582.872 81.0603 582.872C79.0683 582.872 77.3883 583.568 76.0203 584.96C74.6523 586.328 73.9683 588.008 73.9683 590C73.9683 591.992 74.6523 593.684 76.0203 595.076ZM102.496 599.432C99.9044 599.432 97.7444 598.58 96.0164 596.876C94.2884 595.148 93.4244 592.916 93.4244 590.18C93.4244 587.108 93.8804 584.756 94.7924 583.124C95.7044 581.468 97.5524 579.968 100.336 578.624C100.864 578.36 101.56 578.048 102.424 577.688C103.312 577.328 103.972 577.04 104.404 576.824C104.86 576.608 105.352 576.332 105.88 575.996C106.408 575.636 106.804 575.24 107.068 574.808C107.332 574.376 107.5 573.86 107.572 573.26L109.444 574.34C109.348 574.916 109.156 575.456 108.868 575.96C108.58 576.464 108.28 576.872 107.968 577.184C107.68 577.496 107.212 577.844 106.564 578.228C105.94 578.588 105.448 578.852 105.088 579.02C104.752 579.164 104.152 579.416 103.288 579.776C102.448 580.136 101.884 580.376 101.596 580.496C99.9164 581.216 98.6804 581.972 97.8884 582.764C97.0964 583.532 96.5324 584.54 96.1964 585.788C97.0124 584.708 98.0444 583.916 99.2924 583.412C100.564 582.884 101.8 582.62 103 582.62C105.4 582.62 107.38 583.412 108.94 584.996C110.524 586.556 111.316 588.56 111.316 591.008C111.316 593.432 110.476 595.448 108.796 597.056C107.14 598.64 105.04 599.432 102.496 599.432ZM102.496 597.056C104.368 597.056 105.904 596.492 107.104 595.364C108.328 594.212 108.94 592.76 108.94 591.008C108.94 589.232 108.364 587.78 107.212 586.652C106.084 585.5 104.572 584.924 102.676 584.924C100.972 584.924 99.4244 585.464 98.0324 586.544C96.6404 587.6 95.9444 589.016 95.9444 590.792C95.9444 592.616 96.5684 594.116 97.8164 595.292C99.0884 596.468 100.648 597.056 102.496 597.056ZM130.41 581H132.786V599H130.41V595.472C128.754 598.112 126.33 599.432 123.138 599.432C120.57 599.432 118.374 598.52 116.55 596.696C114.75 594.872 113.85 592.64 113.85 590C113.85 587.36 114.75 585.128 116.55 583.304C118.374 581.48 120.57 580.568 123.138 580.568C126.33 580.568 128.754 581.888 130.41 584.528V581ZM118.278 595.076C119.646 596.444 121.326 597.128 123.318 597.128C125.31 597.128 126.99 596.444 128.358 595.076C129.726 593.684 130.41 591.992 130.41 590C130.41 588.008 129.726 586.328 128.358 584.96C126.99 583.568 125.31 582.872 123.318 582.872C121.326 582.872 119.646 583.568 118.278 584.96C116.91 586.328 116.226 588.008 116.226 590C116.226 591.992 116.91 593.684 118.278 595.076ZM149.265 589.748C151.233 590.468 152.217 591.872 152.217 593.96C152.217 595.424 151.725 596.636 150.741 597.596C149.781 598.532 148.389 599 146.565 599H137.817V581H145.845C147.597 581 148.953 581.456 149.913 582.368C150.873 583.256 151.353 584.408 151.353 585.824C151.353 587.624 150.657 588.932 149.265 589.748ZM145.845 583.304H140.193V588.776H145.845C147.933 588.776 148.977 587.84 148.977 585.968C148.977 585.128 148.701 584.48 148.149 584.024C147.621 583.544 146.853 583.304 145.845 583.304ZM146.565 596.696C147.621 596.696 148.425 596.444 148.977 595.94C149.553 595.436 149.841 594.728 149.841 593.816C149.841 592.976 149.553 592.316 148.977 591.836C148.425 591.332 147.621 591.08 146.565 591.08H140.193V596.696H146.565ZM169.874 581V599H167.498V583.304H159.362V591.332C159.362 594.332 158.786 596.396 157.634 597.524C156.506 598.652 154.946 599.144 152.954 599V596.768C154.322 596.912 155.33 596.588 155.978 595.796C156.65 595.004 156.986 593.516 156.986 591.332V581H169.874ZM183.223 580.568C185.887 580.568 188.035 581.516 189.667 583.412C191.323 585.284 192.151 587.504 192.151 590.072C192.151 590.336 192.127 590.708 192.079 591.188H176.275C176.515 593.012 177.283 594.464 178.579 595.544C179.899 596.6 181.519 597.128 183.439 597.128C184.807 597.128 185.983 596.852 186.967 596.3C187.975 595.724 188.731 594.98 189.235 594.068L191.323 595.292C190.531 596.564 189.451 597.572 188.083 598.316C186.715 599.06 185.155 599.432 183.403 599.432C180.571 599.432 178.267 598.544 176.491 596.768C174.715 594.992 173.827 592.736 173.827 590C173.827 587.312 174.703 585.068 176.455 583.268C178.207 581.468 180.463 580.568 183.223 580.568ZM183.223 582.872C181.351 582.872 179.779 583.436 178.507 584.564C177.259 585.668 176.515 587.108 176.275 588.884H189.703C189.463 586.988 188.731 585.512 187.507 584.456C186.283 583.4 184.855 582.872 183.223 582.872ZM208.674 581H211.05V599H208.674V591.152H198.306V599H195.93V581H198.306V588.848H208.674V581ZM229.179 581H231.195V599H228.819V585.14L218.091 599H216.075V581H218.451V594.86L229.179 581ZM244.535 580.568C247.199 580.568 249.347 581.516 250.979 583.412C252.635 585.284 253.463 587.504 253.463 590.072C253.463 590.336 253.439 590.708 253.391 591.188H237.587C237.827 593.012 238.595 594.464 239.891 595.544C241.211 596.6 242.831 597.128 244.751 597.128C246.119 597.128 247.295 596.852 248.279 596.3C249.287 595.724 250.043 594.98 250.547 594.068L252.635 595.292C251.843 596.564 250.763 597.572 249.395 598.316C248.027 599.06 246.467 599.432 244.715 599.432C241.883 599.432 239.579 598.544 237.803 596.768C236.027 594.992 235.139 592.736 235.139 590C235.139 587.312 236.015 585.068 237.767 583.268C239.519 581.468 241.775 580.568 244.535 580.568ZM244.535 582.872C242.663 582.872 241.091 583.436 239.819 584.564C238.571 585.668 237.827 587.108 237.587 588.884H251.015C250.775 586.988 250.043 585.512 248.819 584.456C247.595 583.4 246.167 582.872 244.535 582.872ZM283.883 581V599H281.507V584.636L275.207 594.86H274.919L268.619 584.636V599H266.243V581H268.979L275.063 590.864L281.147 581H283.883ZM297.234 580.568C299.898 580.568 302.046 581.516 303.678 583.412C305.334 585.284 306.162 587.504 306.162 590.072C306.162 590.336 306.138 590.708 306.09 591.188H290.286C290.526 593.012 291.294 594.464 292.59 595.544C293.91 596.6 295.53 597.128 297.45 597.128C298.818 597.128 299.994 596.852 300.978 596.3C301.986 595.724 302.742 594.98 303.246 594.068L305.334 595.292C304.542 596.564 303.462 597.572 302.094 598.316C300.726 599.06 299.166 599.432 297.414 599.432C294.582 599.432 292.278 598.544 290.502 596.768C288.726 594.992 287.838 592.736 287.838 590C287.838 587.312 288.714 585.068 290.466 583.268C292.218 581.468 294.474 580.568 297.234 580.568ZM297.234 582.872C295.362 582.872 293.79 583.436 292.518 584.564C291.27 585.668 290.526 587.108 290.286 588.884H303.714C303.474 586.988 302.742 585.512 301.518 584.456C300.294 583.4 298.866 582.872 297.234 582.872ZM319.59 580.568C322.158 580.568 324.342 581.48 326.142 583.304C327.966 585.128 328.878 587.36 328.878 590C328.878 592.64 327.966 594.872 326.142 596.696C324.342 598.52 322.158 599.432 319.59 599.432C316.398 599.432 313.974 598.112 312.318 595.472V606.2H309.942V581H312.318V584.528C313.974 581.888 316.398 580.568 319.59 580.568ZM314.37 595.076C315.738 596.444 317.418 597.128 319.41 597.128C321.402 597.128 323.082 596.444 324.45 595.076C325.818 593.684 326.502 591.992 326.502 590C326.502 588.008 325.818 586.328 324.45 584.96C323.082 583.568 321.402 582.872 319.41 582.872C317.418 582.872 315.738 583.568 314.37 584.96C313.002 586.328 312.318 588.008 312.318 590C312.318 591.992 313.002 593.684 314.37 595.076ZM347.913 596.732C346.089 598.532 343.857 599.432 341.217 599.432C338.577 599.432 336.333 598.532 334.485 596.732C332.661 594.908 331.749 592.664 331.749 590C331.749 587.336 332.661 585.104 334.485 583.304C336.333 581.48 338.577 580.568 341.217 580.568C343.857 580.568 346.089 581.48 347.913 583.304C349.761 585.104 350.685 587.336 350.685 590C350.685 592.664 349.761 594.908 347.913 596.732ZM336.177 595.076C337.545 596.444 339.225 597.128 341.217 597.128C343.209 597.128 344.889 596.444 346.257 595.076C347.625 593.684 348.309 591.992 348.309 590C348.309 588.008 347.625 586.328 346.257 584.96C344.889 583.568 343.209 582.872 341.217 582.872C339.225 582.872 337.545 583.568 336.177 584.96C334.809 586.328 334.125 588.008 334.125 590C334.125 591.992 334.809 593.684 336.177 595.076ZM369.781 581V599H367.405V583.304H357.037V599H354.661V581H369.781ZM384.453 580.568C387.021 580.568 389.205 581.48 391.005 583.304C392.829 585.128 393.741 587.36 393.741 590C393.741 592.64 392.829 594.872 391.005 596.696C389.205 598.52 387.021 599.432 384.453 599.432C381.261 599.432 378.837 598.112 377.181 595.472V606.2H374.805V581H377.181V584.528C378.837 581.888 381.261 580.568 384.453 580.568ZM379.233 595.076C380.601 596.444 382.281 597.128 384.273 597.128C386.265 597.128 387.945 596.444 389.313 595.076C390.681 593.684 391.365 591.992 391.365 590C391.365 588.008 390.681 586.328 389.313 584.96C387.945 583.568 386.265 582.872 384.273 582.872C382.281 582.872 380.601 583.568 379.233 584.96C377.865 586.328 377.181 588.008 377.181 590C377.181 591.992 377.865 593.684 379.233 595.076ZM410.796 581H412.812V599H410.436V585.14L399.708 599H397.692V581H400.068V594.86L410.796 581ZM430.796 581V599H428.42V592.088H425.324L419.78 599H416.756L422.444 592.016C421.004 591.8 419.816 591.2 418.88 590.216C417.944 589.232 417.476 588.02 417.476 586.58C417.476 584.948 418.052 583.616 419.204 582.584C420.38 581.528 421.808 581 423.488 581H430.796ZM423.488 589.856H428.42V583.304H423.488C422.48 583.304 421.616 583.604 420.896 584.204C420.2 584.804 419.852 585.596 419.852 586.58C419.852 587.564 420.2 588.356 420.896 588.956C421.616 589.556 422.48 589.856 423.488 589.856ZM448.796 581V583.304H442.424V599H440.048V583.304H433.676V581H448.796ZM464.796 581H466.812V599H464.436V585.14L453.708 599H451.692V581H454.068V594.86L464.796 581ZM474.716 578.12V576.032H484.076V578.12H474.716ZM484.94 581H486.956V599H484.58V585.14L473.852 599H471.836V581H474.212V594.86L484.94 581ZM512.429 589.748C514.397 590.468 515.381 591.872 515.381 593.96C515.381 595.424 514.889 596.636 513.905 597.596C512.945 598.532 511.553 599 509.729 599H500.981V581H509.009C510.761 581 512.117 581.456 513.077 582.368C514.037 583.256 514.517 584.408 514.517 585.824C514.517 587.624 513.821 588.932 512.429 589.748ZM509.009 583.304H503.357V588.776H509.009C511.097 588.776 512.141 587.84 512.141 585.968C512.141 585.128 511.865 584.48 511.313 584.024C510.785 583.544 510.017 583.304 509.009 583.304ZM509.729 596.696C510.785 596.696 511.589 596.444 512.141 595.94C512.717 595.436 513.005 594.728 513.005 593.816C513.005 592.976 512.717 592.316 512.141 591.836C511.589 591.332 510.785 591.08 509.729 591.08H503.357V596.696H509.729ZM542.525 599H539.357L530.357 590.324V599H527.981V581H530.357V588.956L538.925 581H542.165L532.877 589.64L542.525 599ZM559.457 581H561.833V599H559.457V595.472C557.801 598.112 555.377 599.432 552.185 599.432C549.617 599.432 547.421 598.52 545.597 596.696C543.797 594.872 542.897 592.64 542.897 590C542.897 587.36 543.797 585.128 545.597 583.304C547.421 581.48 549.617 580.568 552.185 580.568C555.377 580.568 557.801 581.888 559.457 584.528V581ZM547.325 595.076C548.693 596.444 550.373 597.128 552.365 597.128C554.357 597.128 556.037 596.444 557.405 595.076C558.773 593.684 559.457 591.992 559.457 590C559.457 588.008 558.773 586.328 557.405 584.96C556.037 583.568 554.357 582.872 552.365 582.872C550.373 582.872 548.693 583.568 547.325 584.96C545.957 586.328 545.273 588.008 545.273 590C545.273 591.992 545.957 593.684 547.325 595.076ZM581.624 581V599H579.248V583.304H571.112V591.332C571.112 594.332 570.536 596.396 569.384 597.524C568.256 598.652 566.696 599.144 564.704 599V596.768C566.072 596.912 567.08 596.588 567.728 595.796C568.4 595.004 568.736 593.516 568.736 591.332V581H581.624ZM594.973 580.568C597.637 580.568 599.785 581.516 601.417 583.412C603.073 585.284 603.901 587.504 603.901 590.072C603.901 590.336 603.877 590.708 603.829 591.188H588.025C588.265 593.012 589.033 594.464 590.329 595.544C591.649 596.6 593.269 597.128 595.189 597.128C596.557 597.128 597.733 596.852 598.717 596.3C599.725 595.724 600.481 594.98 600.985 594.068L603.073 595.292C602.281 596.564 601.201 597.572 599.833 598.316C598.465 599.06 596.905 599.432 595.153 599.432C592.321 599.432 590.017 598.544 588.241 596.768C586.465 594.992 585.577 592.736 585.577 590C585.577 587.312 586.453 585.068 588.205 583.268C589.957 581.468 592.213 580.568 594.973 580.568ZM594.973 582.872C593.101 582.872 591.529 583.436 590.257 584.564C589.009 585.668 588.265 587.108 588.025 588.884H601.453C601.213 586.988 600.481 585.512 599.257 584.456C598.033 583.4 596.605 582.872 594.973 582.872ZM620.424 581H622.8V599H620.424V591.152H610.056V599H607.68V581H610.056V588.848H620.424V581ZM642.945 596.696H645.465V603.824H643.089V599H628.401V603.824H626.025V596.696H628.221C629.445 595.088 630.057 592.82 630.057 589.892V581H642.945V596.696ZM631.101 596.696H640.569V583.304H632.433V589.892C632.433 592.652 631.989 594.92 631.101 596.696ZM663.836 581H666.212V599H663.836V595.472C662.18 598.112 659.756 599.432 656.564 599.432C653.996 599.432 651.8 598.52 649.976 596.696C648.176 594.872 647.276 592.64 647.276 590C647.276 587.36 648.176 585.128 649.976 583.304C651.8 581.48 653.996 580.568 656.564 580.568C659.756 580.568 662.18 581.888 663.836 584.528V581ZM651.704 595.076C653.072 596.444 654.752 597.128 656.744 597.128C658.736 597.128 660.416 596.444 661.784 595.076C663.152 593.684 663.836 591.992 663.836 590C663.836 588.008 663.152 586.328 661.784 584.96C660.416 583.568 658.736 582.872 656.744 582.872C654.752 582.872 653.072 583.568 651.704 584.96C650.336 586.328 649.652 588.008 649.652 590C649.652 591.992 650.336 593.684 651.704 595.076ZM680.891 580.568C683.459 580.568 685.643 581.48 687.443 583.304C689.267 585.128 690.179 587.36 690.179 590C690.179 592.64 689.267 594.872 687.443 596.696C685.643 598.52 683.459 599.432 680.891 599.432C677.699 599.432 675.275 598.112 673.619 595.472V606.2H671.243V581H673.619V584.528C675.275 581.888 677.699 580.568 680.891 580.568ZM675.671 595.076C677.039 596.444 678.719 597.128 680.711 597.128C682.703 597.128 684.383 596.444 685.751 595.076C687.119 593.684 687.803 591.992 687.803 590C687.803 588.008 687.119 586.328 685.751 584.96C684.383 583.568 682.703 582.872 680.711 582.872C678.719 582.872 677.039 583.568 675.671 584.96C674.303 586.328 673.619 588.008 673.619 590C673.619 591.992 674.303 593.684 675.671 595.076ZM701.437 587.84C703.117 587.84 704.533 588.368 705.685 589.424C706.861 590.456 707.449 591.788 707.449 593.42C707.449 595.052 706.861 596.396 705.685 597.452C704.533 598.484 703.117 599 701.437 599H694.129V581H696.505V587.84H701.437ZM701.437 596.696C702.445 596.696 703.297 596.396 703.993 595.796C704.713 595.196 705.073 594.404 705.073 593.42C705.073 592.436 704.713 591.644 703.993 591.044C703.297 590.444 702.445 590.144 701.437 590.144H696.505V596.696H701.437Z" fill="black"/>
<rect x="15.5562" y="5" width="22" height="22" transform="rotate(45 15.5562 5)" fill="black"/>
<rect x="15.5562" y="95" width="22" height="22" transform="rotate(45 15.5562 95)" fill="black"/>
<rect x="15.5562" y="220" width="22" height="22" transform="rotate(45 15.5562 220)" fill="black"/>
<rect x="15.5562" y="351" width="22" height="22" transform="rotate(45 15.5562 351)" fill="black"/>
<rect x="15.5562" y="438" width="22" height="22" transform="rotate(45 15.5562 438)" fill="black"/>
<rect x="15.5562" y="573" width="22" height="22" transform="rotate(45 15.5562 573)" fill="black"/>
</svg>
