<svg width="33" height="33" viewBox="0 0 33 33" fill="none" xmlns="http://www.w3.org/2000/svg">
<path d="M26.6833 0.490234H5.33667C3.9213 0.490234 2.56389 1.05249 1.56307 2.05331C0.562255 3.05413 0 4.41153 0 5.8269L0 27.1736C0 28.589 0.562255 29.9464 1.56307 30.9472C2.56389 31.948 3.9213 32.5103 5.33667 32.5103H26.6833C28.0987 32.5103 29.4561 31.948 30.4569 30.9472C31.4578 29.9464 32.02 28.589 32.02 27.1736V5.8269C32.02 4.41153 31.4578 3.05413 30.4569 2.05331C29.4561 1.05249 28.0987 0.490234 26.6833 0.490234V0.490234ZM29.3517 27.1736C29.3517 27.8813 29.0706 28.56 28.5701 29.0604C28.0697 29.5608 27.391 29.8419 26.6833 29.8419H5.33667C4.62898 29.8419 3.95028 29.5608 3.44987 29.0604C2.94946 28.56 2.66833 27.8813 2.66833 27.1736V5.8269C2.66833 5.11922 2.94946 4.44052 3.44987 3.94011C3.95028 3.4397 4.62898 3.15857 5.33667 3.15857H26.6833C27.391 3.15857 28.0697 3.4397 28.5701 3.94011C29.0706 4.44052 29.3517 5.11922 29.3517 5.8269V27.1736Z" fill="white"/>
<path d="M16.0099 8.49414C14.4267 8.49414 12.879 8.96363 11.5625 9.84323C10.2461 10.7228 9.22011 11.973 8.61423 13.4358C8.00835 14.8985 7.84983 16.508 8.1587 18.0608C8.46758 19.6137 9.22998 21.04 10.3495 22.1595C11.469 23.2791 12.8954 24.0415 14.4482 24.3503C16.001 24.6592 17.6106 24.5007 19.0733 23.8948C20.536 23.2889 21.7862 22.2629 22.6658 20.9465C23.5454 19.6301 24.0149 18.0824 24.0149 16.4991C24.0149 14.3761 23.1715 12.34 21.6703 10.8388C20.1691 9.33752 18.133 8.49414 16.0099 8.49414ZM16.0099 21.8358C14.9544 21.8358 13.9226 21.5228 13.045 20.9364C12.1674 20.35 11.4834 19.5166 11.0795 18.5414C10.6755 17.5663 10.5698 16.4932 10.7758 15.458C10.9817 14.4228 11.4899 13.4719 12.2363 12.7255C12.9826 11.9792 13.9335 11.4709 14.9688 11.265C16.004 11.0591 17.077 11.1648 18.0521 11.5687C19.0273 11.9726 19.8608 12.6566 20.4472 13.5343C21.0336 14.4119 21.3466 15.4437 21.3466 16.4991C21.3466 17.9145 20.7843 19.2719 19.7835 20.2727C18.7827 21.2736 17.4253 21.8358 16.0099 21.8358Z" fill="white"/>
<path d="M24.6819 9.82867C25.7872 9.82867 26.6832 8.93268 26.6832 7.82742C26.6832 6.72216 25.7872 5.82617 24.6819 5.82617C23.5767 5.82617 22.6807 6.72216 22.6807 7.82742C22.6807 8.93268 23.5767 9.82867 24.6819 9.82867Z" fill="white"/>
</svg>
