<svg width="485" height="89" viewBox="0 0 485 89" fill="none" xmlns="http://www.w3.org/2000/svg">
<path d="M19.6107 70.1009C6.97987 65.6653 0.4429 60.5524 0 54.7622C0.0245797 48.8375 6.33109 42.9884 18.9194 37.2149C31.633 31.9433 48.6332 26.7835 69.9202 21.7352C91.7999 17.0544 117.328 12.9379 146.504 9.38578C175.68 5.83365 206.867 3.31658 240.067 1.83458C273.142 -0.149348 304.363 -0.524198 333.732 0.710018C363.567 1.80974 389.601 3.73446 411.832 6.48412C434.188 9.73571 451.978 13.763 465.201 18.5661C478.425 23.3692 485.025 28.733 485 34.6577C484.975 40.5824 478.606 46.1806 465.893 51.4521C453.772 57.0911 436.772 62.251 414.892 66.9318C393.012 71.6127 367.484 75.7291 338.308 79.2813C309.258 83.3353 277.899 86.1706 244.231 87.7871C211.032 89.2691 179.748 89.393 150.379 88.1588C121.136 87.4265 95.3365 85.4346 72.9803 82.183C50.6241 78.9314 32.8343 74.904 19.6107 70.1009Z" fill="white"/>
<path d="M19.6107 70.1009C6.97987 65.6653 0.4429 60.5524 0 54.7622C0.0245797 48.8375 6.33109 42.9884 18.9194 37.2149C31.633 31.9433 48.6332 26.7835 69.9202 21.7352C91.7999 17.0544 117.328 12.9379 146.504 9.38578C175.68 5.83365 206.867 3.31658 240.067 1.83458C273.142 -0.149348 304.363 -0.524198 333.732 0.710018C363.567 1.80974 389.601 3.73446 411.832 6.48412C434.188 9.73571 451.978 13.763 465.201 18.5661C478.425 23.3692 485.025 28.733 485 34.6577C484.975 40.5824 478.606 46.1806 465.893 51.4521C453.772 57.0911 436.772 62.251 414.892 66.9318C393.012 71.6127 367.484 75.7291 338.308 79.2813C309.258 83.3353 277.899 86.1706 244.231 87.7871C211.032 89.2691 179.748 89.393 150.379 88.1588C121.136 87.4265 95.3365 85.4346 72.9803 82.183C50.6241 78.9314 32.8343 74.904 19.6107 70.1009Z" fill="#F19FF9"/>
<path d="M131.704 31.8H135.88L128.068 50.52C126.148 55.104 123.04 57.264 118.744 57V53.148C120.16 53.292 121.3 53.076 122.164 52.5C123.052 51.924 123.76 50.964 124.288 49.62L115.9 31.8H120.076L126.196 45.084L131.704 31.8ZM146.65 47.784C148.57 48.648 149.53 50.076 149.53 52.068C149.53 53.604 148.906 54.888 147.658 55.92C146.41 56.952 144.67 57.468 142.438 57.468C138.814 57.468 136.366 56.028 135.094 53.148L138.262 51.276C138.91 53.076 140.314 53.976 142.474 53.976C143.482 53.976 144.274 53.772 144.85 53.364C145.426 52.932 145.714 52.368 145.714 51.672C145.714 51.048 145.486 50.556 145.03 50.196C144.574 49.812 143.938 49.62 143.122 49.62H140.566V46.2H142.474C143.266 46.2 143.878 46.02 144.31 45.66C144.766 45.276 144.994 44.76 144.994 44.112C144.994 43.488 144.742 42.984 144.238 42.6C143.734 42.192 143.062 41.988 142.222 41.988C140.422 41.988 139.174 42.78 138.478 44.364L135.31 42.564C136.654 39.876 138.934 38.532 142.15 38.532C144.166 38.532 145.762 39.048 146.938 40.08C148.138 41.088 148.738 42.324 148.738 43.788C148.738 45.588 148.042 46.92 146.65 47.784ZM164.838 39H168.726V57H164.838V49.836H156.594V57H152.706V39H156.594V46.164H164.838V39ZM187.493 39H191.381V57H187.493V54.408C186.029 56.448 183.929 57.468 181.193 57.468C178.721 57.468 176.609 56.556 174.857 54.732C173.105 52.884 172.229 50.64 172.229 48C172.229 45.336 173.105 43.092 174.857 41.268C176.609 39.444 178.721 38.532 181.193 38.532C183.929 38.532 186.029 39.54 187.493 41.556V39ZM177.737 52.14C178.817 53.22 180.173 53.76 181.805 53.76C183.437 53.76 184.793 53.22 185.873 52.14C186.953 51.036 187.493 49.656 187.493 48C187.493 46.344 186.953 44.976 185.873 43.896C184.793 42.792 183.437 42.24 181.805 42.24C180.173 42.24 178.817 42.792 177.737 43.896C176.657 44.976 176.117 46.344 176.117 48C176.117 49.656 176.657 51.036 177.737 52.14ZM209.665 39V42.744H203.797V57H199.909V42.744H194.005V39H209.665ZM220.143 45.12C222.063 45.12 223.635 45.672 224.859 46.776C226.083 47.856 226.695 49.284 226.695 51.06C226.695 52.812 226.083 54.24 224.859 55.344C223.635 56.448 222.063 57 220.143 57H212.295V39H216.183V45.12H220.143ZM220.179 53.508C220.947 53.508 221.583 53.28 222.087 52.824C222.615 52.368 222.879 51.78 222.879 51.06C222.879 50.316 222.615 49.728 222.087 49.296C221.583 48.84 220.947 48.612 220.179 48.612H216.183V53.508H220.179ZM247.225 57.468C244.465 57.468 242.209 56.58 240.457 54.804C238.729 53.004 237.865 50.712 237.865 47.928C237.865 44.88 238.321 42.528 239.233 40.872C240.145 39.192 241.993 37.668 244.777 36.3C245.233 36.084 245.905 35.772 246.793 35.364C247.705 34.956 248.329 34.668 248.665 34.5C249.001 34.308 249.421 34.044 249.925 33.708C250.429 33.348 250.801 32.976 251.041 32.592C251.281 32.184 251.473 31.704 251.617 31.152L254.785 32.988C254.689 33.516 254.533 34.008 254.317 34.464C254.101 34.896 253.789 35.304 253.381 35.688C252.973 36.072 252.613 36.384 252.301 36.624C252.013 36.864 251.521 37.152 250.825 37.488C250.129 37.824 249.613 38.064 249.277 38.208C248.965 38.352 248.365 38.604 247.477 38.964C245.893 39.588 244.729 40.236 243.985 40.908C243.265 41.556 242.761 42.372 242.473 43.356C243.913 41.724 245.869 40.908 248.341 40.908C250.453 40.908 252.289 41.664 253.849 43.176C255.433 44.688 256.225 46.644 256.225 49.044C256.225 51.492 255.385 53.508 253.705 55.092C252.049 56.676 249.889 57.468 247.225 57.468ZM247.189 53.832C248.701 53.832 249.937 53.388 250.897 52.5C251.857 51.588 252.337 50.436 252.337 49.044C252.337 47.628 251.857 46.464 250.897 45.552C249.961 44.64 248.737 44.184 247.225 44.184C245.881 44.184 244.669 44.616 243.589 45.48C242.509 46.32 241.969 47.448 241.969 48.864C241.969 50.304 242.473 51.492 243.481 52.428C244.489 53.364 245.725 53.832 247.189 53.832ZM267.795 57.468C265.155 57.468 262.911 56.556 261.063 54.732C259.215 52.908 258.291 50.664 258.291 48C258.291 45.336 259.215 43.092 261.063 41.268C262.911 39.444 265.155 38.532 267.795 38.532C270.459 38.532 272.703 39.444 274.527 41.268C276.375 43.092 277.299 45.336 277.299 48C277.299 50.664 276.375 52.908 274.527 54.732C272.703 56.556 270.459 57.468 267.795 57.468ZM263.799 52.068C264.879 53.148 266.211 53.688 267.795 53.688C269.379 53.688 270.711 53.148 271.791 52.068C272.871 50.988 273.411 49.632 273.411 48C273.411 46.368 272.871 45.012 271.791 43.932C270.711 42.852 269.379 42.312 267.795 42.312C266.211 42.312 264.879 42.852 263.799 43.932C262.719 45.012 262.179 46.368 262.179 48C262.179 49.632 262.719 50.988 263.799 52.068ZM295.48 39V57H291.592V42.744H285.58V49.44C285.58 52.296 284.956 54.324 283.708 55.524C282.46 56.724 280.684 57.216 278.38 57V53.364C279.484 53.556 280.312 53.328 280.864 52.68C281.416 52.032 281.692 50.892 281.692 49.26V39H295.48ZM307.858 45.12C309.778 45.12 311.35 45.672 312.574 46.776C313.798 47.856 314.41 49.284 314.41 51.06C314.41 52.812 313.798 54.24 312.574 55.344C311.35 56.448 309.778 57 307.858 57H300.01V39H303.898V45.12H307.858ZM307.894 53.508C308.662 53.508 309.298 53.28 309.802 52.824C310.33 52.368 310.594 51.78 310.594 51.06C310.594 50.316 310.33 49.728 309.802 49.296C309.298 48.84 308.662 48.612 307.894 48.612H303.898V53.508H307.894ZM338.9 39H342.788V57H317.588V39H321.476V53.328H328.244V39H332.132V53.328H338.9V39ZM350.355 49.656C350.643 51.024 351.303 52.08 352.335 52.824C353.367 53.544 354.627 53.904 356.115 53.904C358.179 53.904 359.727 53.16 360.759 51.672L363.963 53.544C362.187 56.16 359.559 57.468 356.079 57.468C353.151 57.468 350.787 56.58 348.987 54.804C347.187 53.004 346.287 50.736 346.287 48C346.287 45.312 347.175 43.068 348.951 41.268C350.727 39.444 353.007 38.532 355.791 38.532C358.431 38.532 360.591 39.456 362.271 41.304C363.975 43.152 364.827 45.396 364.827 48.036C364.827 48.444 364.779 48.984 364.683 49.656H350.355ZM350.319 46.488H360.903C360.639 45.024 360.027 43.92 359.067 43.176C358.131 42.432 357.027 42.06 355.755 42.06C354.315 42.06 353.115 42.456 352.155 43.248C351.195 44.04 350.583 45.12 350.319 46.488Z" fill="white"/>
</svg>
