<svg width="487" height="91" viewBox="0 0 487 91" fill="none" xmlns="http://www.w3.org/2000/svg">
<path d="M339.308 80.2813C310.258 84.3353 278.899 87.1706 245.231 88.7871C212.032 90.2691 180.748 90.393 151.379 89.1588M339.308 80.2813L339.369 80.7776C339.37 80.7775 339.372 80.7773 339.373 80.7771M339.308 80.2813L339.378 80.7765C339.376 80.7767 339.374 80.7769 339.373 80.7771M339.308 80.2813C368.484 76.7291 394.012 72.6127 415.892 67.9318C437.772 63.251 454.772 58.0911 466.893 52.4521C479.606 47.1806 485.975 41.5824 486 35.6577C486.025 29.733 479.425 24.3692 466.201 19.5661C452.978 14.763 435.188 10.7357 412.832 7.48412L1 55.7622M339.373 80.7771C310.307 84.8332 278.934 87.6695 245.255 89.2865L245.254 89.2866C212.043 90.7691 180.746 90.8932 151.362 89.6585M339.373 80.7771C368.558 77.2238 394.1 73.1053 415.997 68.4208C437.886 63.7378 454.925 58.57 467.094 52.9099C473.469 50.2658 478.293 47.5246 481.535 44.6754C484.779 41.8237 486.487 38.8182 486.5 35.6598C486.513 32.4888 484.748 29.5374 481.384 26.8033C478.022 24.0706 473.007 21.5059 466.372 19.0961C453.103 14.2766 435.276 10.2432 412.904 6.98921L412.893 6.9879C390.644 4.23605 364.597 2.31051 334.751 1.21041C305.366 -0.0244962 274.129 0.350655 241.041 2.33525C207.832 3.81776 176.632 6.33573 147.443 9.88944C118.257 13.4429 92.7136 17.5615 70.8156 22.2463L70.8156 22.2461L70.8048 22.2487C49.5051 27.3 32.4762 32.4671 19.7279 37.753L19.7194 37.7566L19.711 37.7604C13.3942 40.6575 8.61681 43.5894 5.40829 46.5653C2.19994 49.5409 0.513087 52.6068 0.500004 55.7601L0.499921 55.7803L0.501456 55.8003C0.737556 58.887 2.59623 61.7283 5.92684 64.3334C9.25582 66.9372 14.1043 69.3458 20.4422 71.5717M151.362 89.6585C151.364 89.6585 151.365 89.6586 151.367 89.6586L151.379 89.1588M151.362 89.6585C151.361 89.6584 151.36 89.6584 151.358 89.6583L151.379 89.1588M151.362 89.6585C122.107 88.9258 96.2878 86.9327 73.9083 83.6778C51.5373 80.424 33.7108 76.3908 20.4422 71.5717M151.379 89.1588C122.136 88.4265 96.3365 86.4346 73.9803 83.183C51.6241 79.9314 33.8343 75.904 20.6107 71.1009M20.6107 71.1009L20.4451 71.5727C20.4441 71.5724 20.4432 71.572 20.4422 71.5717M20.6107 71.1009C7.97987 66.6653 1.4429 61.5524 1 55.7622M20.6107 71.1009L20.44 71.5709C20.4408 71.5712 20.4415 71.5714 20.4422 71.5717M1 55.7622C1.02458 49.8375 7.33109 43.9884 19.9194 38.2149C32.633 32.9433 49.6332 27.7835 70.9202 22.7352L1 55.7622Z" fill="white" stroke="black"/>
<path d="M132.704 32.8H136.88L129.068 51.52C127.148 56.104 124.04 58.264 119.744 58V54.148C121.16 54.292 122.3 54.076 123.164 53.5C124.052 52.924 124.76 51.964 125.288 50.62L116.9 32.8H121.076L127.196 46.084L132.704 32.8ZM147.65 48.784C149.57 49.648 150.53 51.076 150.53 53.068C150.53 54.604 149.906 55.888 148.658 56.92C147.41 57.952 145.67 58.468 143.438 58.468C139.814 58.468 137.366 57.028 136.094 54.148L139.262 52.276C139.91 54.076 141.314 54.976 143.474 54.976C144.482 54.976 145.274 54.772 145.85 54.364C146.426 53.932 146.714 53.368 146.714 52.672C146.714 52.048 146.486 51.556 146.03 51.196C145.574 50.812 144.938 50.62 144.122 50.62H141.566V47.2H143.474C144.266 47.2 144.878 47.02 145.31 46.66C145.766 46.276 145.994 45.76 145.994 45.112C145.994 44.488 145.742 43.984 145.238 43.6C144.734 43.192 144.062 42.988 143.222 42.988C141.422 42.988 140.174 43.78 139.478 45.364L136.31 43.564C137.654 40.876 139.934 39.532 143.15 39.532C145.166 39.532 146.762 40.048 147.938 41.08C149.138 42.088 149.738 43.324 149.738 44.788C149.738 46.588 149.042 47.92 147.65 48.784ZM165.838 40H169.726V58H165.838V50.836H157.594V58H153.706V40H157.594V47.164H165.838V40ZM188.493 40H192.381V58H188.493V55.408C187.029 57.448 184.929 58.468 182.193 58.468C179.721 58.468 177.609 57.556 175.857 55.732C174.105 53.884 173.229 51.64 173.229 49C173.229 46.336 174.105 44.092 175.857 42.268C177.609 40.444 179.721 39.532 182.193 39.532C184.929 39.532 187.029 40.54 188.493 42.556V40ZM178.737 53.14C179.817 54.22 181.173 54.76 182.805 54.76C184.437 54.76 185.793 54.22 186.873 53.14C187.953 52.036 188.493 50.656 188.493 49C188.493 47.344 187.953 45.976 186.873 44.896C185.793 43.792 184.437 43.24 182.805 43.24C181.173 43.24 179.817 43.792 178.737 44.896C177.657 45.976 177.117 47.344 177.117 49C177.117 50.656 177.657 52.036 178.737 53.14ZM210.665 40V43.744H204.797V58H200.909V43.744H195.005V40H210.665ZM221.143 46.12C223.063 46.12 224.635 46.672 225.859 47.776C227.083 48.856 227.695 50.284 227.695 52.06C227.695 53.812 227.083 55.24 225.859 56.344C224.635 57.448 223.063 58 221.143 58H213.295V40H217.183V46.12H221.143ZM221.179 54.508C221.947 54.508 222.583 54.28 223.087 53.824C223.615 53.368 223.879 52.78 223.879 52.06C223.879 51.316 223.615 50.728 223.087 50.296C222.583 49.84 221.947 49.612 221.179 49.612H217.183V54.508H221.179ZM248.225 58.468C245.465 58.468 243.209 57.58 241.457 55.804C239.729 54.004 238.865 51.712 238.865 48.928C238.865 45.88 239.321 43.528 240.233 41.872C241.145 40.192 242.993 38.668 245.777 37.3C246.233 37.084 246.905 36.772 247.793 36.364C248.705 35.956 249.329 35.668 249.665 35.5C250.001 35.308 250.421 35.044 250.925 34.708C251.429 34.348 251.801 33.976 252.041 33.592C252.281 33.184 252.473 32.704 252.617 32.152L255.785 33.988C255.689 34.516 255.533 35.008 255.317 35.464C255.101 35.896 254.789 36.304 254.381 36.688C253.973 37.072 253.613 37.384 253.301 37.624C253.013 37.864 252.521 38.152 251.825 38.488C251.129 38.824 250.613 39.064 250.277 39.208C249.965 39.352 249.365 39.604 248.477 39.964C246.893 40.588 245.729 41.236 244.985 41.908C244.265 42.556 243.761 43.372 243.473 44.356C244.913 42.724 246.869 41.908 249.341 41.908C251.453 41.908 253.289 42.664 254.849 44.176C256.433 45.688 257.225 47.644 257.225 50.044C257.225 52.492 256.385 54.508 254.705 56.092C253.049 57.676 250.889 58.468 248.225 58.468ZM248.189 54.832C249.701 54.832 250.937 54.388 251.897 53.5C252.857 52.588 253.337 51.436 253.337 50.044C253.337 48.628 252.857 47.464 251.897 46.552C250.961 45.64 249.737 45.184 248.225 45.184C246.881 45.184 245.669 45.616 244.589 46.48C243.509 47.32 242.969 48.448 242.969 49.864C242.969 51.304 243.473 52.492 244.481 53.428C245.489 54.364 246.725 54.832 248.189 54.832ZM268.795 58.468C266.155 58.468 263.911 57.556 262.063 55.732C260.215 53.908 259.291 51.664 259.291 49C259.291 46.336 260.215 44.092 262.063 42.268C263.911 40.444 266.155 39.532 268.795 39.532C271.459 39.532 273.703 40.444 275.527 42.268C277.375 44.092 278.299 46.336 278.299 49C278.299 51.664 277.375 53.908 275.527 55.732C273.703 57.556 271.459 58.468 268.795 58.468ZM264.799 53.068C265.879 54.148 267.211 54.688 268.795 54.688C270.379 54.688 271.711 54.148 272.791 53.068C273.871 51.988 274.411 50.632 274.411 49C274.411 47.368 273.871 46.012 272.791 44.932C271.711 43.852 270.379 43.312 268.795 43.312C267.211 43.312 265.879 43.852 264.799 44.932C263.719 46.012 263.179 47.368 263.179 49C263.179 50.632 263.719 51.988 264.799 53.068ZM296.48 40V58H292.592V43.744H286.58V50.44C286.58 53.296 285.956 55.324 284.708 56.524C283.46 57.724 281.684 58.216 279.38 58V54.364C280.484 54.556 281.312 54.328 281.864 53.68C282.416 53.032 282.692 51.892 282.692 50.26V40H296.48ZM308.858 46.12C310.778 46.12 312.35 46.672 313.574 47.776C314.798 48.856 315.41 50.284 315.41 52.06C315.41 53.812 314.798 55.24 313.574 56.344C312.35 57.448 310.778 58 308.858 58H301.01V40H304.898V46.12H308.858ZM308.894 54.508C309.662 54.508 310.298 54.28 310.802 53.824C311.33 53.368 311.594 52.78 311.594 52.06C311.594 51.316 311.33 50.728 310.802 50.296C310.298 49.84 309.662 49.612 308.894 49.612H304.898V54.508H308.894ZM339.9 40H343.788V58H318.588V40H322.476V54.328H329.244V40H333.132V54.328H339.9V40ZM351.355 50.656C351.643 52.024 352.303 53.08 353.335 53.824C354.367 54.544 355.627 54.904 357.115 54.904C359.179 54.904 360.727 54.16 361.759 52.672L364.963 54.544C363.187 57.16 360.559 58.468 357.079 58.468C354.151 58.468 351.787 57.58 349.987 55.804C348.187 54.004 347.287 51.736 347.287 49C347.287 46.312 348.175 44.068 349.951 42.268C351.727 40.444 354.007 39.532 356.791 39.532C359.431 39.532 361.591 40.456 363.271 42.304C364.975 44.152 365.827 46.396 365.827 49.036C365.827 49.444 365.779 49.984 365.683 50.656H351.355ZM351.319 47.488H361.903C361.639 46.024 361.027 44.92 360.067 44.176C359.131 43.432 358.027 43.06 356.755 43.06C355.315 43.06 354.115 43.456 353.155 44.248C352.195 45.04 351.583 46.12 351.319 47.488Z" fill="black"/>
</svg>
