<svg width="1362" height="8" viewBox="0 0 1362 8" fill="none" xmlns="http://www.w3.org/2000/svg">
<path d="M0.646447 3.64645C0.451184 3.84171 0.451184 4.15829 0.646447 4.35355L3.82843 7.53553C4.02369 7.7308 4.34027 7.7308 4.53553 7.53553C4.7308 7.34027 4.7308 7.02369 4.53553 6.82843L1.70711 4L4.53553 1.17157C4.7308 0.976311 4.7308 0.659728 4.53553 0.464466C4.34027 0.269204 4.02369 0.269204 3.82843 0.464466L0.646447 3.64645ZM1361.35 4.35355C1361.55 4.15829 1361.55 3.84171 1361.35 3.64645L1358.17 0.464466C1357.98 0.269204 1357.66 0.269204 1357.46 0.464466C1357.27 0.659728 1357.27 0.976311 1357.46 1.17157L1360.29 4L1357.46 6.82843C1357.27 7.02369 1357.27 7.34027 1357.46 7.53553C1357.66 7.7308 1357.98 7.7308 1358.17 7.53553L1361.35 4.35355ZM1 4.5H1361V3.5H1V4.5Z" fill="white"/>
</svg>
