<svg width="159" height="98" viewBox="0 0 159 98" fill="none" xmlns="http://www.w3.org/2000/svg">
<path d="M75.0293 97.4896C77.1648 94.0542 79.2539 88.437 81.2965 80.6378C83.432 72.8386 85.6139 63.8789 87.8422 53.7585C89.3278 47.0735 90.5348 40.7599 91.4633 34.8177C92.4846 28.7826 93.181 23.4903 93.5523 18.9408C94.0166 14.2985 94.1558 10.5846 93.9701 7.79916C93.7845 5.01375 93.2274 3.52819 92.2989 3.3425C91.3704 3.15681 90.2098 4.27098 88.8171 6.68501C87.4244 9.09903 85.9389 12.488 84.3605 16.8518C82.7821 21.1227 81.1572 26.1829 79.486 32.0323C77.9076 37.8817 76.3756 44.1489 74.8901 50.8339C73.7759 56.1261 72.801 61.2327 71.9654 66.1536C71.1297 70.9817 70.4334 75.4384 69.8763 79.5236C69.4121 83.5161 69.1335 87.0907 69.0407 90.2475C68.9478 93.3115 69.0407 95.7255 69.3192 97.4896H56.9241C57.9454 95.8183 59.0132 93.5436 60.1273 90.6653C61.3344 87.787 62.5414 84.491 63.7484 80.7771C64.9554 76.9703 66.1624 72.8386 67.3694 68.382C68.5764 63.8325 69.737 59.0508 70.8512 54.0371C72.3368 47.2592 73.5438 40.8528 74.4722 34.8177C75.4007 28.7826 76.0506 23.4903 76.422 18.9408C76.7934 14.2985 76.8398 10.5846 76.5613 7.79916C76.3756 5.01375 75.8185 3.52819 74.8901 3.3425C73.9616 3.15681 72.8474 4.27098 71.5476 6.68501C70.2477 9.09903 68.8086 12.4415 67.2302 16.7125C65.7446 20.9835 64.1662 25.9972 62.4949 31.7537C60.9165 37.5103 59.3846 43.6382 57.899 50.1375C55.485 61.0935 53.628 70.5639 52.3282 78.5487C50.9355 86.4408 50.3784 92.7544 50.6569 97.4896H43.9719L65.6982 0H79.2074C79.2074 3.15681 79.3467 5.66368 79.6253 7.52063C79.9966 9.37757 80.6002 10.3989 81.4358 10.5846C82.2714 10.7703 83.2927 9.93465 84.4997 8.07771C85.7996 6.12792 87.0995 3.43535 88.3993 0H102.883L92.2989 48.7448L81.7143 97.4896H75.0293Z" fill="black"/>
<path d="M130.701 0C126.801 16.2483 123.087 32.4965 119.559 48.7448C116.124 64.993 112.595 81.2413 108.974 97.4896H86.134L107.86 0H130.701ZM98.1113 94.1471C99.1326 94.3328 100.34 93.3579 101.732 91.2224C103.218 88.9941 104.796 85.8837 106.468 81.8913C108.139 77.8988 109.764 73.21 111.342 67.8249C113.013 62.4398 114.545 56.6368 115.938 50.416C117.331 44.1024 118.398 38.1602 119.141 32.5894C119.977 27.0185 120.534 22.0976 120.812 17.8267C121.091 13.5557 121.045 10.1668 120.673 7.6599C120.395 5.06017 119.745 3.62104 118.723 3.3425C117.702 3.06396 116.449 4.03886 114.963 6.26719C113.478 8.49552 111.899 11.6059 110.228 15.5983C108.649 19.5908 107.025 24.326 105.353 29.804C103.682 35.1891 102.197 40.992 100.897 47.2128C99.504 53.4336 98.3898 59.3294 97.5542 64.9002C96.7186 70.471 96.1615 75.3919 95.883 79.6629C95.6973 83.841 95.7437 87.23 96.0222 89.8297C96.3936 92.4294 97.09 93.8685 98.1113 94.1471Z" fill="black"/>
<path d="M137.831 3.3425C137.088 3.15681 136.252 3.80674 135.324 5.29229C134.395 6.685 133.42 8.58837 132.399 11.0024H132.121L134.627 0H159L156.493 11.2809H156.354C156.261 9.2383 156.075 7.4742 155.797 5.98865C155.518 4.50309 155.1 3.66747 154.543 3.48178C153.615 3.29608 152.454 4.41024 151.061 6.82427C149.762 9.2383 148.322 12.5808 146.744 16.8518C145.258 21.1227 143.68 26.1829 142.009 32.0323C140.43 37.8817 138.898 44.1489 137.413 50.8339C136.299 56.1261 135.277 61.1863 134.349 66.0144C133.513 70.8424 132.863 75.2991 132.399 79.3844C131.935 83.3768 131.61 86.9514 131.424 90.1082C131.331 93.1722 131.424 95.6326 131.703 97.4896H119.586C120.608 95.8183 121.675 93.5436 122.789 90.6653C123.996 87.787 125.203 84.4445 126.41 80.6378C127.71 76.7382 128.964 72.5137 130.171 67.9642C131.378 63.4146 132.538 58.633 133.653 53.6193C135.138 46.9343 136.345 40.5742 137.274 34.5392C138.295 28.5041 138.991 23.2118 139.363 18.6623C139.734 14.1128 139.78 10.4917 139.502 7.79916C139.316 5.01375 138.759 3.52819 137.831 3.3425Z" fill="black"/>
<path d="M27.8542 -0.00031552C25.7188 3.43503 23.6297 9.05228 21.5871 16.8514C19.4516 24.6506 17.2697 33.6104 15.0413 43.7307C13.5558 50.4157 12.3487 56.7293 11.4203 62.6715C10.399 68.7066 9.7026 73.9989 9.33121 78.5484C8.86698 83.1908 8.7277 86.9047 8.9134 89.6901C9.09909 92.4755 9.65618 93.9611 10.5846 94.1468C11.5131 94.3324 12.6737 93.2183 14.0664 90.8042C15.4591 88.3902 16.9447 85.0013 18.5231 80.6375C20.1015 76.3665 21.7263 71.3063 23.3976 65.457C24.976 59.6076 26.5079 53.3404 27.9935 46.6554C29.1077 41.3631 30.0826 36.2565 30.9182 31.3356C31.7538 26.5076 32.4502 22.0509 33.0073 17.9656C33.4715 13.9732 33.75 10.3986 33.8429 7.24176C33.9357 4.1778 33.8429 1.76378 33.5643 -0.000315021L45.9594 -0.000313937C44.9381 1.67094 43.8704 3.94569 42.7562 6.82395C41.5492 9.70222 40.3422 12.9983 39.1352 16.7122C37.9282 20.5189 36.7211 24.6506 35.5141 29.1073C34.3071 33.6568 33.1465 38.4384 32.0324 43.4522C30.5468 50.23 29.3398 56.6365 28.4113 62.6715C27.4828 68.7066 26.8329 73.9989 26.4615 78.5484C26.0901 83.1908 26.0437 86.9047 26.3222 89.6901C26.5079 92.4755 27.065 93.9611 27.9935 94.1468C28.922 94.3325 30.0361 93.2183 31.336 90.8043C32.6359 88.3902 34.075 85.0477 35.6534 80.7768C37.139 76.5058 38.7174 71.492 40.3886 65.7355C41.967 59.979 43.499 53.8511 44.9845 47.3518C47.3986 36.3958 49.2555 26.9254 50.5554 18.9405C51.9481 11.0485 52.5052 4.73489 52.2266 -0.00031339L58.9116 -0.000312805L37.1854 97.4893L23.6761 97.4893C23.6761 94.3324 23.5368 91.8256 23.2583 89.9686C22.8869 88.1117 22.2834 87.0904 21.4478 86.9047C20.6121 86.719 19.5908 87.5546 18.3838 89.4115C17.084 91.3613 15.7841 94.0539 14.4842 97.4893L6.86646e-05 97.4893L21.1692 -0.000316105L27.8542 -0.00031552Z" fill="black"/>
</svg>
