<svg width="159" height="98" viewBox="0 0 159 98" fill="none" xmlns="http://www.w3.org/2000/svg">
<path d="M75.0301 97.4896C77.1655 94.0542 79.2546 88.437 81.2972 80.6378C83.4327 72.8386 85.6146 63.8789 87.843 53.7585C89.3285 47.0735 90.5355 40.7599 91.464 34.8177C92.4853 28.7826 93.1817 23.4903 93.5531 18.9408C94.0173 14.2985 94.1566 10.5846 93.9709 7.79916C93.7852 5.01375 93.2281 3.52819 92.2996 3.3425C91.3712 3.15681 90.2106 4.27098 88.8179 6.68501C87.4252 9.09903 85.9396 12.488 84.3612 16.8518C82.7828 21.1227 81.158 26.1829 79.4867 32.0323C77.9083 37.8817 76.3763 44.1489 74.8908 50.8339C73.7766 56.1261 72.8017 61.2327 71.9661 66.1536C71.1305 70.9817 70.4341 75.4384 69.877 79.5236C69.4128 83.5161 69.1343 87.0907 69.0414 90.2475C68.9486 93.3115 69.0414 95.7255 69.3199 97.4896H56.9248C57.9462 95.8183 59.0139 93.5436 60.1281 90.6653C61.3351 87.787 62.5421 84.491 63.7491 80.7771C64.9561 76.9703 66.1631 72.8386 67.3702 68.382C68.5772 63.8325 69.7378 59.0508 70.8519 54.0371C72.3375 47.2592 73.5445 40.8528 74.473 34.8177C75.4014 28.7826 76.0514 23.4903 76.4228 18.9408C76.7942 14.2985 76.8406 10.5846 76.562 7.79916C76.3763 5.01375 75.8193 3.52819 74.8908 3.3425C73.9623 3.15681 72.8481 4.27098 71.5483 6.68501C70.2484 9.09903 68.8093 12.4415 67.2309 16.7125C65.7453 20.9835 64.1669 25.9972 62.4957 31.7537C60.9173 37.5103 59.3853 43.6382 57.8997 50.1375C55.4857 61.0935 53.6288 70.5639 52.3289 78.5487C50.9362 86.4408 50.3791 92.7544 50.6577 97.4896H43.9727L65.6989 0H79.2082C79.2082 3.15681 79.3474 5.66368 79.626 7.52063C79.9974 9.37757 80.6009 10.3989 81.4365 10.5846C82.2721 10.7703 83.2935 9.93465 84.5005 8.07771C85.8003 6.12792 87.1002 3.43535 88.4 0H102.884L92.2996 48.7448L81.7151 97.4896H75.0301Z" fill="white"/>
<path d="M130.701 0C126.802 16.2483 123.088 32.4965 119.56 48.7448C116.124 64.993 112.596 81.2413 108.975 97.4896H86.1347L107.861 0H130.701ZM98.112 94.1471C99.1333 94.3328 100.34 93.3579 101.733 91.2224C103.219 88.9941 104.797 85.8837 106.468 81.8913C108.14 77.8988 109.764 73.21 111.343 67.8249C113.014 62.4398 114.546 56.6368 115.939 50.416C117.331 44.1024 118.399 38.1602 119.142 32.5894C119.978 27.0185 120.535 22.0976 120.813 17.8267C121.092 13.5557 121.045 10.1668 120.674 7.6599C120.395 5.06017 119.745 3.62104 118.724 3.3425C117.703 3.06396 116.449 4.03886 114.964 6.26719C113.478 8.49552 111.9 11.6059 110.229 15.5983C108.65 19.5908 107.025 24.326 105.354 29.804C103.683 35.1891 102.197 40.992 100.897 47.2128C99.5047 53.4336 98.3906 59.3294 97.5549 64.9002C96.7193 70.471 96.1622 75.3919 95.8837 79.6629C95.698 83.841 95.7444 87.23 96.023 89.8297C96.3943 92.4294 97.0907 93.8685 98.112 94.1471Z" fill="white"/>
<path d="M137.831 3.3425C137.089 3.15681 136.253 3.80674 135.325 5.29229C134.396 6.685 133.421 8.58837 132.4 11.0024H132.121L134.628 0H159.001L156.494 11.2809H156.354C156.262 9.2383 156.076 7.4742 155.797 5.98865C155.519 4.50309 155.101 3.66747 154.544 3.48178C153.615 3.29608 152.455 4.41024 151.062 6.82427C149.762 9.2383 148.323 12.5808 146.745 16.8518C145.259 21.1227 143.681 26.1829 142.01 32.0323C140.431 37.8817 138.899 44.1489 137.414 50.8339C136.299 56.1261 135.278 61.1863 134.35 66.0144C133.514 70.8424 132.864 75.2991 132.4 79.3844C131.936 83.3768 131.611 86.9514 131.425 90.1082C131.332 93.1722 131.425 95.6326 131.703 97.4896H119.587C120.608 95.8183 121.676 93.5436 122.79 90.6653C123.997 87.787 125.204 84.4445 126.411 80.6378C127.711 76.7382 128.965 72.5137 130.172 67.9642C131.379 63.4146 132.539 58.633 133.653 53.6193C135.139 46.9343 136.346 40.5742 137.274 34.5392C138.296 28.5041 138.992 23.2118 139.363 18.6623C139.735 14.1128 139.781 10.4917 139.503 7.79916C139.317 5.01375 138.76 3.52819 137.831 3.3425Z" fill="white"/>
<path d="M27.8547 0.000661042C25.7192 3.436 23.6302 9.05326 21.5875 16.8524C19.4521 24.6516 17.2701 33.6113 15.0418 43.7317C13.5562 50.4167 12.3492 56.7303 11.4208 62.6725C10.3994 68.7076 9.70309 73.9999 9.3317 78.5494C8.86746 83.1918 8.72819 86.9056 8.91388 89.6911C9.09958 92.4765 9.65667 93.962 10.5851 94.1477C11.5136 94.3334 12.6742 93.2193 14.0669 90.8052C15.4596 88.3912 16.9452 85.0023 18.5236 80.6385C20.102 76.3675 21.7268 71.3073 23.3981 65.4579C24.9765 59.6086 26.5084 53.3414 27.994 46.6564C29.1082 41.3641 30.0831 36.2575 30.9187 31.3366C31.7543 26.5085 32.4507 22.0519 33.0077 17.9666C33.472 13.9742 33.7505 10.3995 33.8434 7.24273C33.9362 4.17878 33.8434 1.76475 33.5648 0.000661541L45.9599 0.000662625C44.9386 1.67191 43.8709 3.94667 42.7567 6.82493C41.5497 9.70319 40.3427 12.9993 39.1357 16.7132C37.9286 20.5199 36.7216 24.6516 35.5146 29.1083C34.3076 33.6578 33.147 38.4394 32.0328 43.4531C30.5473 50.231 29.3403 56.6375 28.4118 62.6725C27.4833 68.7076 26.8334 73.9999 26.462 78.5494C26.0906 83.1918 26.0442 86.9056 26.3227 89.6911C26.5084 92.4765 27.0655 93.962 27.994 94.1477C28.9225 94.3334 30.0366 93.2193 31.3365 90.8052C32.6363 88.3912 34.0755 85.0487 35.6539 80.7777C37.1394 76.5068 38.7178 71.493 40.3891 65.7365C41.9675 59.98 43.4995 53.852 44.985 47.3527C47.3991 36.3968 49.256 26.9264 50.5559 18.9415C51.9486 11.0495 52.5057 4.73587 52.2271 0.000663173L58.9121 0.000663757L37.1859 97.4902L23.6766 97.4902C23.6766 94.3334 23.5373 91.8265 23.2588 89.9696C22.8874 88.1127 22.2839 87.0913 21.4483 86.9056C20.6126 86.72 19.5913 87.5556 18.3843 89.4125C17.0844 91.3623 15.7846 94.0549 14.4847 97.4902L0.000556946 97.4902L21.1697 0.000660458L27.8547 0.000661042Z" fill="white"/>
</svg>
