<svg width="486" height="211" viewBox="0 0 486 211" fill="none" xmlns="http://www.w3.org/2000/svg">
<path d="M474.019 67.9879C475.497 76.9899 470.62 86.7068 460.272 96.6041C449.939 106.488 434.242 116.458 414.335 125.943C374.526 144.911 317.987 161.888 254.155 172.366C190.324 182.844 131.324 184.833 87.5408 179.587C65.6457 176.964 47.5852 172.535 34.6344 166.474C21.6659 160.404 13.9387 152.756 12.461 143.754C10.9833 134.752 15.86 125.035 26.2074 115.137C36.5408 105.254 52.2376 95.2835 72.1451 85.7983C111.954 66.831 168.493 49.8532 232.325 39.3752C296.156 28.8971 355.156 26.9088 398.939 32.1543C420.834 34.7775 438.895 39.2063 451.845 45.268C464.814 51.3379 472.541 58.9858 474.019 67.9879Z" stroke="black"/>
<mask id="mask0_207:580" style="mask-type:alpha" maskUnits="userSpaceOnUse" x="11" y="28" width="464" height="155">
<path d="M474.019 67.9879C475.497 76.9899 470.62 86.7068 460.272 96.6041C449.939 106.488 434.242 116.458 414.335 125.943C374.526 144.911 317.987 161.888 254.155 172.366C190.324 182.844 131.324 184.833 87.5408 179.587C65.6457 176.964 47.5852 172.535 34.6344 166.474C21.6659 160.404 13.9387 152.756 12.461 143.754C10.9833 134.752 15.86 125.035 26.2074 115.137C36.5408 105.254 52.2376 95.2835 72.1451 85.7983C111.954 66.831 168.493 49.8532 232.325 39.3752C296.156 28.8971 355.156 26.9088 398.939 32.1543C420.834 34.7775 438.895 39.2063 451.845 45.268C464.814 51.3379 472.541 58.9858 474.019 67.9879Z" fill="#C4C4C4" stroke="black"/>
</mask>
<g mask="url(#mask0_207:580)">
<path d="M262.793 186.139H238.393V71.4587H218.873V49.4987H238.393V15.3387H262.549L262.793 186.139Z" fill="black"/>
</g>
</svg>
