<svg width="464" height="155" viewBox="0 0 464 155" fill="none" xmlns="http://www.w3.org/2000/svg">
<path fill-rule="evenodd" clip-rule="evenodd" d="M448.658 67.9504C458.965 58.0914 463.693 48.5313 462.256 39.7765C460.819 31.0217 453.283 23.475 440.364 17.4285C427.481 11.3986 409.48 6.97848 387.61 4.35842C343.886 -0.880041 284.935 1.1036 221.136 11.5762C157.338 22.0489 100.847 39.0154 61.0911 57.9574C41.207 67.4314 25.5631 77.3744 15.2839 87.2065C4.97644 97.0655 0.248141 106.626 1.68526 115.38C3.12238 124.135 10.6588 131.682 23.5772 137.728C36.4602 143.758 54.4619 148.178 76.3312 150.798C120.056 156.037 179.007 154.053 242.805 143.581C306.603 133.108 363.095 116.141 402.851 97.1995C422.735 87.7255 438.378 77.7825 448.658 67.9504ZM242.967 144.567C370.695 123.601 469.316 76.6115 463.243 39.6145C457.17 2.61752 348.703 -10.3775 220.974 10.5894C93.2462 31.5563 -5.37468 78.5454 0.698468 115.542C6.77162 152.539 115.239 165.534 242.967 144.567Z" fill="black"/>
<path fill-rule="evenodd" clip-rule="evenodd" d="M251.503 143.12C248.673 143.615 245.827 144.098 242.967 144.567C237.651 145.44 232.368 146.254 227.124 147.01V43.1663H207.604V21.2063H227.124V9.60375C235.277 8.32858 243.346 7.19252 251.308 6.19295L251.503 143.12Z" fill="black"/>
</svg>
