<svg width="486" height="211" viewBox="0 0 486 211" fill="none" xmlns="http://www.w3.org/2000/svg">
<path d="M474.019 67.1832C475.497 76.1852 470.62 85.9021 460.272 95.7994C449.939 105.683 434.242 115.653 414.335 125.139C374.526 144.106 317.987 161.084 254.155 171.562C190.324 182.04 131.324 184.028 87.5408 178.783C65.6457 176.159 47.5852 171.731 34.6344 165.669C21.6659 159.599 13.9387 151.951 12.461 142.949C10.9833 133.947 15.86 124.23 26.2074 114.333C36.5408 104.449 52.2376 94.4788 72.1451 84.9936C111.954 66.0263 168.493 49.0485 232.325 38.5705C296.156 28.0925 355.156 26.1041 398.939 31.3496C420.834 33.9728 438.895 38.4016 451.845 44.4633C464.814 50.5332 472.541 58.1812 474.019 67.1832Z" stroke="black"/>
<mask id="mask0_207:581" style="mask-type:alpha" maskUnits="userSpaceOnUse" x="11" y="28" width="464" height="155">
<path d="M474.019 67.1832C475.497 76.1852 470.62 85.9021 460.272 95.7994C449.939 105.683 434.242 115.653 414.335 125.139C374.526 144.106 317.987 161.084 254.155 171.562C190.324 182.04 131.324 184.028 87.5408 178.783C65.6457 176.159 47.5852 171.731 34.6344 165.669C21.6659 159.599 13.9387 151.951 12.461 142.949C10.9833 133.947 15.86 124.23 26.2074 114.333C36.5408 104.449 52.2376 94.4788 72.1451 84.9936C111.954 66.0263 168.493 49.0485 232.325 38.5705C296.156 28.0925 355.156 26.1041 398.939 31.3496C420.834 33.9728 438.895 38.4016 451.845 44.4633C464.814 50.5332 472.541 58.1812 474.019 67.1832Z" fill="#C4C4C4" stroke="black"/>
</mask>
<g mask="url(#mask0_207:581)">
<path d="M251.095 47.474C251.095 43.4073 250.607 39.8286 249.631 36.738C248.817 33.6473 246.54 32.102 242.799 32.102C239.057 32.102 236.699 33.6473 235.723 36.738C234.909 39.666 234.503 43.2446 234.503 47.474V70.41H211.079V41.618C211.079 30.882 213.925 23.3993 219.619 19.17C225.312 14.9406 233.12 12.7446 243.043 12.582C252.965 12.4193 260.692 15.1846 266.223 20.878C271.753 26.5713 274.519 34.1353 274.519 43.57V62.358C274.519 70.166 273.624 77.242 271.835 83.586C270.045 89.93 267.768 95.786 265.003 101.154C262.237 106.359 259.228 111.321 255.975 116.038C252.721 120.755 249.712 125.473 246.947 130.19C244.181 134.907 241.823 139.787 239.871 144.83C238.081 149.71 237.105 155.159 236.943 161.178H277.203V185.334H210.591C210.591 180.454 210.591 175.574 210.591 170.694C210.591 165.651 210.753 160.69 211.079 155.81C211.079 146.213 213.112 137.51 217.179 129.702C221.408 121.731 226.044 114.086 231.087 106.766C236.129 99.2833 240.684 91.7193 244.751 84.074C248.98 76.4286 251.095 68.0513 251.095 58.942V47.474Z" fill="black"/>
</g>
</svg>
