<svg width="464" height="155" viewBox="0 0 464 155" fill="none" xmlns="http://www.w3.org/2000/svg">
<path fill-rule="evenodd" clip-rule="evenodd" d="M448.629 68.2297C458.936 58.3707 463.665 48.8106 462.228 40.0558C460.79 31.301 453.254 23.7543 440.336 17.7078C427.453 11.6779 409.451 7.25778 387.582 4.63772C343.857 -0.600744 284.906 1.38289 221.108 11.8555C157.309 22.3282 100.818 39.2947 61.0623 58.2367C41.1782 67.7106 25.5343 77.6537 15.2551 87.4858C4.94763 97.3448 0.219332 106.905 1.65645 115.66C3.09357 124.414 10.63 131.961 23.5484 138.008C36.4314 144.038 54.4331 148.458 76.3024 151.078C120.027 156.316 178.978 154.333 242.776 143.86C306.575 133.387 363.066 116.421 402.822 97.4788C422.706 88.0048 438.35 78.0617 448.629 68.2297ZM242.938 144.847C370.667 123.88 469.288 76.8908 463.214 39.8938C457.141 2.89682 348.674 -10.0982 220.946 10.8687C93.2174 31.8356 -5.40349 78.8247 0.669659 115.822C6.74281 152.819 115.21 165.814 242.938 144.847Z" fill="black"/>
<path fill-rule="evenodd" clip-rule="evenodd" d="M238.333 9.52952C239.309 12.6202 239.797 16.1988 239.797 20.2655V31.7335C239.797 40.8429 237.682 49.2202 233.453 56.8655C229.386 64.5108 224.831 72.0748 219.789 79.5575C214.746 86.8775 210.11 94.5229 205.881 102.494C201.814 110.302 199.781 119.004 199.781 128.602C199.455 133.482 199.293 138.443 199.293 143.486V150.799C213.494 149.264 228.086 147.285 242.938 144.847C250.707 143.571 258.368 142.2 265.905 140.74V133.97H225.645C225.807 127.951 226.783 122.502 228.573 117.622C230.525 112.579 232.883 107.699 235.649 102.982C238.414 98.2642 241.423 93.5468 244.677 88.8295C247.93 84.1122 250.939 79.1508 253.705 73.9455C256.47 68.5775 258.747 62.7215 260.537 56.3775C262.326 50.0335 263.221 42.9575 263.221 35.1495V16.3615C263.221 12.3075 262.71 8.59893 261.689 5.23572C253.861 6.11208 245.918 7.12255 237.881 8.26972C238.063 8.65643 238.214 9.07636 238.333 9.52952ZM224.214 10.3388C223.541 13.1093 223.205 16.4182 223.205 20.2655V43.2015H199.781V14.6283C206.736 13.2978 213.795 12.0425 220.946 10.8687C222.037 10.6896 223.126 10.5129 224.214 10.3388Z" fill="black"/>
</svg>
