<svg width="486" height="211" viewBox="0 0 486 211" fill="none" xmlns="http://www.w3.org/2000/svg">
<path d="M474.019 67.1832C475.497 76.1852 470.62 85.9021 460.272 95.7994C449.939 105.683 434.242 115.653 414.335 125.139C374.526 144.106 317.987 161.084 254.155 171.562C190.324 182.04 131.324 184.028 87.5408 178.783C65.6457 176.159 47.5852 171.731 34.6344 165.669C21.6659 159.599 13.9387 151.951 12.461 142.949C10.9833 133.947 15.86 124.23 26.2074 114.333C36.5408 104.449 52.2376 94.4788 72.1451 84.9936C111.954 66.0263 168.493 49.0485 232.325 38.5705C296.156 28.0925 355.156 26.1041 398.939 31.3496C420.834 33.9728 438.895 38.4016 451.845 44.4633C464.814 50.5332 472.541 58.1812 474.019 67.1832Z" stroke="black"/>
<mask id="mask0_207:582" style="mask-type:alpha" maskUnits="userSpaceOnUse" x="11" y="28" width="464" height="155">
<path d="M474.019 67.1832C475.497 76.1852 470.62 85.9021 460.272 95.7994C449.939 105.683 434.242 115.653 414.335 125.139C374.526 144.106 317.987 161.084 254.155 171.562C190.324 182.04 131.324 184.028 87.5408 178.783C65.6457 176.159 47.5852 171.731 34.6344 165.669C21.6659 159.599 13.9387 151.951 12.461 142.949C10.9833 133.947 15.86 124.23 26.2074 114.333C36.5408 104.449 52.2376 94.4788 72.1451 84.9936C111.954 66.0263 168.493 49.0485 232.325 38.5705C296.156 28.0925 355.156 26.1041 398.939 31.3496C420.834 33.9728 438.895 38.4016 451.845 44.4633C464.814 50.5332 472.541 58.1812 474.019 67.1832Z" fill="#C4C4C4" stroke="black"/>
</mask>
<g mask="url(#mask0_207:582)">
<path d="M252.004 87.1001C260.625 87.4254 266.725 89.7028 270.304 93.9321C273.882 97.9988 275.672 103.448 275.672 110.28V163.716C275.672 171.036 274.696 176.892 272.744 181.284C270.954 185.676 268.514 189.092 265.424 191.532C262.496 193.972 259.08 195.599 255.176 196.412C251.272 197.225 247.205 197.632 242.976 197.632C238.096 197.632 233.704 197.225 229.8 196.412C226.058 195.599 222.805 194.053 220.04 191.776C217.437 189.336 215.404 185.92 213.94 181.528C212.638 176.973 211.906 171.036 211.744 163.716L211.256 137.608H234.436L234.68 158.104C234.68 160.707 234.68 163.147 234.68 165.424C234.842 167.701 235.086 169.653 235.412 171.28C235.9 172.744 236.632 173.964 237.608 174.94C238.746 175.753 240.292 176.16 242.244 176.16C245.985 176.16 248.1 174.533 248.588 171.28C249.238 167.864 249.564 163.472 249.564 158.104V118.332C249.564 109.548 248.262 103.448 245.66 100.032C243.22 96.4534 238.665 95.2334 231.996 96.3721L231.508 80.7561L253.712 45.3761H211.5L211.256 25.6121H273.232V55.1361L252.004 85.6361V87.1001Z" fill="black"/>
</g>
</svg>
