<svg width="464" height="155" viewBox="0 0 464 155" fill="none" xmlns="http://www.w3.org/2000/svg">
<path fill-rule="evenodd" clip-rule="evenodd" d="M448.766 67.5227C459.074 57.6636 463.802 48.1036 462.365 39.3488C460.928 30.594 453.391 23.0472 440.473 17.0007C427.59 10.9708 409.588 6.55075 387.719 3.93068C343.994 -1.30778 285.043 0.675863 221.245 11.1485C157.447 21.6211 100.955 38.5877 61.1997 57.5296C41.3157 67.0036 25.6718 76.9467 15.3926 86.7787C5.08508 96.6378 0.356784 106.198 1.7939 114.953C3.23102 123.707 10.7674 131.254 23.6859 137.301C36.5689 143.331 54.5705 147.751 76.4398 150.371C120.165 155.609 179.116 153.626 242.914 143.153C306.712 132.68 363.204 115.714 402.959 96.7718C422.843 87.2978 438.487 77.3547 448.766 67.5227ZM243.076 144.14C370.804 123.173 469.425 76.1838 463.352 39.1868C457.279 2.18979 348.811 -10.8052 221.083 10.1617C93.3549 31.1286 -5.26604 78.1176 0.80711 115.115C6.88026 152.112 115.348 165.107 243.076 144.14Z" fill="black"/>
<path fill-rule="evenodd" clip-rule="evenodd" d="M259.143 66.0176C255.564 61.7883 249.464 59.5109 240.843 59.1856V57.7216L262.071 27.2216V4.50137C248.709 5.99292 235.011 7.87547 221.083 10.1617C214.061 11.3143 207.128 12.5455 200.294 13.8495L200.339 17.4616H242.551L220.347 52.8416L220.835 68.4576C227.504 67.3189 232.059 68.5389 234.499 72.1176C237.102 75.5336 238.403 81.6336 238.403 90.4176V130.19C238.403 135.558 238.078 139.95 237.427 143.366C237.329 144.017 237.166 144.603 236.938 145.123C238.979 144.804 241.025 144.476 243.076 144.14C250.272 142.958 257.376 141.695 264.373 140.355C264.465 138.906 264.511 137.388 264.511 135.802V82.3656C264.511 75.5336 262.722 70.0843 259.143 66.0176ZM201.887 149.822C209.869 148.933 217.97 147.905 226.17 146.734C225.331 145.81 224.691 144.687 224.251 143.366C223.926 141.739 223.682 139.787 223.519 137.51V130.19L223.275 109.694H200.095L200.583 135.802C200.704 141.238 201.138 145.911 201.887 149.822Z" fill="black"/>
</svg>
