<svg width="486" height="211" viewBox="0 0 486 211" fill="none" xmlns="http://www.w3.org/2000/svg">
<path d="M474.019 67.2457C475.497 76.2477 470.62 85.9646 460.272 95.8619C449.939 105.746 434.242 115.716 414.335 125.201C374.526 144.168 317.987 161.146 254.155 171.624C190.324 182.102 131.324 184.091 87.5408 178.845C65.6457 176.222 47.5852 171.793 34.6344 165.731C21.6659 159.661 13.9387 152.014 12.461 143.012C10.9833 134.01 15.86 124.293 26.2074 114.395C36.5408 104.512 52.2376 94.5413 72.1451 85.0561C111.954 66.0888 168.493 49.111 232.325 38.633C296.156 28.155 355.156 26.1666 398.939 31.4121C420.834 34.0353 438.895 38.4641 451.845 44.5258C464.814 50.5957 472.541 58.2437 474.019 67.2457Z" stroke="black"/>
<mask id="mask0_207:583" style="mask-type:alpha" maskUnits="userSpaceOnUse" x="11" y="28" width="464" height="155">
<path d="M474.019 67.2457C475.497 76.2477 470.62 85.9646 460.272 95.8619C449.939 105.746 434.242 115.716 414.335 125.201C374.526 144.168 317.987 161.146 254.155 171.624C190.324 182.102 131.324 184.091 87.5408 178.845C65.6457 176.222 47.5852 171.793 34.6344 165.731C21.6659 159.661 13.9387 152.014 12.461 143.012C10.9833 134.01 15.86 124.293 26.2074 114.395C36.5408 104.512 52.2376 94.5413 72.1451 85.0561C111.954 66.0888 168.493 49.111 232.325 38.633C296.156 28.155 355.156 26.1666 398.939 31.4121C420.834 34.0353 438.895 38.4641 451.845 44.5258C464.814 50.5957 472.541 58.2437 474.019 67.2457Z" fill="#C4C4C4" stroke="black"/>
</mask>
<g mask="url(#mask0_207:583)">
<path d="M271.37 119.028H279.422V143.916H271.37V185.396H246.97V143.916H210.614L208.174 122.444L227.694 14.5965H271.126L271.37 119.028ZM246.97 119.028V36.3125H245.262L232.574 119.028H246.97Z" fill="black"/>
</g>
</svg>
