<svg width="464" height="155" viewBox="0 0 464 155" fill="none" xmlns="http://www.w3.org/2000/svg">
<path fill-rule="evenodd" clip-rule="evenodd" d="M448.667 67.7971C458.974 57.938 463.703 48.378 462.265 39.6232C460.828 30.8684 453.292 23.3216 440.373 17.2752C427.49 11.2453 409.489 6.82516 387.62 4.2051C343.895 -1.03336 284.944 0.950277 221.145 11.4229C157.347 21.8956 100.856 38.8621 61.1001 57.8041C41.2161 67.278 25.5722 77.2211 15.2929 87.0532C4.98547 96.9122 0.257174 106.472 1.69429 115.227C3.13141 123.982 10.6678 131.529 23.5862 137.575C36.4692 143.605 54.4709 148.025 76.3402 150.645C120.065 155.884 179.016 153.9 242.814 143.427C306.613 132.955 363.104 115.988 402.86 97.0462C422.744 87.5722 438.388 77.6291 448.667 67.7971ZM242.976 144.414C370.704 123.447 469.325 76.4582 463.252 39.4612C457.179 2.4642 348.712 -10.5308 220.983 10.4361C93.2552 31.403 -5.36565 78.392 0.707501 115.389C6.78065 152.386 115.248 165.381 242.976 144.414Z" fill="black"/>
<path fill-rule="evenodd" clip-rule="evenodd" d="M268.162 91.3249H260.11L259.908 5.00886C247.201 6.4619 234.195 8.26739 220.983 10.4361C217.936 10.9363 214.906 11.4512 211.893 11.9804L196.914 94.7409L199.354 116.213H235.71V145.574C238.125 145.199 240.547 144.813 242.976 144.414C248.749 143.466 254.463 142.466 260.11 141.415V116.213H268.162V91.3249ZM235.71 8.6089V91.3249H221.314L234.002 8.6089H235.71Z" fill="black"/>
</svg>
