<svg width="465" height="155" viewBox="0 0 465 155" fill="none" xmlns="http://www.w3.org/2000/svg">
<path fill-rule="evenodd" clip-rule="evenodd" d="M449.188 68.2326C459.496 58.3736 464.224 48.8135 462.787 40.0587C461.35 31.3039 453.813 23.7572 440.895 17.7107C428.012 11.6808 410.01 7.26071 388.141 4.64065C344.416 -0.597814 285.465 1.38582 221.667 11.8585C157.869 22.3311 101.377 39.2977 61.6216 58.2396C41.7375 67.7136 26.0937 77.6567 15.8144 87.4887C5.50696 97.3478 0.778659 106.908 2.21578 115.663C3.6529 124.417 11.1893 131.964 24.1077 138.011C36.9907 144.041 54.9924 148.461 76.8617 151.081C120.586 156.319 179.538 154.336 243.336 143.863C307.134 133.39 363.626 116.424 403.381 97.4817C423.265 88.0078 438.909 78.0647 449.188 68.2326ZM243.498 144.85C371.226 123.883 469.847 76.8938 463.774 39.8968C457.701 2.89975 349.233 -10.0952 221.505 10.8717C93.7767 31.8386 -4.84416 78.8276 1.22899 115.825C7.30214 152.822 115.77 165.817 243.498 144.85Z" fill="black"/>
<path fill-rule="evenodd" clip-rule="evenodd" d="M251.098 41.6164C248.983 40.9658 246.706 40.6404 244.266 40.6404C239.386 40.6404 235.644 41.6164 233.042 43.5685C230.602 45.3578 228.731 47.3911 227.43 49.6684C226.291 51.7831 225.559 53.8164 225.234 55.7684C225.071 57.5578 224.827 58.5338 224.502 58.6964L222.794 58.9404V16.9724H263.054V5.14891C249.515 6.65025 235.627 8.55342 221.505 10.8717C213.686 12.1551 205.977 13.5359 198.394 15.0061V77.2404H223.038C223.038 73.4991 223.77 70.0831 225.234 66.9924C226.698 63.7391 228.731 61.7871 231.334 61.1364C233.286 60.6484 234.75 60.7298 235.726 61.3804C236.864 61.8684 237.678 62.6004 238.166 63.5764C238.816 64.3898 239.142 65.3658 239.142 66.5044C239.304 67.4804 239.386 68.2938 239.386 68.9445V132.384C239.386 134.499 239.142 136.37 238.654 137.996C238.166 139.46 237.352 140.68 236.214 141.656C235.238 142.47 233.611 142.876 231.334 142.876C227.104 142.876 224.583 141.25 223.77 137.996C223.119 134.58 222.794 130.27 222.794 125.064V116.036H198.394V130.432C198.394 137.752 199.126 143.69 200.59 148.244C200.895 149.069 201.223 149.858 201.574 150.614C215.232 149.106 229.245 147.189 243.498 144.85C249.787 143.817 256.005 142.722 262.144 141.568C262.751 138.243 263.054 134.45 263.054 130.188V61.1364C263.054 56.9071 262.484 53.4911 261.346 50.8885C260.37 48.2858 258.987 46.2524 257.198 44.7884C255.408 43.1618 253.375 42.1044 251.098 41.6164Z" fill="black"/>
</svg>
