<svg width="486" height="211" viewBox="0 0 486 211" fill="none" xmlns="http://www.w3.org/2000/svg">
<path d="M474.019 67.4664C475.497 76.4684 470.62 86.1853 460.272 96.0826C449.939 105.966 434.242 115.937 414.335 125.422C374.526 144.389 317.987 161.367 254.155 171.845C190.324 182.323 131.324 184.311 87.5408 179.066C65.6457 176.443 47.5852 172.014 34.6344 165.952C21.6659 159.882 13.9387 152.234 12.461 143.232C10.9833 134.23 15.86 124.513 26.2074 114.616C36.5408 104.732 52.2376 94.762 72.1451 85.2769C111.954 66.3095 168.493 49.3317 232.325 38.8537C296.156 28.3757 355.156 26.3873 398.939 31.6328C420.834 34.256 438.895 38.6848 451.845 44.7465C464.814 50.8164 472.541 58.4644 474.019 67.4664Z" stroke="black"/>
<mask id="mask0_207:2980" style="mask-type:alpha" maskUnits="userSpaceOnUse" x="11" y="28" width="464" height="155">
<path d="M474.019 67.4664C475.497 76.4684 470.62 86.1853 460.272 96.0826C449.939 105.966 434.242 115.937 414.335 125.422C374.526 144.389 317.987 161.367 254.155 171.845C190.324 182.323 131.324 184.311 87.5408 179.066C65.6457 176.443 47.5852 172.014 34.6344 165.952C21.6659 159.882 13.9387 152.234 12.461 143.232C10.9833 134.23 15.86 124.513 26.2074 114.616C36.5408 104.732 52.2376 94.762 72.1451 85.2769C111.954 66.3095 168.493 49.3317 232.325 38.8537C296.156 28.3757 355.156 26.3873 398.939 31.6328C420.834 34.256 438.895 38.6848 451.845 44.7465C464.814 50.8164 472.541 58.4644 474.019 67.4664Z" fill="#C4C4C4" stroke="black"/>
</mask>
<g mask="url(#mask0_207:2980)">
<path d="M255.004 68.1292C257.444 68.1292 259.722 68.4545 261.836 69.1052C264.114 69.5932 266.147 70.6505 267.936 72.2772C269.726 73.7412 271.108 75.7745 272.084 78.3772C273.223 80.9798 273.792 84.3958 273.792 88.6252V157.677C273.792 164.997 272.898 170.935 271.108 175.489C269.482 180.044 267.204 183.541 264.276 185.981C261.348 188.421 257.932 190.048 254.028 190.861C250.287 191.675 246.302 192.081 242.072 192.081C237.192 192.081 232.719 191.675 228.652 190.861C224.586 190.048 221.088 188.421 218.16 185.981C215.232 183.541 212.955 180.125 211.328 175.733C209.864 171.179 209.132 165.241 209.132 157.921V143.525H233.532V152.553C233.532 157.759 233.858 162.069 234.508 165.485C235.322 168.739 237.843 170.365 242.072 170.365C244.35 170.365 245.976 169.959 246.952 169.145C248.091 168.169 248.904 166.949 249.392 165.485C249.88 163.859 250.124 161.988 250.124 159.873C250.124 157.596 250.124 155.156 250.124 152.553V96.4332C250.124 95.7825 250.043 94.9692 249.88 93.9932C249.88 92.8545 249.555 91.8785 248.904 91.0652C248.416 90.0892 247.603 89.3572 246.464 88.8692C245.488 88.2185 244.024 88.1372 242.072 88.6252C239.47 89.2758 237.436 91.2278 235.972 94.4812C234.508 97.5718 233.776 100.988 233.776 104.729H209.132V19.5732H273.792V44.4612H233.532V86.4292L235.24 86.1852C235.566 86.0225 235.81 85.0465 235.972 83.2572C236.298 81.3052 237.03 79.2718 238.168 77.1572C239.47 74.8798 241.34 72.8465 243.78 71.0572C246.383 69.1052 250.124 68.1292 255.004 68.1292Z" fill="black"/>
</g>
</svg>
