<svg width="563" height="703" viewBox="0 0 563 703" fill="none" xmlns="http://www.w3.org/2000/svg">
<circle cx="307" cy="307" r="231.5" fill="#0023F4" stroke="black"/>
<mask id="path-2-inside-1_407:1149" fill="white">
<path d="M307 75C247.752 75 190.75 97.6674 147.681 138.354C104.613 179.041 78.7421 234.663 75.375 293.815C72.0078 352.967 91.399 411.166 129.572 456.477C167.745 501.788 221.808 530.778 280.673 537.501C339.537 544.225 398.744 528.172 446.152 492.636C493.559 457.1 525.575 404.773 535.633 346.385C545.691 287.997 533.029 227.974 500.244 178.623C467.46 129.273 417.037 94.3354 359.315 80.9753L307 307L307 75Z"/>
</mask>
<path d="M307 75C247.752 75 190.75 97.6674 147.681 138.354C104.613 179.041 78.7421 234.663 75.375 293.815C72.0078 352.967 91.399 411.166 129.572 456.477C167.745 501.788 221.808 530.778 280.673 537.501C339.537 544.225 398.744 528.172 446.152 492.636C493.559 457.1 525.575 404.773 535.633 346.385C545.691 287.997 533.029 227.974 500.244 178.623C467.46 129.273 417.037 94.3354 359.315 80.9753L307 307L307 75Z" fill="white" stroke="black" stroke-width="2" mask="url(#path-2-inside-1_407:1149)"/>
<mask id="path-3-inside-2_407:1149" fill="white">
<path d="M213.013 519.108C242.55 532.197 274.496 538.971 306.804 538.999C339.111 539.026 371.068 532.305 400.628 519.267C430.188 506.229 456.699 487.16 478.462 463.283C500.226 439.406 516.763 411.246 527.013 380.608C537.264 349.97 541.002 317.528 537.989 285.362C534.976 253.195 525.278 222.012 509.515 193.81C493.753 165.609 472.275 141.01 446.455 121.59C420.636 102.17 391.045 88.3569 359.578 81.0352L307 306.999L213.013 519.108Z"/>
</mask>
<path d="M213.013 519.108C242.55 532.197 274.496 538.971 306.804 538.999C339.111 539.026 371.068 532.305 400.628 519.267C430.188 506.229 456.699 487.16 478.462 463.283C500.226 439.406 516.763 411.246 527.013 380.608C537.264 349.97 541.002 317.528 537.989 285.362C534.976 253.195 525.278 222.012 509.515 193.81C493.753 165.609 472.275 141.01 446.455 121.59C420.636 102.17 391.045 88.3569 359.578 81.0352L307 306.999L213.013 519.108Z" fill="#F19FF9" stroke="black" stroke-width="2" mask="url(#path-3-inside-2_407:1149)"/>
<path d="M146.02 605.872C147.292 605.92 148.192 606.256 148.72 606.88C149.248 607.48 149.512 608.284 149.512 609.292V617.176C149.512 618.256 149.368 619.12 149.08 619.768C148.816 620.416 148.456 620.92 148 621.28C147.568 621.64 147.064 621.88 146.488 622C145.912 622.12 145.312 622.18 144.688 622.18C143.968 622.18 143.32 622.12 142.744 622C142.192 621.88 141.712 621.652 141.304 621.316C140.92 620.956 140.62 620.452 140.404 619.804C140.212 619.132 140.104 618.256 140.08 617.176L140.008 613.324H143.428L143.464 616.348C143.464 616.732 143.464 617.092 143.464 617.428C143.488 617.764 143.524 618.052 143.572 618.292C143.644 618.508 143.752 618.688 143.896 618.832C144.064 618.952 144.292 619.012 144.58 619.012C145.132 619.012 145.444 618.772 145.516 618.292C145.612 617.788 145.66 617.14 145.66 616.348V610.48C145.66 609.184 145.468 608.284 145.084 607.78C144.724 607.252 144.052 607.072 143.068 607.24L142.996 604.936L146.272 599.716H140.044L140.008 596.8H149.152V601.156L146.02 605.656V605.872ZM156.533 604H161.717C162.005 604 162.329 604.036 162.689 604.108C163.049 604.18 163.385 604.324 163.697 604.54C164.009 604.756 164.273 605.068 164.489 605.476C164.705 605.86 164.813 606.364 164.813 606.988V609.76C164.813 610.192 164.801 610.588 164.777 610.948C164.777 611.284 164.705 611.584 164.561 611.848C164.441 612.112 164.225 612.328 163.913 612.496C163.625 612.64 163.181 612.724 162.581 612.748V613C163.661 613.048 164.357 613.3 164.669 613.756C165.005 614.188 165.173 614.908 165.173 615.916V618.508C165.173 619.588 164.825 620.44 164.129 621.064C163.433 621.688 162.365 622 160.925 622H156.533V604ZM159.845 611.272C160.709 611.56 161.273 611.548 161.537 611.236C161.801 610.924 161.933 610.36 161.933 609.544V607.996C161.933 607.828 161.921 607.648 161.897 607.456C161.873 607.24 161.789 607.06 161.645 606.916C161.525 606.748 161.321 606.652 161.033 606.628C160.745 606.58 160.349 606.64 159.845 606.808V611.272ZM159.773 619.012C160.637 619.3 161.225 619.288 161.537 618.976C161.873 618.664 162.041 618.1 162.041 617.284V615.556C162.041 615.388 162.017 615.208 161.969 615.016C161.921 614.8 161.813 614.62 161.645 614.476C161.501 614.308 161.273 614.212 160.961 614.188C160.673 614.14 160.277 614.2 159.773 614.368V619.012ZM172.87 607.276L171.826 607.24L171.718 610.408C171.598 613.024 171.478 615.124 171.358 616.708C171.238 618.268 171.01 619.456 170.674 620.272C170.362 621.088 169.894 621.604 169.27 621.82C168.646 622.036 167.794 622.108 166.714 622.036L166.246 622V618.724C166.534 618.724 166.774 618.736 166.966 618.76C167.182 618.784 167.362 618.748 167.506 618.652C167.674 618.532 167.806 618.328 167.902 618.04C168.022 617.728 168.13 617.272 168.226 616.672C168.322 616.072 168.406 615.292 168.478 614.332C168.574 613.348 168.658 612.124 168.73 610.66L169.054 604H176.11V622H172.87V607.276ZM183.66 619.732H183.444C183.348 620.452 183.12 621.016 182.76 621.424C182.424 621.808 181.872 622 181.104 622C180.048 622 179.316 621.688 178.908 621.064C178.5 620.416 178.296 619.564 178.296 618.508L178.26 611.992V611.416L178.296 607.492C178.296 606.436 178.5 605.596 178.908 604.972C179.316 604.324 180.048 604 181.104 604C181.872 604 182.424 604.204 182.76 604.612C183.12 604.996 183.348 605.548 183.444 606.268H183.66V604H186.9V622H183.66V619.732ZM183.66 606.988C182.82 606.7 182.232 606.712 181.896 607.024C181.56 607.336 181.392 607.9 181.392 608.716V617.284C181.392 618.1 181.56 618.664 181.896 618.976C182.232 619.288 182.82 619.3 183.66 619.012V606.988ZM191.645 622L192.185 624.376H188.513V618.94H189.413C189.581 618.7 189.725 618.436 189.845 618.148C189.965 617.86 190.073 617.404 190.169 616.78C190.265 616.132 190.361 615.256 190.457 614.152C190.553 613.048 190.661 611.56 190.781 609.688C190.853 608.584 190.901 607.576 190.925 606.664C190.973 605.752 191.021 604.864 191.069 604H198.377V618.94H199.313V624.376H195.641L196.145 622H191.645ZM195.497 618.94V607.348H193.841C193.817 607.708 193.793 608.08 193.769 608.464C193.769 608.848 193.757 609.256 193.733 609.688C193.685 610.792 193.637 611.848 193.589 612.856C193.541 613.864 193.469 614.788 193.373 615.628C193.277 616.444 193.157 617.14 193.013 617.716C192.893 618.292 192.737 618.7 192.545 618.94H195.497ZM205.291 619.156C205.795 619.132 206.107 618.964 206.227 618.652C206.371 618.316 206.443 617.764 206.443 616.996H209.575V617.536C209.575 618.496 209.503 619.276 209.359 619.876C209.215 620.452 208.975 620.908 208.639 621.244C208.327 621.556 207.895 621.76 207.343 621.856C206.815 621.952 206.167 622 205.399 622C204.679 622 204.031 621.952 203.455 621.856C202.903 621.76 202.435 621.544 202.051 621.208C201.691 620.872 201.415 620.392 201.223 619.768C201.031 619.12 200.935 618.256 200.935 617.176V607.996C200.935 606.412 201.307 605.332 202.051 604.756C202.819 604.156 203.899 603.856 205.291 603.856C206.659 603.856 207.715 604.156 208.459 604.756C209.203 605.332 209.575 606.412 209.575 607.996V613.648H204.031V617.104C204.031 617.872 204.115 618.4 204.283 618.688C204.451 618.976 204.787 619.132 205.291 619.156ZM206.443 611.128V608.5C206.443 607.876 206.383 607.432 206.263 607.168C206.143 606.88 205.795 606.736 205.219 606.736C204.667 606.736 204.331 606.88 204.211 607.168C204.091 607.456 204.031 607.9 204.031 608.5V611.128H206.443ZM217.272 607.276L216.228 607.24L216.12 610.408C216 613.024 215.88 615.124 215.76 616.708C215.64 618.268 215.412 619.456 215.076 620.272C214.764 621.088 214.296 621.604 213.672 621.82C213.048 622.036 212.196 622.108 211.116 622.036L210.648 622V618.724C210.936 618.724 211.176 618.736 211.368 618.76C211.584 618.784 211.764 618.748 211.908 618.652C212.076 618.532 212.208 618.328 212.304 618.04C212.424 617.728 212.532 617.272 212.628 616.672C212.724 616.072 212.808 615.292 212.88 614.332C212.976 613.348 213.06 612.124 213.132 610.66L213.456 604H220.512V622H217.272V607.276ZM225.902 611.128C226.118 611.008 226.346 610.9 226.586 610.804C226.802 610.732 227.054 610.672 227.342 610.624C227.63 610.552 227.93 610.516 228.242 610.516C228.53 610.516 228.854 610.552 229.214 610.624C229.574 610.696 229.91 610.84 230.222 611.056C230.534 611.272 230.798 611.584 231.014 611.992C231.23 612.376 231.338 612.88 231.338 613.504L231.302 618.508C231.302 619.588 230.954 620.44 230.258 621.064C229.562 621.688 228.494 622 227.054 622H222.662V604H225.902V611.128ZM225.902 619.012C226.766 619.3 227.354 619.288 227.666 618.976C228.002 618.664 228.17 618.1 228.17 617.284V614.692C228.17 614.524 228.146 614.344 228.098 614.152C228.05 613.936 227.942 613.756 227.774 613.612C227.63 613.444 227.402 613.348 227.09 613.324C226.802 613.276 226.406 613.336 225.902 613.504V619.012ZM236.379 622H233.139V604H236.379V622ZM241.815 622H238.575V604H241.815V622ZM233.139 618.724L242.247 618.832L242.355 622H233.139V618.724ZM240.267 618.832H242.751L243.579 624.376H240.267V618.832ZM249.824 619.732H249.608C249.512 620.452 249.284 621.016 248.924 621.424C248.588 621.808 248.036 622 247.268 622C246.212 622 245.48 621.688 245.072 621.064C244.664 620.416 244.46 619.564 244.46 618.508L244.424 611.992V611.416L244.46 607.492C244.46 606.436 244.664 605.596 245.072 604.972C245.48 604.324 246.212 604 247.268 604C248.036 604 248.588 604.204 248.924 604.612C249.284 604.996 249.512 605.548 249.608 606.268H249.824V604H253.064V622H249.824V619.732ZM249.824 606.988C248.984 606.7 248.396 606.712 248.06 607.024C247.724 607.336 247.556 607.9 247.556 608.716V617.284C247.556 618.1 247.724 618.664 248.06 618.976C248.396 619.288 248.984 619.3 249.824 619.012V606.988ZM265.612 614.764H268.708V617.536C268.708 618.496 268.636 619.276 268.492 619.876C268.348 620.476 268.108 620.944 267.772 621.28C267.46 621.592 267.028 621.808 266.476 621.928C265.948 622.024 265.3 622.072 264.532 622.072C263.812 622.072 263.176 622.024 262.624 621.928C262.072 621.808 261.604 621.58 261.22 621.244C260.836 620.884 260.548 620.392 260.356 619.768C260.164 619.12 260.068 618.268 260.068 617.212V607.924C260.068 606.34 260.428 605.26 261.148 604.684C261.892 604.108 262.984 603.844 264.424 603.892C265.144 603.892 265.768 603.964 266.296 604.108C266.824 604.228 267.268 604.444 267.628 604.756C267.988 605.044 268.252 605.452 268.42 605.98C268.612 606.484 268.708 607.132 268.708 607.924V610.768H265.612V608.428C265.612 607.804 265.54 607.372 265.396 607.132C265.276 606.892 264.94 606.772 264.388 606.772C263.836 606.772 263.488 606.904 263.344 607.168C263.224 607.408 263.164 607.828 263.164 608.428V617.068C263.164 617.836 263.248 618.388 263.416 618.724C263.584 619.06 263.92 619.228 264.424 619.228C264.952 619.228 265.276 619.06 265.396 618.724C265.54 618.388 265.612 617.836 265.612 617.068V614.764ZM275.041 619.156C275.545 619.132 275.857 618.964 275.977 618.652C276.121 618.316 276.193 617.764 276.193 616.996H279.325V617.536C279.325 618.496 279.253 619.276 279.109 619.876C278.965 620.452 278.725 620.908 278.389 621.244C278.077 621.556 277.645 621.76 277.093 621.856C276.565 621.952 275.917 622 275.149 622C274.429 622 273.781 621.952 273.205 621.856C272.653 621.76 272.185 621.544 271.801 621.208C271.441 620.872 271.165 620.392 270.973 619.768C270.781 619.12 270.685 618.256 270.685 617.176V607.996C270.685 606.412 271.057 605.332 271.801 604.756C272.569 604.156 273.649 603.856 275.041 603.856C276.409 603.856 277.465 604.156 278.209 604.756C278.953 605.332 279.325 606.412 279.325 607.996V613.648H273.781V617.104C273.781 617.872 273.865 618.4 274.033 618.688C274.201 618.976 274.537 619.132 275.041 619.156ZM276.193 611.128V608.5C276.193 607.876 276.133 607.432 276.013 607.168C275.893 606.88 275.545 606.736 274.969 606.736C274.417 606.736 274.081 606.88 273.961 607.168C273.841 607.456 273.781 607.9 273.781 608.5V611.128H276.193ZM284.718 613.108H285.726L286.518 603.964H290.118L287.886 614.116L290.118 622H286.518L285.366 614.944H284.718V613.108ZM281.478 604H284.718V622H281.478V604ZM299.822 617.536C299.822 618.496 299.75 619.276 299.606 619.876C299.462 620.476 299.222 620.944 298.886 621.28C298.574 621.592 298.142 621.808 297.59 621.928C297.062 622.024 296.414 622.072 295.646 622.072C294.926 622.072 294.278 622.024 293.702 621.928C293.15 621.808 292.682 621.58 292.298 621.244C291.914 620.884 291.626 620.392 291.434 619.768C291.242 619.12 291.146 618.256 291.146 617.176V607.96C291.146 607.168 291.254 606.508 291.47 605.98C291.686 605.452 291.986 605.044 292.37 604.756C292.754 604.444 293.21 604.228 293.738 604.108C294.29 603.964 294.878 603.892 295.502 603.892C296.822 603.892 297.866 604.18 298.634 604.756C299.426 605.308 299.822 606.376 299.822 607.96V611.668V617.536ZM295.466 606.772C294.914 606.772 294.578 606.904 294.458 607.168C294.338 607.432 294.278 607.864 294.278 608.464V617.068C294.278 617.836 294.362 618.388 294.53 618.724C294.698 619.036 295.034 619.204 295.538 619.228C296.042 619.204 296.354 619.036 296.474 618.724C296.618 618.388 296.69 617.836 296.69 617.068V611.668V608.464C296.69 607.84 296.618 607.408 296.474 607.168C296.354 606.904 296.018 606.772 295.466 606.772ZM307.411 604H310.651V622H307.411V604ZM301.975 604H305.215V622H301.975V604ZM309.895 615.52L303.055 615.412V612.208H309.895V615.52ZM315.395 622L315.935 624.376H312.263V618.94H313.163C313.331 618.7 313.475 618.436 313.595 618.148C313.715 617.86 313.823 617.404 313.919 616.78C314.015 616.132 314.111 615.256 314.207 614.152C314.303 613.048 314.411 611.56 314.531 609.688C314.603 608.584 314.651 607.576 314.675 606.664C314.723 605.752 314.771 604.864 314.819 604H322.127V618.94H323.063V624.376H319.391L319.895 622H315.395ZM319.247 618.94V607.348H317.591C317.567 607.708 317.543 608.08 317.519 608.464C317.519 608.848 317.507 609.256 317.483 609.688C317.435 610.792 317.387 611.848 317.339 612.856C317.291 613.864 317.219 614.788 317.123 615.628C317.027 616.444 316.907 617.14 316.763 617.716C316.643 618.292 316.487 618.7 316.295 618.94H319.247ZM333.361 617.536C333.361 618.496 333.289 619.276 333.145 619.876C333.001 620.476 332.761 620.944 332.425 621.28C332.113 621.592 331.681 621.808 331.129 621.928C330.601 622.024 329.953 622.072 329.185 622.072C328.465 622.072 327.817 622.024 327.241 621.928C326.689 621.808 326.221 621.58 325.837 621.244C325.453 620.884 325.165 620.392 324.973 619.768C324.781 619.12 324.685 618.256 324.685 617.176V607.96C324.685 607.168 324.793 606.508 325.009 605.98C325.225 605.452 325.525 605.044 325.909 604.756C326.293 604.444 326.749 604.228 327.277 604.108C327.829 603.964 328.417 603.892 329.041 603.892C330.361 603.892 331.405 604.18 332.173 604.756C332.965 605.308 333.361 606.376 333.361 607.96V611.668V617.536ZM329.005 606.772C328.453 606.772 328.117 606.904 327.997 607.168C327.877 607.432 327.817 607.864 327.817 608.464V617.068C327.817 617.836 327.901 618.388 328.069 618.724C328.237 619.036 328.573 619.204 329.077 619.228C329.581 619.204 329.893 619.036 330.013 618.724C330.157 618.388 330.229 617.836 330.229 617.068V611.668V608.464C330.229 607.84 330.157 607.408 330.013 607.168C329.893 606.904 329.557 606.772 329.005 606.772ZM335.514 604H340.698C340.986 604 341.31 604.036 341.67 604.108C342.03 604.18 342.366 604.324 342.678 604.54C342.99 604.756 343.254 605.068 343.47 605.476C343.686 605.86 343.794 606.364 343.794 606.988V609.76C343.794 610.192 343.782 610.588 343.758 610.948C343.758 611.284 343.686 611.584 343.542 611.848C343.422 612.112 343.206 612.328 342.894 612.496C342.606 612.64 342.162 612.724 341.562 612.748V613C342.642 613.048 343.338 613.3 343.65 613.756C343.986 614.188 344.154 614.908 344.154 615.916V618.508C344.154 619.588 343.806 620.44 343.11 621.064C342.414 621.688 341.346 622 339.906 622H335.514V604ZM338.826 611.272C339.69 611.56 340.254 611.548 340.518 611.236C340.782 610.924 340.914 610.36 340.914 609.544V607.996C340.914 607.828 340.902 607.648 340.878 607.456C340.854 607.24 340.77 607.06 340.626 606.916C340.506 606.748 340.302 606.652 340.014 606.628C339.726 606.58 339.33 606.64 338.826 606.808V611.272ZM338.754 619.012C339.618 619.3 340.206 619.288 340.518 618.976C340.854 618.664 341.022 618.1 341.022 617.284V615.556C341.022 615.388 340.998 615.208 340.95 615.016C340.902 614.8 340.794 614.62 340.626 614.476C340.482 614.308 340.254 614.212 339.942 614.188C339.654 614.14 339.258 614.2 338.754 614.368V619.012ZM148.684 648.208H149.872V651.88H148.684V658H145.084V651.88H139.72L139.36 648.712L142.24 632.8H148.648L148.684 648.208ZM145.084 648.208V636.004H144.832L142.96 648.208H145.084ZM160.567 648.208H161.755V651.88H160.567V658H156.967V651.88H151.603L151.243 648.712L154.123 632.8H160.531L160.567 648.208ZM156.967 648.208V636.004H156.715L154.843 648.208H156.967ZM173.465 640H176.705V658H173.465V652.924C173.249 653.044 173.021 653.14 172.781 653.212C172.565 653.308 172.313 653.392 172.025 653.464C171.761 653.512 171.461 653.536 171.125 653.536C170.837 653.536 170.513 653.5 170.153 653.428C169.793 653.356 169.457 653.212 169.145 652.996C168.833 652.78 168.569 652.48 168.353 652.096C168.137 651.688 168.029 651.172 168.029 650.548V640H171.197V649C171.197 649.168 171.221 649.36 171.269 649.576C171.317 649.768 171.413 649.948 171.557 650.116C171.725 650.26 171.953 650.356 172.241 650.404C172.553 650.428 172.961 650.356 173.465 650.188V640ZM183.213 655.156C183.717 655.132 184.029 654.964 184.149 654.652C184.293 654.316 184.365 653.764 184.365 652.996H187.497V653.536C187.497 654.496 187.425 655.276 187.281 655.876C187.137 656.452 186.897 656.908 186.561 657.244C186.249 657.556 185.817 657.76 185.265 657.856C184.737 657.952 184.089 658 183.321 658C182.601 658 181.953 657.952 181.377 657.856C180.825 657.76 180.357 657.544 179.973 657.208C179.613 656.872 179.337 656.392 179.145 655.768C178.953 655.12 178.857 654.256 178.857 653.176V643.996C178.857 642.412 179.229 641.332 179.973 640.756C180.741 640.156 181.821 639.856 183.213 639.856C184.581 639.856 185.637 640.156 186.381 640.756C187.125 641.332 187.497 642.412 187.497 643.996V649.648H181.953V653.104C181.953 653.872 182.037 654.4 182.205 654.688C182.373 654.976 182.709 655.132 183.213 655.156ZM184.365 647.128V644.5C184.365 643.876 184.305 643.432 184.185 643.168C184.065 642.88 183.717 642.736 183.141 642.736C182.589 642.736 182.253 642.88 182.133 643.168C182.013 643.456 181.953 643.9 181.953 644.5V647.128H184.365ZM195.194 643.276L194.15 643.24L194.042 646.408C193.922 649.024 193.802 651.124 193.682 652.708C193.562 654.268 193.334 655.456 192.998 656.272C192.686 657.088 192.218 657.604 191.594 657.82C190.97 658.036 190.118 658.108 189.038 658.036L188.57 658V654.724C188.858 654.724 189.098 654.736 189.29 654.76C189.506 654.784 189.686 654.748 189.83 654.652C189.998 654.532 190.13 654.328 190.226 654.04C190.346 653.728 190.454 653.272 190.55 652.672C190.646 652.072 190.73 651.292 190.802 650.332C190.898 649.348 190.982 648.124 191.054 646.66L191.378 640H198.434V658H195.194V643.276ZM209.26 653.536C209.26 654.496 209.188 655.276 209.044 655.876C208.9 656.476 208.66 656.944 208.324 657.28C208.012 657.592 207.58 657.808 207.028 657.928C206.5 658.024 205.852 658.072 205.084 658.072C204.364 658.072 203.716 658.024 203.14 657.928C202.588 657.808 202.12 657.58 201.736 657.244C201.352 656.884 201.064 656.392 200.872 655.768C200.68 655.12 200.584 654.256 200.584 653.176V643.96C200.584 643.168 200.692 642.508 200.908 641.98C201.124 641.452 201.424 641.044 201.808 640.756C202.192 640.444 202.648 640.228 203.176 640.108C203.728 639.964 204.316 639.892 204.94 639.892C206.26 639.892 207.304 640.18 208.072 640.756C208.864 641.308 209.26 642.376 209.26 643.96V647.668V653.536ZM204.904 642.772C204.352 642.772 204.016 642.904 203.896 643.168C203.776 643.432 203.716 643.864 203.716 644.464V653.068C203.716 653.836 203.8 654.388 203.968 654.724C204.136 655.036 204.472 655.204 204.976 655.228C205.48 655.204 205.792 655.036 205.912 654.724C206.056 654.388 206.128 653.836 206.128 653.068V647.668V644.464C206.128 643.84 206.056 643.408 205.912 643.168C205.792 642.904 205.456 642.772 204.904 642.772ZM211.412 640H216.596C216.884 640 217.208 640.036 217.568 640.108C217.928 640.18 218.264 640.324 218.576 640.54C218.888 640.756 219.152 641.068 219.368 641.476C219.584 641.86 219.692 642.364 219.692 642.988V645.76C219.692 646.192 219.68 646.588 219.656 646.948C219.656 647.284 219.584 647.584 219.44 647.848C219.32 648.112 219.104 648.328 218.792 648.496C218.504 648.64 218.06 648.724 217.46 648.748V649C218.54 649.048 219.236 649.3 219.548 649.756C219.884 650.188 220.052 650.908 220.052 651.916V654.508C220.052 655.588 219.704 656.44 219.008 657.064C218.312 657.688 217.244 658 215.804 658H211.412V640ZM214.724 647.272C215.588 647.56 216.152 647.548 216.416 647.236C216.68 646.924 216.812 646.36 216.812 645.544V643.996C216.812 643.828 216.8 643.648 216.776 643.456C216.752 643.24 216.668 643.06 216.524 642.916C216.404 642.748 216.2 642.652 215.912 642.628C215.624 642.58 215.228 642.64 214.724 642.808V647.272ZM214.652 655.012C215.516 655.3 216.104 655.288 216.416 654.976C216.752 654.664 216.92 654.1 216.92 653.284V651.556C216.92 651.388 216.896 651.208 216.848 651.016C216.8 650.8 216.692 650.62 216.524 650.476C216.38 650.308 216.152 650.212 215.84 650.188C215.552 650.14 215.156 650.2 214.652 650.368V655.012ZM226.561 655.156C227.065 655.132 227.377 654.964 227.497 654.652C227.641 654.316 227.713 653.764 227.713 652.996H230.845V653.536C230.845 654.496 230.773 655.276 230.629 655.876C230.485 656.452 230.245 656.908 229.909 657.244C229.597 657.556 229.165 657.76 228.613 657.856C228.085 657.952 227.437 658 226.669 658C225.949 658 225.301 657.952 224.725 657.856C224.173 657.76 223.705 657.544 223.321 657.208C222.961 656.872 222.685 656.392 222.493 655.768C222.301 655.12 222.205 654.256 222.205 653.176V643.996C222.205 642.412 222.577 641.332 223.321 640.756C224.089 640.156 225.169 639.856 226.561 639.856C227.929 639.856 228.985 640.156 229.729 640.756C230.473 641.332 230.845 642.412 230.845 643.996V649.648H225.301V653.104C225.301 653.872 225.385 654.4 225.553 654.688C225.721 654.976 226.057 655.132 226.561 655.156ZM227.713 647.128V644.5C227.713 643.876 227.653 643.432 227.533 643.168C227.413 642.88 227.065 642.736 226.489 642.736C225.937 642.736 225.601 642.88 225.481 643.168C225.361 643.456 225.301 643.9 225.301 644.5V647.128H227.713ZM236.238 649.108H237.246L238.038 639.964H241.638L239.406 650.116L241.638 658H238.038L236.886 650.944H236.238V649.108ZM232.998 640H236.238V658H232.998V640ZM248.066 655.732H247.85C247.754 656.452 247.526 657.016 247.166 657.424C246.83 657.808 246.278 658 245.51 658C244.454 658 243.722 657.688 243.314 657.064C242.906 656.416 242.702 655.564 242.702 654.508L242.666 647.992V647.416L242.702 643.492C242.702 642.436 242.906 641.596 243.314 640.972C243.722 640.324 244.454 640 245.51 640C246.278 640 246.83 640.204 247.166 640.612C247.526 640.996 247.754 641.548 247.85 642.268H248.066V640H251.306V658H248.066V655.732ZM248.066 642.988C247.226 642.7 246.638 642.712 246.302 643.024C245.966 643.336 245.798 643.9 245.798 644.716V653.284C245.798 654.1 245.966 654.664 246.302 654.976C246.638 655.288 247.226 655.3 248.066 655.012V642.988ZM263.746 640H266.986V658H263.746V640ZM258.31 640H261.55V658H258.31V640ZM266.23 643.312L259.39 643.204V640H266.23V643.312ZM277.815 653.536C277.815 654.496 277.743 655.276 277.599 655.876C277.455 656.476 277.215 656.944 276.879 657.28C276.567 657.592 276.135 657.808 275.583 657.928C275.055 658.024 274.407 658.072 273.639 658.072C272.919 658.072 272.271 658.024 271.695 657.928C271.143 657.808 270.675 657.58 270.291 657.244C269.907 656.884 269.619 656.392 269.427 655.768C269.235 655.12 269.139 654.256 269.139 653.176V643.96C269.139 643.168 269.247 642.508 269.463 641.98C269.679 641.452 269.979 641.044 270.363 640.756C270.747 640.444 271.203 640.228 271.731 640.108C272.283 639.964 272.871 639.892 273.495 639.892C274.815 639.892 275.859 640.18 276.627 640.756C277.419 641.308 277.815 642.376 277.815 643.96V647.668V653.536ZM273.459 642.772C272.907 642.772 272.571 642.904 272.451 643.168C272.331 643.432 272.271 643.864 272.271 644.464V653.068C272.271 653.836 272.355 654.388 272.523 654.724C272.691 655.036 273.027 655.204 273.531 655.228C274.035 655.204 274.347 655.036 274.467 654.724C274.611 654.388 274.683 653.836 274.683 653.068V647.668V644.464C274.683 643.84 274.611 643.408 274.467 643.168C274.347 642.904 274.011 642.772 273.459 642.772ZM285.511 650.764H288.607V653.536C288.607 654.496 288.535 655.276 288.391 655.876C288.247 656.476 288.007 656.944 287.671 657.28C287.359 657.592 286.927 657.808 286.375 657.928C285.847 658.024 285.199 658.072 284.431 658.072C283.711 658.072 283.075 658.024 282.523 657.928C281.971 657.808 281.503 657.58 281.119 657.244C280.735 656.884 280.447 656.392 280.255 655.768C280.063 655.12 279.967 654.268 279.967 653.212V643.924C279.967 642.34 280.327 641.26 281.047 640.684C281.791 640.108 282.883 639.844 284.323 639.892C285.043 639.892 285.667 639.964 286.195 640.108C286.723 640.228 287.167 640.444 287.527 640.756C287.887 641.044 288.151 641.452 288.319 641.98C288.511 642.484 288.607 643.132 288.607 643.924V646.768H285.511V644.428C285.511 643.804 285.439 643.372 285.295 643.132C285.175 642.892 284.839 642.772 284.287 642.772C283.735 642.772 283.387 642.904 283.243 643.168C283.123 643.408 283.063 643.828 283.063 644.428V653.068C283.063 653.836 283.147 654.388 283.315 654.724C283.483 655.06 283.819 655.228 284.323 655.228C284.851 655.228 285.175 655.06 285.295 654.724C285.439 654.388 285.511 653.836 285.511 653.068V650.764ZM294.94 655.156C295.444 655.132 295.756 654.964 295.876 654.652C296.02 654.316 296.092 653.764 296.092 652.996H299.224V653.536C299.224 654.496 299.152 655.276 299.008 655.876C298.864 656.452 298.624 656.908 298.288 657.244C297.976 657.556 297.544 657.76 296.992 657.856C296.464 657.952 295.816 658 295.048 658C294.328 658 293.68 657.952 293.104 657.856C292.552 657.76 292.084 657.544 291.7 657.208C291.34 656.872 291.064 656.392 290.872 655.768C290.68 655.12 290.584 654.256 290.584 653.176V643.996C290.584 642.412 290.956 641.332 291.7 640.756C292.468 640.156 293.548 639.856 294.94 639.856C296.308 639.856 297.364 640.156 298.108 640.756C298.852 641.332 299.224 642.412 299.224 643.996V649.648H293.68V653.104C293.68 653.872 293.764 654.4 293.932 654.688C294.1 654.976 294.436 655.132 294.94 655.156ZM296.092 647.128V644.5C296.092 643.876 296.032 643.432 295.912 643.168C295.792 642.88 295.444 642.736 294.868 642.736C294.316 642.736 293.98 642.88 293.86 643.168C293.74 643.456 293.68 643.9 293.68 644.5V647.128H296.092ZM310.053 658H306.813V640H310.053V658ZM315.489 658H312.249V640H315.489V658ZM302.169 654.724L315.885 654.832L315.489 658H302.169V654.724ZM313.905 654.832H316.389L317.217 660.376H313.905V654.832ZM304.617 658H301.377V640H304.617V658ZM310.053 658H306.813V640H310.053V658ZM324.074 655.732H323.858C323.762 656.452 323.534 657.016 323.174 657.424C322.838 657.808 322.286 658 321.518 658C320.462 658 319.73 657.688 319.322 657.064C318.914 656.416 318.71 655.564 318.71 654.508L318.674 647.992V647.416L318.71 643.492C318.71 642.436 318.914 641.596 319.322 640.972C319.73 640.324 320.462 640 321.518 640C322.286 640 322.838 640.204 323.174 640.612C323.534 640.996 323.762 641.548 323.858 642.268H324.074V640H327.314V658H324.074V655.732ZM324.074 642.988C323.234 642.7 322.646 642.712 322.31 643.024C321.974 643.336 321.806 643.9 321.806 644.716V653.284C321.806 654.1 321.974 654.664 322.31 654.976C322.646 655.288 323.234 655.3 324.074 655.012V642.988ZM342.643 653.536C342.643 654.496 342.571 655.276 342.427 655.876C342.283 656.476 342.043 656.944 341.707 657.28C341.395 657.592 340.963 657.808 340.411 657.928C339.883 658.024 339.235 658.072 338.467 658.072C337.747 658.072 337.099 658.024 336.523 657.928C335.971 657.808 335.503 657.58 335.119 657.244C334.735 656.884 334.447 656.392 334.255 655.768C334.063 655.12 333.967 654.256 333.967 653.176V644.284C333.967 642.7 334.327 641.572 335.047 640.9C335.791 640.204 336.883 639.868 338.323 639.892C339.763 639.94 340.843 640.288 341.563 640.936C342.283 641.584 342.643 642.7 342.643 644.284V653.536ZM338.287 642.772C337.735 642.772 337.399 642.964 337.279 643.348C337.159 643.708 337.099 644.188 337.099 644.788V653.068C337.099 653.836 337.183 654.388 337.351 654.724C337.519 655.036 337.855 655.204 338.359 655.228C338.863 655.204 339.175 655.036 339.295 654.724C339.439 654.388 339.511 653.836 339.511 653.068V644.788C339.511 644.164 339.439 643.672 339.295 643.312C339.175 642.952 338.839 642.772 338.287 642.772ZM329.611 648.1L335.011 648.208V651.412H329.611V648.1ZM332.707 658H329.467V640H332.707V658ZM346.568 640H349.808V658H346.568V640ZM352.544 643.312L343.868 643.204V640H352.544V643.312ZM364.577 650.764H367.673V653.536C367.673 654.496 367.601 655.276 367.457 655.876C367.313 656.476 367.073 656.944 366.737 657.28C366.425 657.592 365.993 657.808 365.441 657.928C364.913 658.024 364.265 658.072 363.497 658.072C362.777 658.072 362.141 658.024 361.589 657.928C361.037 657.808 360.569 657.58 360.185 657.244C359.801 656.884 359.513 656.392 359.321 655.768C359.129 655.12 359.033 654.268 359.033 653.212V643.924C359.033 642.34 359.393 641.26 360.113 640.684C360.857 640.108 361.949 639.844 363.389 639.892C364.109 639.892 364.733 639.964 365.261 640.108C365.789 640.228 366.233 640.444 366.593 640.756C366.953 641.044 367.217 641.452 367.385 641.98C367.577 642.484 367.673 643.132 367.673 643.924V646.768H364.577V644.428C364.577 643.804 364.505 643.372 364.361 643.132C364.241 642.892 363.905 642.772 363.353 642.772C362.801 642.772 362.453 642.904 362.309 643.168C362.189 643.408 362.129 643.828 362.129 644.428V653.068C362.129 653.836 362.213 654.388 362.381 654.724C362.549 655.06 362.885 655.228 363.389 655.228C363.917 655.228 364.241 655.06 364.361 654.724C364.505 654.388 364.577 653.836 364.577 653.068V650.764ZM374.006 655.156C374.51 655.132 374.822 654.964 374.942 654.652C375.086 654.316 375.158 653.764 375.158 652.996H378.29V653.536C378.29 654.496 378.218 655.276 378.074 655.876C377.93 656.452 377.69 656.908 377.354 657.244C377.042 657.556 376.61 657.76 376.058 657.856C375.53 657.952 374.882 658 374.114 658C373.394 658 372.746 657.952 372.17 657.856C371.618 657.76 371.15 657.544 370.766 657.208C370.406 656.872 370.13 656.392 369.938 655.768C369.746 655.12 369.65 654.256 369.65 653.176V643.996C369.65 642.412 370.022 641.332 370.766 640.756C371.534 640.156 372.614 639.856 374.006 639.856C375.374 639.856 376.43 640.156 377.174 640.756C377.918 641.332 378.29 642.412 378.29 643.996V649.648H372.746V653.104C372.746 653.872 372.83 654.4 372.998 654.688C373.166 654.976 373.502 655.132 374.006 655.156ZM375.158 647.128V644.5C375.158 643.876 375.098 643.432 374.978 643.168C374.858 642.88 374.51 642.736 373.934 642.736C373.382 642.736 373.046 642.88 372.926 643.168C372.806 643.456 372.746 643.9 372.746 644.5V647.128H375.158ZM383.683 649.108H384.691L385.483 639.964H389.083L386.851 650.116L389.083 658H385.483L384.331 650.944H383.683V649.108ZM380.443 640H383.683V658H380.443V640ZM398.787 653.536C398.787 654.496 398.715 655.276 398.571 655.876C398.427 656.476 398.187 656.944 397.851 657.28C397.539 657.592 397.107 657.808 396.555 657.928C396.027 658.024 395.379 658.072 394.611 658.072C393.891 658.072 393.243 658.024 392.667 657.928C392.115 657.808 391.647 657.58 391.263 657.244C390.879 656.884 390.591 656.392 390.399 655.768C390.207 655.12 390.111 654.256 390.111 653.176V643.96C390.111 643.168 390.219 642.508 390.435 641.98C390.651 641.452 390.951 641.044 391.335 640.756C391.719 640.444 392.175 640.228 392.703 640.108C393.255 639.964 393.843 639.892 394.467 639.892C395.787 639.892 396.831 640.18 397.599 640.756C398.391 641.308 398.787 642.376 398.787 643.96V647.668V653.536ZM394.431 642.772C393.879 642.772 393.543 642.904 393.423 643.168C393.303 643.432 393.243 643.864 393.243 644.464V653.068C393.243 653.836 393.327 654.388 393.495 654.724C393.663 655.036 393.999 655.204 394.503 655.228C395.007 655.204 395.319 655.036 395.439 654.724C395.583 654.388 395.655 653.836 395.655 653.068V647.668V644.464C395.655 643.84 395.583 643.408 395.439 643.168C395.319 642.904 394.983 642.772 394.431 642.772ZM406.375 640H409.615V658H406.375V640ZM400.939 640H404.179V658H400.939V640ZM408.859 651.52L402.019 651.412V648.208H408.859V651.52ZM414.36 658L414.9 660.376H411.228V654.94H412.128C412.296 654.7 412.44 654.436 412.56 654.148C412.68 653.86 412.788 653.404 412.884 652.78C412.98 652.132 413.076 651.256 413.172 650.152C413.268 649.048 413.376 647.56 413.496 645.688C413.568 644.584 413.616 643.576 413.64 642.664C413.688 641.752 413.736 640.864 413.784 640H421.092V654.94H422.028V660.376H418.356L418.86 658H414.36ZM418.212 654.94V643.348H416.556C416.532 643.708 416.508 644.08 416.484 644.464C416.484 644.848 416.472 645.256 416.448 645.688C416.4 646.792 416.352 647.848 416.304 648.856C416.256 649.864 416.184 650.788 416.088 651.628C415.992 652.444 415.872 653.14 415.728 653.716C415.608 654.292 415.452 654.7 415.26 654.94H418.212ZM436.394 658.036H433.154V640H436.394V658.036ZM426.89 647.128C427.106 647.008 427.334 646.9 427.574 646.804C427.79 646.732 428.042 646.672 428.33 646.624C428.618 646.552 428.918 646.516 429.23 646.516C429.518 646.516 429.842 646.552 430.202 646.624C430.562 646.696 430.898 646.84 431.21 647.056C431.522 647.272 431.786 647.584 432.002 647.992C432.218 648.376 432.326 648.88 432.326 649.504L432.29 654.508C432.29 655.588 431.942 656.44 431.246 657.064C430.55 657.688 429.482 658 428.042 658H423.65V640H426.89V647.128ZM426.89 655.012C427.754 655.3 428.342 655.288 428.654 654.976C428.99 654.664 429.158 654.1 429.158 653.284V650.692C429.158 650.524 429.134 650.344 429.086 650.152C429.038 649.936 428.93 649.756 428.762 649.612C428.618 649.444 428.39 649.348 428.078 649.324C427.79 649.276 427.394 649.336 426.89 649.504V655.012ZM146.02 677.872C147.292 677.92 148.192 678.256 148.72 678.88C149.248 679.48 149.512 680.284 149.512 681.292V689.176C149.512 690.256 149.368 691.12 149.08 691.768C148.816 692.416 148.456 692.92 148 693.28C147.568 693.64 147.064 693.88 146.488 694C145.912 694.12 145.312 694.18 144.688 694.18C143.968 694.18 143.32 694.12 142.744 694C142.192 693.88 141.712 693.652 141.304 693.316C140.92 692.956 140.62 692.452 140.404 691.804C140.212 691.132 140.104 690.256 140.08 689.176L140.008 685.324H143.428L143.464 688.348C143.464 688.732 143.464 689.092 143.464 689.428C143.488 689.764 143.524 690.052 143.572 690.292C143.644 690.508 143.752 690.688 143.896 690.832C144.064 690.952 144.292 691.012 144.58 691.012C145.132 691.012 145.444 690.772 145.516 690.292C145.612 689.788 145.66 689.14 145.66 688.348V682.48C145.66 681.184 145.468 680.284 145.084 679.78C144.724 679.252 144.052 679.072 143.068 679.24L142.996 676.936L146.272 671.716H140.044L140.008 668.8H149.152V673.156L146.02 677.656V677.872ZM157.586 673.552C157.586 672.928 157.514 672.46 157.37 672.148C157.25 671.812 156.914 671.644 156.362 671.644C155.81 671.644 155.462 671.812 155.318 672.148C155.198 672.484 155.138 672.952 155.138 673.552V678.952C155.45 678.808 155.762 678.664 156.074 678.52C156.362 678.424 156.662 678.34 156.974 678.268C157.31 678.172 157.634 678.124 157.946 678.124C158.234 678.124 158.558 678.16 158.918 678.232C159.278 678.304 159.614 678.448 159.926 678.664C160.238 678.88 160.502 679.192 160.718 679.6C160.934 679.984 161.042 680.488 161.042 681.112V689.176C161.042 691.072 160.646 692.392 159.854 693.136C159.086 693.856 157.97 694.216 156.506 694.216C155.786 694.216 155.126 694.156 154.526 694.036C153.926 693.916 153.41 693.676 152.978 693.316C152.57 692.956 152.246 692.452 152.006 691.804C151.79 691.132 151.682 690.256 151.682 689.176V672.796C151.682 671.212 152.102 670.096 152.942 669.448C153.806 668.776 154.958 668.464 156.398 668.512C157.838 668.536 158.966 668.86 159.782 669.484C160.622 670.108 161.042 671.212 161.042 672.796V675.64H157.586V673.552ZM155.138 688.348C155.138 688.732 155.138 689.104 155.138 689.464C155.162 689.8 155.21 690.1 155.282 690.364C155.354 690.604 155.474 690.796 155.642 690.94C155.834 691.084 156.086 691.156 156.398 691.156C156.734 691.156 156.974 691.084 157.118 690.94C157.286 690.796 157.406 690.604 157.478 690.364C157.55 690.1 157.586 689.8 157.586 689.464C157.586 689.104 157.586 688.732 157.586 688.348V682.264C157.586 682 157.502 681.712 157.334 681.4C157.166 681.064 156.806 680.896 156.254 680.896C155.966 680.896 155.606 680.968 155.174 681.112L155.138 688.348ZM173.5 676H176.74V694H173.5V688.924C173.284 689.044 173.056 689.14 172.816 689.212C172.6 689.308 172.348 689.392 172.06 689.464C171.796 689.512 171.496 689.536 171.16 689.536C170.872 689.536 170.548 689.5 170.188 689.428C169.828 689.356 169.492 689.212 169.18 688.996C168.868 688.78 168.604 688.48 168.388 688.096C168.172 687.688 168.064 687.172 168.064 686.548V676H171.232V685C171.232 685.168 171.256 685.36 171.304 685.576C171.352 685.768 171.448 685.948 171.592 686.116C171.76 686.26 171.988 686.356 172.276 686.404C172.588 686.428 172.996 686.356 173.5 686.188V676ZM183.249 691.156C183.753 691.132 184.065 690.964 184.185 690.652C184.329 690.316 184.401 689.764 184.401 688.996H187.533V689.536C187.533 690.496 187.461 691.276 187.316 691.876C187.173 692.452 186.933 692.908 186.597 693.244C186.285 693.556 185.853 693.76 185.301 693.856C184.773 693.952 184.125 694 183.357 694C182.637 694 181.989 693.952 181.413 693.856C180.861 693.76 180.393 693.544 180.009 693.208C179.649 692.872 179.373 692.392 179.181 691.768C178.989 691.12 178.893 690.256 178.893 689.176V679.996C178.893 678.412 179.265 677.332 180.009 676.756C180.777 676.156 181.857 675.856 183.249 675.856C184.617 675.856 185.673 676.156 186.417 676.756C187.161 677.332 187.533 678.412 187.533 679.996V685.648H181.989V689.104C181.989 689.872 182.073 690.4 182.241 690.688C182.409 690.976 182.745 691.132 183.249 691.156ZM184.401 683.128V680.5C184.401 679.876 184.341 679.432 184.221 679.168C184.101 678.88 183.753 678.736 183.177 678.736C182.625 678.736 182.289 678.88 182.169 679.168C182.049 679.456 181.989 679.9 181.989 680.5V683.128H184.401ZM195.229 679.276L194.185 679.24L194.077 682.408C193.957 685.024 193.837 687.124 193.717 688.708C193.597 690.268 193.369 691.456 193.033 692.272C192.721 693.088 192.253 693.604 191.629 693.82C191.005 694.036 190.153 694.108 189.073 694.036L188.605 694V690.724C188.893 690.724 189.133 690.736 189.325 690.76C189.541 690.784 189.721 690.748 189.865 690.652C190.033 690.532 190.165 690.328 190.261 690.04C190.381 689.728 190.489 689.272 190.585 688.672C190.681 688.072 190.765 687.292 190.837 686.332C190.933 685.348 191.017 684.124 191.089 682.66L191.413 676H198.469V694H195.229V679.276ZM209.295 689.536C209.295 690.496 209.223 691.276 209.079 691.876C208.935 692.476 208.695 692.944 208.359 693.28C208.047 693.592 207.615 693.808 207.063 693.928C206.535 694.024 205.887 694.072 205.119 694.072C204.399 694.072 203.751 694.024 203.175 693.928C202.623 693.808 202.155 693.58 201.771 693.244C201.387 692.884 201.099 692.392 200.907 691.768C200.715 691.12 200.619 690.256 200.619 689.176V679.96C200.619 679.168 200.727 678.508 200.943 677.98C201.159 677.452 201.459 677.044 201.843 676.756C202.227 676.444 202.683 676.228 203.211 676.108C203.763 675.964 204.351 675.892 204.975 675.892C206.295 675.892 207.339 676.18 208.107 676.756C208.899 677.308 209.295 678.376 209.295 679.96V683.668V689.536ZM204.939 678.772C204.387 678.772 204.051 678.904 203.931 679.168C203.811 679.432 203.751 679.864 203.751 680.464V689.068C203.751 689.836 203.835 690.388 204.003 690.724C204.171 691.036 204.507 691.204 205.011 691.228C205.515 691.204 205.827 691.036 205.947 690.724C206.091 690.388 206.163 689.836 206.163 689.068V683.668V680.464C206.163 679.84 206.091 679.408 205.947 679.168C205.827 678.904 205.491 678.772 204.939 678.772ZM211.447 676H216.631C216.919 676 217.243 676.036 217.603 676.108C217.963 676.18 218.299 676.324 218.611 676.54C218.923 676.756 219.187 677.068 219.403 677.476C219.619 677.86 219.727 678.364 219.727 678.988V681.76C219.727 682.192 219.715 682.588 219.691 682.948C219.691 683.284 219.619 683.584 219.475 683.848C219.355 684.112 219.139 684.328 218.827 684.496C218.539 684.64 218.095 684.724 217.495 684.748V685C218.575 685.048 219.271 685.3 219.583 685.756C219.919 686.188 220.087 686.908 220.087 687.916V690.508C220.087 691.588 219.739 692.44 219.043 693.064C218.347 693.688 217.279 694 215.839 694H211.447V676ZM214.759 683.272C215.623 683.56 216.187 683.548 216.451 683.236C216.715 682.924 216.847 682.36 216.847 681.544V679.996C216.847 679.828 216.835 679.648 216.811 679.456C216.787 679.24 216.703 679.06 216.559 678.916C216.439 678.748 216.235 678.652 215.947 678.628C215.659 678.58 215.263 678.64 214.759 678.808V683.272ZM214.687 691.012C215.551 691.3 216.139 691.288 216.451 690.976C216.787 690.664 216.955 690.1 216.955 689.284V687.556C216.955 687.388 216.931 687.208 216.883 687.016C216.835 686.8 216.727 686.62 216.559 686.476C216.415 686.308 216.187 686.212 215.875 686.188C215.587 686.14 215.191 686.2 214.687 686.368V691.012ZM226.596 691.156C227.1 691.132 227.412 690.964 227.532 690.652C227.676 690.316 227.748 689.764 227.748 688.996H230.88V689.536C230.88 690.496 230.808 691.276 230.664 691.876C230.52 692.452 230.28 692.908 229.944 693.244C229.632 693.556 229.2 693.76 228.648 693.856C228.12 693.952 227.472 694 226.704 694C225.984 694 225.336 693.952 224.76 693.856C224.208 693.76 223.74 693.544 223.356 693.208C222.996 692.872 222.72 692.392 222.528 691.768C222.336 691.12 222.24 690.256 222.24 689.176V679.996C222.24 678.412 222.612 677.332 223.356 676.756C224.124 676.156 225.204 675.856 226.596 675.856C227.964 675.856 229.02 676.156 229.764 676.756C230.508 677.332 230.88 678.412 230.88 679.996V685.648H225.336V689.104C225.336 689.872 225.42 690.4 225.588 690.688C225.756 690.976 226.092 691.132 226.596 691.156ZM227.748 683.128V680.5C227.748 679.876 227.688 679.432 227.568 679.168C227.448 678.88 227.1 678.736 226.524 678.736C225.972 678.736 225.636 678.88 225.516 679.168C225.396 679.456 225.336 679.9 225.336 680.5V683.128H227.748ZM236.273 685.108H237.281L238.073 675.964H241.673L239.441 686.116L241.673 694H238.073L236.921 686.944H236.273V685.108ZM233.033 676H236.273V694H233.033V676ZM253.586 676H256.826V694H253.586V676ZM248.15 676H251.39V694H248.15V676ZM256.07 687.52L249.23 687.412V684.208H256.07V687.52ZM264.774 683.164H264.522L262.218 693.964V694H258.978V676H262.218L261.894 686.728H262.146L264.378 676L264.414 676.432V676H267.654V694H264.414L264.774 683.164ZM273.047 685.108H274.055L274.847 675.964H278.447L276.215 686.116L278.447 694H274.847L273.695 686.944H273.047V685.108ZM269.807 676H273.047V694H269.807V676ZM288.151 689.536C288.151 690.496 288.079 691.276 287.935 691.876C287.791 692.476 287.551 692.944 287.215 693.28C286.903 693.592 286.471 693.808 285.919 693.928C285.391 694.024 284.743 694.072 283.975 694.072C283.255 694.072 282.607 694.024 282.031 693.928C281.479 693.808 281.011 693.58 280.627 693.244C280.243 692.884 279.955 692.392 279.763 691.768C279.571 691.12 279.475 690.256 279.475 689.176V679.96C279.475 679.168 279.583 678.508 279.799 677.98C280.015 677.452 280.315 677.044 280.699 676.756C281.083 676.444 281.539 676.228 282.067 676.108C282.619 675.964 283.207 675.892 283.831 675.892C285.151 675.892 286.195 676.18 286.963 676.756C287.755 677.308 288.151 678.376 288.151 679.96V683.668V689.536ZM283.795 678.772C283.243 678.772 282.907 678.904 282.787 679.168C282.667 679.432 282.607 679.864 282.607 680.464V689.068C282.607 689.836 282.691 690.388 282.859 690.724C283.027 691.036 283.363 691.204 283.867 691.228C284.371 691.204 284.683 691.036 284.803 690.724C284.947 690.388 285.019 689.836 285.019 689.068V683.668V680.464C285.019 679.84 284.947 679.408 284.803 679.168C284.683 678.904 284.347 678.772 283.795 678.772ZM290.303 676H293.543V694H290.303V676ZM297.467 676L296.747 679.204L291.023 678.124V676H297.467ZM299.891 694L300.431 696.376H296.759V690.94H297.659C297.827 690.7 297.971 690.436 298.091 690.148C298.211 689.86 298.319 689.404 298.415 688.78C298.511 688.132 298.607 687.256 298.703 686.152C298.799 685.048 298.907 683.56 299.027 681.688C299.099 680.584 299.147 679.576 299.171 678.664C299.219 677.752 299.267 676.864 299.315 676H306.623V690.94H307.559V696.376H303.887L304.391 694H299.891ZM303.743 690.94V679.348H302.087C302.063 679.708 302.039 680.08 302.015 680.464C302.015 680.848 302.003 681.256 301.979 681.688C301.931 682.792 301.883 683.848 301.835 684.856C301.787 685.864 301.715 686.788 301.619 687.628C301.523 688.444 301.403 689.14 301.259 689.716C301.139 690.292 300.983 690.7 300.791 690.94H303.743ZM314.582 691.732H314.366C314.27 692.452 314.042 693.016 313.682 693.424C313.346 693.808 312.794 694 312.026 694C310.97 694 310.238 693.688 309.83 693.064C309.422 692.416 309.218 691.564 309.218 690.508L309.182 683.992V683.416L309.218 679.492C309.218 678.436 309.422 677.596 309.83 676.972C310.238 676.324 310.97 676 312.026 676C312.794 676 313.346 676.204 313.682 676.612C314.042 676.996 314.27 677.548 314.366 678.268H314.582V676H317.822V694H314.582V691.732ZM314.582 678.988C313.742 678.7 313.154 678.712 312.818 679.024C312.482 679.336 312.314 679.9 312.314 680.716V689.284C312.314 690.1 312.482 690.664 312.818 690.976C313.154 691.288 313.742 691.3 314.582 691.012V678.988ZM330.262 676H333.502V694H330.262V676ZM324.826 676H328.066V694H324.826V676ZM332.746 687.52L325.906 687.412V684.208H332.746V687.52ZM340.01 691.156C340.514 691.132 340.826 690.964 340.946 690.652C341.09 690.316 341.162 689.764 341.162 688.996H344.294V689.536C344.294 690.496 344.222 691.276 344.078 691.876C343.934 692.452 343.694 692.908 343.358 693.244C343.046 693.556 342.614 693.76 342.062 693.856C341.534 693.952 340.886 694 340.118 694C339.398 694 338.75 693.952 338.174 693.856C337.622 693.76 337.154 693.544 336.77 693.208C336.41 692.872 336.134 692.392 335.942 691.768C335.75 691.12 335.654 690.256 335.654 689.176V679.996C335.654 678.412 336.026 677.332 336.77 676.756C337.538 676.156 338.618 675.856 340.01 675.856C341.378 675.856 342.434 676.156 343.178 676.756C343.922 677.332 344.294 678.412 344.294 679.996V685.648H338.75V689.104C338.75 689.872 338.834 690.4 339.002 690.688C339.17 690.976 339.506 691.132 340.01 691.156ZM341.162 683.128V680.5C341.162 679.876 341.102 679.432 340.982 679.168C340.862 678.88 340.514 678.736 339.938 678.736C339.386 678.736 339.05 678.88 338.93 679.168C338.81 679.456 338.75 679.9 338.75 680.5V683.128H341.162ZM352.847 685.288L350.759 676H354.215L354.611 678.088L355.583 683.956H355.763L356.663 678.088L357.023 676H360.479L358.391 685.288L360.479 694H357.023L356.411 690.076L355.943 686.62H355.403L354.863 690.112L354.215 694H350.759L352.847 685.288ZM370.17 689.536C370.17 690.496 370.098 691.276 369.954 691.876C369.81 692.476 369.57 692.944 369.234 693.28C368.922 693.592 368.49 693.808 367.938 693.928C367.41 694.024 366.762 694.072 365.994 694.072C365.274 694.072 364.626 694.024 364.05 693.928C363.498 693.808 363.03 693.58 362.646 693.244C362.262 692.884 361.974 692.392 361.782 691.768C361.59 691.12 361.494 690.256 361.494 689.176V679.96C361.494 679.168 361.602 678.508 361.818 677.98C362.034 677.452 362.334 677.044 362.718 676.756C363.102 676.444 363.558 676.228 364.086 676.108C364.638 675.964 365.226 675.892 365.85 675.892C367.17 675.892 368.214 676.18 368.982 676.756C369.774 677.308 370.17 678.376 370.17 679.96V683.668V689.536ZM365.814 678.772C365.262 678.772 364.926 678.904 364.806 679.168C364.686 679.432 364.626 679.864 364.626 680.464V689.068C364.626 689.836 364.71 690.388 364.878 690.724C365.046 691.036 365.382 691.204 365.886 691.228C366.39 691.204 366.702 691.036 366.822 690.724C366.966 690.388 367.038 689.836 367.038 689.068V683.668V680.464C367.038 679.84 366.966 679.408 366.822 679.168C366.702 678.904 366.366 678.772 365.814 678.772ZM374.914 694L375.454 696.376H371.782V690.94H372.682C372.85 690.7 372.994 690.436 373.114 690.148C373.234 689.86 373.342 689.404 373.438 688.78C373.534 688.132 373.63 687.256 373.726 686.152C373.822 685.048 373.93 683.56 374.05 681.688C374.122 680.584 374.17 679.576 374.194 678.664C374.242 677.752 374.29 676.864 374.338 676H381.646V690.94H382.582V696.376H378.91L379.414 694H374.914ZM378.766 690.94V679.348H377.11C377.086 679.708 377.062 680.08 377.038 680.464C377.038 680.848 377.026 681.256 377.002 681.688C376.954 682.792 376.906 683.848 376.858 684.856C376.81 685.864 376.738 686.788 376.642 687.628C376.546 688.444 376.426 689.14 376.282 689.716C376.162 690.292 376.006 690.7 375.814 690.94H378.766ZM390.001 683.164H389.749L387.445 693.964V694H384.205V676H387.445L387.121 686.728H387.373L389.605 676L389.641 676.432V676H392.881V694H389.641L390.001 683.164ZM400.577 679.276L399.533 679.24L399.425 682.408C399.305 685.024 399.185 687.124 399.065 688.708C398.945 690.268 398.717 691.456 398.381 692.272C398.069 693.088 397.601 693.604 396.977 693.82C396.353 694.036 395.501 694.108 394.421 694.036L393.953 694V690.724C394.241 690.724 394.481 690.736 394.673 690.76C394.889 690.784 395.069 690.748 395.213 690.652C395.381 690.532 395.513 690.328 395.609 690.04C395.729 689.728 395.837 689.272 395.933 688.672C396.029 688.072 396.113 687.292 396.185 686.332C396.281 685.348 396.365 684.124 396.437 682.66L396.761 676H403.817V694H400.577V679.276ZM411.763 683.164H411.511L409.207 693.964V694H405.967V676H409.207L408.883 686.728H409.135L411.367 676L411.403 676.432V676H414.643V694H411.403L411.763 683.164ZM421.646 676H426.83C427.118 676 427.442 676.036 427.802 676.108C428.162 676.18 428.498 676.324 428.81 676.54C429.122 676.756 429.386 677.068 429.602 677.476C429.818 677.86 429.926 678.364 429.926 678.988V681.76C429.926 682.192 429.914 682.588 429.89 682.948C429.89 683.284 429.818 683.584 429.674 683.848C429.554 684.112 429.338 684.328 429.026 684.496C428.738 684.64 428.294 684.724 427.694 684.748V685C428.774 685.048 429.47 685.3 429.782 685.756C430.118 686.188 430.286 686.908 430.286 687.916V690.508C430.286 691.588 429.938 692.44 429.242 693.064C428.546 693.688 427.478 694 426.038 694H421.646V676ZM424.958 683.272C425.822 683.56 426.386 683.548 426.65 683.236C426.914 682.924 427.046 682.36 427.046 681.544V679.996C427.046 679.828 427.034 679.648 427.01 679.456C426.986 679.24 426.902 679.06 426.758 678.916C426.638 678.748 426.434 678.652 426.146 678.628C425.858 678.58 425.462 678.64 424.958 678.808V683.272ZM424.886 691.012C425.75 691.3 426.338 691.288 426.65 690.976C426.986 690.664 427.154 690.1 427.154 689.284V687.556C427.154 687.388 427.13 687.208 427.082 687.016C427.034 686.8 426.926 686.62 426.758 686.476C426.614 686.308 426.386 686.212 426.074 686.188C425.786 686.14 425.39 686.2 424.886 686.368V691.012ZM442.835 686.764H445.931V689.536C445.931 690.496 445.859 691.276 445.715 691.876C445.571 692.476 445.331 692.944 444.995 693.28C444.683 693.592 444.251 693.808 443.699 693.928C443.171 694.024 442.523 694.072 441.755 694.072C441.035 694.072 440.399 694.024 439.847 693.928C439.295 693.808 438.827 693.58 438.443 693.244C438.059 692.884 437.771 692.392 437.579 691.768C437.387 691.12 437.291 690.268 437.291 689.212V679.924C437.291 678.34 437.651 677.26 438.371 676.684C439.115 676.108 440.207 675.844 441.647 675.892C442.367 675.892 442.991 675.964 443.519 676.108C444.047 676.228 444.491 676.444 444.851 676.756C445.211 677.044 445.475 677.452 445.643 677.98C445.835 678.484 445.931 679.132 445.931 679.924V682.768H442.835V680.428C442.835 679.804 442.763 679.372 442.619 679.132C442.499 678.892 442.163 678.772 441.611 678.772C441.059 678.772 440.711 678.904 440.567 679.168C440.447 679.408 440.387 679.828 440.387 680.428V689.068C440.387 689.836 440.471 690.388 440.639 690.724C440.807 691.06 441.143 691.228 441.647 691.228C442.175 691.228 442.499 691.06 442.619 690.724C442.763 690.388 442.835 689.836 442.835 689.068V686.764ZM452.264 691.156C452.768 691.132 453.08 690.964 453.2 690.652C453.344 690.316 453.416 689.764 453.416 688.996H456.548V689.536C456.548 690.496 456.476 691.276 456.332 691.876C456.188 692.452 455.948 692.908 455.612 693.244C455.3 693.556 454.868 693.76 454.316 693.856C453.788 693.952 453.14 694 452.372 694C451.652 694 451.004 693.952 450.428 693.856C449.876 693.76 449.408 693.544 449.024 693.208C448.664 692.872 448.388 692.392 448.196 691.768C448.004 691.12 447.908 690.256 447.908 689.176V679.996C447.908 678.412 448.28 677.332 449.024 676.756C449.792 676.156 450.872 675.856 452.264 675.856C453.632 675.856 454.688 676.156 455.432 676.756C456.176 677.332 456.548 678.412 456.548 679.996V685.648H451.004V689.104C451.004 689.872 451.088 690.4 451.256 690.688C451.424 690.976 451.76 691.132 452.264 691.156ZM453.416 683.128V680.5C453.416 679.876 453.356 679.432 453.236 679.168C453.116 678.88 452.768 678.736 452.192 678.736C451.64 678.736 451.304 678.88 451.184 679.168C451.064 679.456 451.004 679.9 451.004 680.5V683.128H453.416ZM461.941 685.108H462.949L463.741 675.964H467.341L465.109 686.116L467.341 694H463.741L462.589 686.944H461.941V685.108ZM458.701 676H461.941V694H458.701V676ZM477.045 689.536C477.045 690.496 476.973 691.276 476.829 691.876C476.685 692.476 476.445 692.944 476.109 693.28C475.797 693.592 475.365 693.808 474.813 693.928C474.285 694.024 473.637 694.072 472.869 694.072C472.149 694.072 471.501 694.024 470.925 693.928C470.373 693.808 469.905 693.58 469.521 693.244C469.137 692.884 468.849 692.392 468.657 691.768C468.465 691.12 468.369 690.256 468.369 689.176V679.96C468.369 679.168 468.477 678.508 468.693 677.98C468.909 677.452 469.209 677.044 469.593 676.756C469.977 676.444 470.433 676.228 470.961 676.108C471.513 675.964 472.101 675.892 472.725 675.892C474.045 675.892 475.089 676.18 475.857 676.756C476.649 677.308 477.045 678.376 477.045 679.96V683.668V689.536ZM472.689 678.772C472.137 678.772 471.801 678.904 471.681 679.168C471.561 679.432 471.501 679.864 471.501 680.464V689.068C471.501 689.836 471.585 690.388 471.753 690.724C471.921 691.036 472.257 691.204 472.761 691.228C473.265 691.204 473.577 691.036 473.697 690.724C473.841 690.388 473.913 689.836 473.913 689.068V683.668V680.464C473.913 679.84 473.841 679.408 473.697 679.168C473.577 678.904 473.241 678.772 472.689 678.772ZM484.633 676H487.873V694H484.633V676ZM479.197 676H482.437V694H479.197V676ZM487.117 687.52L480.277 687.412V684.208H487.117V687.52ZM492.617 694L493.157 696.376H489.485V690.94H490.385C490.553 690.7 490.697 690.436 490.817 690.148C490.937 689.86 491.045 689.404 491.141 688.78C491.237 688.132 491.333 687.256 491.429 686.152C491.525 685.048 491.633 683.56 491.753 681.688C491.825 680.584 491.873 679.576 491.897 678.664C491.945 677.752 491.993 676.864 492.041 676H499.349V690.94H500.285V696.376H496.613L497.117 694H492.617ZM496.469 690.94V679.348H494.813C494.789 679.708 494.765 680.08 494.741 680.464C494.741 680.848 494.729 681.256 494.705 681.688C494.657 682.792 494.609 683.848 494.561 684.856C494.513 685.864 494.441 686.788 494.345 687.628C494.249 688.444 494.129 689.14 493.985 689.716C493.865 690.292 493.709 690.7 493.517 690.94H496.469ZM514.652 694.036H511.412V676H514.652V694.036ZM505.148 683.128C505.364 683.008 505.592 682.9 505.832 682.804C506.048 682.732 506.3 682.672 506.588 682.624C506.876 682.552 507.176 682.516 507.488 682.516C507.776 682.516 508.1 682.552 508.46 682.624C508.82 682.696 509.156 682.84 509.468 683.056C509.78 683.272 510.044 683.584 510.26 683.992C510.476 684.376 510.584 684.88 510.584 685.504L510.548 690.508C510.548 691.588 510.2 692.44 509.504 693.064C508.808 693.688 507.74 694 506.3 694H501.908V676H505.148V683.128ZM505.148 691.012C506.012 691.3 506.6 691.288 506.912 690.976C507.248 690.664 507.416 690.1 507.416 689.284V686.692C507.416 686.524 507.392 686.344 507.344 686.152C507.296 685.936 507.188 685.756 507.02 685.612C506.876 685.444 506.648 685.348 506.336 685.324C506.048 685.276 505.652 685.336 505.148 685.504V691.012Z" fill="black"/>
<ellipse cx="102.5" cy="609.5" rx="27.5" ry="14.5" fill="#0023F4"/>
<ellipse cx="102.5" cy="645.5" rx="27.5" ry="14.5" fill="#F19FF9"/>
<path d="M129.5 681.5C129.5 685.227 126.626 688.72 121.712 691.311C116.821 693.89 110.029 695.5 102.5 695.5C94.9707 695.5 88.179 693.89 83.2878 691.311C78.3737 688.72 75.5 685.227 75.5 681.5C75.5 677.773 78.3737 674.28 83.2878 671.689C88.179 669.11 94.9707 667.5 102.5 667.5C110.029 667.5 116.821 669.11 121.712 671.689C126.626 674.28 129.5 677.773 129.5 681.5Z" stroke="black"/>
</svg>
