<svg width="779" height="703" viewBox="0 0 779 703" fill="none" xmlns="http://www.w3.org/2000/svg">
<path d="M78.68 247H71.48V213.16H65.72V206.68H71.48V196.6H78.608L78.68 247ZM95.4363 210.856C96.1563 210.856 96.8283 210.952 97.4523 211.144C98.1243 211.288 98.7243 211.6 99.2523 212.08C99.7803 212.512 100.188 213.112 100.476 213.88C100.812 214.648 100.98 215.656 100.98 216.904V237.28C100.98 239.44 100.716 241.192 100.188 242.536C99.7083 243.88 99.0363 244.912 98.1723 245.632C97.3083 246.352 96.3003 246.832 95.1483 247.072C94.0443 247.312 92.8683 247.432 91.6203 247.432C90.1803 247.432 88.8603 247.312 87.6603 247.072C86.4603 246.832 85.4283 246.352 84.5643 245.632C83.7003 244.912 83.0283 243.904 82.5483 242.608C82.1163 241.264 81.9003 239.512 81.9003 237.352V233.104H89.1003V235.768C89.1003 237.304 89.1963 238.576 89.3883 239.584C89.6283 240.544 90.3723 241.024 91.6203 241.024C92.2923 241.024 92.7723 240.904 93.0603 240.664C93.3963 240.376 93.6363 240.016 93.7803 239.584C93.9243 239.104 93.9963 238.552 93.9963 237.928C93.9963 237.256 93.9963 236.536 93.9963 235.768V219.208C93.9963 219.016 93.9723 218.776 93.9243 218.488C93.9243 218.152 93.8283 217.864 93.6363 217.624C93.4923 217.336 93.2523 217.12 92.9163 216.976C92.6283 216.784 92.1963 216.76 91.6203 216.904C90.8523 217.096 90.2523 217.672 89.8203 218.632C89.3883 219.544 89.1723 220.552 89.1723 221.656H81.9003V196.528H100.98V203.872H89.1003V216.256L89.6043 216.184C89.7003 216.136 89.7723 215.848 89.8203 215.32C89.9163 214.744 90.1323 214.144 90.4683 213.52C90.8523 212.848 91.4043 212.248 92.1243 211.72C92.8923 211.144 93.9963 210.856 95.4363 210.856ZM126.565 225.328H126.061L121.453 246.928V247H114.973V211H121.453L120.805 232.456H121.309L125.773 211L125.845 211.864V211H132.325V247H125.845L126.565 225.328ZM147.501 211H153.981V247H147.501V211ZM136.629 211H143.109V247H136.629V211ZM152.469 234.04L138.789 233.824V227.416H152.469V234.04ZM162.605 211H169.085V247H162.605V211ZM174.557 217.624L157.205 217.408V211H174.557V217.624ZM186.544 241.312C187.552 241.264 188.176 240.928 188.416 240.304C188.704 239.632 188.848 238.528 188.848 236.992H195.112V238.072C195.112 239.992 194.968 241.552 194.68 242.752C194.392 243.904 193.912 244.816 193.24 245.488C192.616 246.112 191.752 246.52 190.648 246.712C189.592 246.904 188.296 247 186.76 247C185.32 247 184.024 246.904 182.872 246.712C181.768 246.52 180.832 246.088 180.064 245.416C179.344 244.744 178.792 243.784 178.408 242.536C178.024 241.24 177.832 239.512 177.832 237.352V218.992C177.832 215.824 178.576 213.664 180.064 212.512C181.6 211.312 183.76 210.712 186.544 210.712C189.28 210.712 191.392 211.312 192.88 212.512C194.368 213.664 195.112 215.824 195.112 218.992V230.296H184.024V237.208C184.024 238.744 184.192 239.8 184.528 240.376C184.864 240.952 185.536 241.264 186.544 241.312ZM188.848 225.256V220C188.848 218.752 188.728 217.864 188.488 217.336C188.248 216.76 187.552 216.472 186.4 216.472C185.296 216.472 184.624 216.76 184.384 217.336C184.144 217.912 184.024 218.8 184.024 220V225.256H188.848ZM199.418 254.704V211H205.898V215.536H206.33C206.522 214.096 206.954 212.992 207.626 212.224C208.346 211.408 209.474 211 211.01 211C213.122 211 214.562 211.648 215.33 212.944C216.146 214.192 216.578 215.872 216.626 217.984L216.698 225.832V226.984L216.626 240.016C216.626 242.128 216.218 243.832 215.402 245.128C214.586 246.376 213.122 247 211.01 247C209.474 247 208.346 246.616 207.626 245.848C206.954 245.032 206.522 243.904 206.33 242.464H205.898V254.704H199.418ZM205.898 241.024C207.578 241.6 208.754 241.576 209.426 240.952C210.098 240.328 210.434 239.2 210.434 237.568V220.432C210.434 218.8 210.098 217.672 209.426 217.048C208.754 216.424 207.578 216.4 205.898 216.976V241.024ZM221.004 211H231.372C231.948 211 232.596 211.072 233.316 211.216C234.036 211.36 234.708 211.648 235.332 212.08C235.956 212.512 236.484 213.136 236.916 213.952C237.348 214.72 237.564 215.728 237.564 216.976V222.52C237.564 223.384 237.54 224.176 237.492 224.896C237.492 225.568 237.348 226.168 237.06 226.696C236.82 227.224 236.388 227.656 235.764 227.992C235.188 228.28 234.3 228.448 233.1 228.496V229C235.26 229.096 236.652 229.6 237.276 230.512C237.948 231.376 238.284 232.816 238.284 234.832V240.016C238.284 242.176 237.588 243.88 236.196 245.128C234.804 246.376 232.668 247 229.788 247H221.004V211ZM227.628 225.544C229.356 226.12 230.484 226.096 231.012 225.472C231.54 224.848 231.804 223.72 231.804 222.088V218.992C231.804 218.656 231.78 218.296 231.732 217.912C231.684 217.48 231.516 217.12 231.228 216.832C230.988 216.496 230.58 216.304 230.004 216.256C229.428 216.16 228.636 216.28 227.628 216.616V225.544ZM227.484 241.024C229.212 241.6 230.388 241.576 231.012 240.952C231.684 240.328 232.02 239.2 232.02 237.568V234.112C232.02 233.776 231.972 233.416 231.876 233.032C231.78 232.6 231.564 232.24 231.228 231.952C230.94 231.616 230.484 231.424 229.86 231.376C229.284 231.28 228.492 231.4 227.484 231.736V241.024ZM249.07 225.256C249.502 225.016 249.958 224.8 250.438 224.608C250.87 224.464 251.374 224.344 251.95 224.248C252.526 224.104 253.126 224.032 253.75 224.032C254.326 224.032 254.974 224.104 255.694 224.248C256.414 224.392 257.086 224.68 257.71 225.112C258.334 225.544 258.862 226.168 259.294 226.984C259.726 227.752 259.942 228.76 259.942 230.008L259.87 240.016C259.87 242.176 259.174 243.88 257.782 245.128C256.39 246.376 254.254 247 251.374 247H242.59V211H249.07V225.256ZM249.07 241.024C250.798 241.6 251.974 241.576 252.598 240.952C253.27 240.328 253.606 239.2 253.606 237.568V232.384C253.606 232.048 253.558 231.688 253.462 231.304C253.366 230.872 253.15 230.512 252.814 230.224C252.526 229.888 252.07 229.696 251.446 229.648C250.87 229.552 250.078 229.672 249.07 230.008V241.024ZM289.895 238.072C289.895 239.992 289.751 241.552 289.463 242.752C289.175 243.952 288.695 244.888 288.023 245.56C287.399 246.184 286.535 246.616 285.431 246.856C284.375 247.048 283.079 247.144 281.543 247.144C280.103 247.144 278.807 247.048 277.655 246.856C276.551 246.616 275.615 246.16 274.847 245.488C274.079 244.768 273.503 243.784 273.119 242.536C272.735 241.24 272.543 239.512 272.543 237.352V219.568C272.543 216.4 273.263 214.144 274.703 212.8C276.191 211.408 278.375 210.736 281.255 210.784C284.135 210.88 286.295 211.576 287.735 212.872C289.175 214.168 289.895 216.4 289.895 219.568V238.072ZM281.183 216.544C280.079 216.544 279.407 216.928 279.167 217.696C278.927 218.416 278.807 219.376 278.807 220.576V237.136C278.807 238.672 278.975 239.776 279.311 240.448C279.647 241.072 280.319 241.408 281.327 241.456C282.335 241.408 282.959 241.072 283.199 240.448C283.487 239.776 283.631 238.672 283.631 237.136V220.576C283.631 219.328 283.487 218.344 283.199 217.624C282.959 216.904 282.287 216.544 281.183 216.544ZM263.831 227.2L274.631 227.416V233.824H263.831V227.2ZM270.023 247H263.543V211H270.023V247Z" fill="black"/>
<path d="M15.336 148.568C17.496 148.664 18.936 149.24 19.656 150.296C20.424 151.352 20.808 152.888 20.808 154.904V168.512C20.808 170.096 20.568 171.392 20.088 172.4C19.608 173.408 18.936 174.224 18.072 174.848C17.256 175.472 16.296 175.904 15.192 176.144C14.136 176.384 13.032 176.504 11.88 176.504C10.68 176.504 9.528 176.36 8.424 176.072C7.368 175.832 6.408 175.424 5.544 174.848C4.728 174.224 4.08 173.408 3.6 172.4C3.12 171.344 2.88 170.048 2.88 168.512V154.904C2.88 152.888 3.264 151.352 4.032 150.296C4.8 149.24 6.264 148.664 8.424 148.568V148.136C7.224 148.088 6.288 147.872 5.616 147.488C4.992 147.056 4.512 146.552 4.176 145.976C3.888 145.4 3.72 144.752 3.672 144.032C3.624 143.312 3.6 142.616 3.6 141.944V131C3.6 130.232 3.744 129.488 4.032 128.768C4.32 128 4.776 127.328 5.4 126.752C6.072 126.176 6.936 125.72 7.992 125.384C9.048 125 10.344 124.808 11.88 124.808C13.272 124.808 14.472 125 15.48 125.384C16.536 125.72 17.376 126.176 18 126.752C18.672 127.328 19.176 128 19.512 128.768C19.848 129.488 20.04 130.232 20.088 131V141.944C20.04 142.616 19.992 143.312 19.944 144.032C19.896 144.752 19.728 145.4 19.44 145.976C19.152 146.552 18.696 147.056 18.072 147.488C17.448 147.872 16.536 148.088 15.336 148.136V148.568ZM10.08 143.744C10.08 144.416 10.248 144.944 10.584 145.328C10.968 145.664 11.4 145.832 11.88 145.832C12.312 145.832 12.72 145.664 13.104 145.328C13.488 144.992 13.68 144.464 13.68 143.744V133.016C13.68 132.44 13.488 132.008 13.104 131.72C12.768 131.432 12.36 131.288 11.88 131.288C11.448 131.288 11.04 131.432 10.656 131.72C10.272 132.008 10.08 132.44 10.08 133.016V143.744ZM9.864 168.008C9.864 168.68 10.056 169.184 10.44 169.52C10.872 169.856 11.352 170.024 11.88 170.024C12.408 170.072 12.888 169.928 13.32 169.592C13.752 169.208 13.944 168.68 13.896 168.008V152.744C13.896 152.12 13.68 151.664 13.248 151.376C12.864 151.04 12.408 150.872 11.88 150.872C11.352 150.872 10.872 151.016 10.44 151.304C10.056 151.592 9.864 152.072 9.864 152.744V168.008ZM36.8213 143.744C39.3653 143.84 41.1653 144.512 42.2213 145.76C43.2773 146.96 43.8053 148.568 43.8053 150.584V166.352C43.8053 168.512 43.5173 170.24 42.9413 171.536C42.4133 172.832 41.6933 173.84 40.7812 174.56C39.9173 175.28 38.9093 175.76 37.7573 176C36.6053 176.24 35.4053 176.36 34.1573 176.36C32.7173 176.36 31.4213 176.24 30.2693 176C29.1653 175.76 28.2053 175.304 27.3893 174.632C26.6213 173.912 26.0213 172.904 25.5893 171.608C25.2053 170.264 24.9893 168.512 24.9413 166.352L24.7973 158.648H31.6373L31.7093 164.696C31.7093 165.464 31.7093 166.184 31.7093 166.856C31.7573 167.528 31.8293 168.104 31.9253 168.584C32.0693 169.016 32.2853 169.376 32.5733 169.664C32.9093 169.904 33.3653 170.024 33.9413 170.024C35.0453 170.024 35.6693 169.544 35.8133 168.584C36.0053 167.576 36.1013 166.28 36.1013 164.696V152.96C36.1013 150.368 35.7173 148.568 34.9493 147.56C34.2293 146.504 32.8853 146.144 30.9173 146.48L30.7733 141.872L37.3253 131.432H24.8693L24.7973 125.6H43.0853V134.312L36.8213 143.312V143.744ZM75.1995 167.072C75.1995 168.992 75.0555 170.552 74.7675 171.752C74.4795 172.952 73.9995 173.888 73.3275 174.56C72.7035 175.184 71.8395 175.616 70.7355 175.856C69.6795 176.048 68.3835 176.144 66.8475 176.144C65.4075 176.144 64.1115 176.048 62.9595 175.856C61.8555 175.616 60.9195 175.16 60.1515 174.488C59.3835 173.768 58.8075 172.784 58.4235 171.536C58.0395 170.24 57.8475 168.512 57.8475 166.352V147.92C57.8475 146.336 58.0635 145.016 58.4955 143.96C58.9275 142.904 59.5275 142.088 60.2955 141.512C61.0635 140.888 61.9755 140.456 63.0315 140.216C64.1355 139.928 65.3115 139.784 66.5595 139.784C69.1995 139.784 71.2875 140.36 72.8235 141.512C74.4075 142.616 75.1995 144.752 75.1995 147.92V155.336V167.072ZM66.4875 145.544C65.3835 145.544 64.7115 145.808 64.4715 146.336C64.2315 146.864 64.1115 147.728 64.1115 148.928V166.136C64.1115 167.672 64.2795 168.776 64.6155 169.448C64.9515 170.072 65.6235 170.408 66.6315 170.456C67.6395 170.408 68.2635 170.072 68.5035 169.448C68.7915 168.776 68.9355 167.672 68.9355 166.136V155.336V148.928C68.9355 147.68 68.7915 146.816 68.5035 146.336C68.2635 145.808 67.5915 145.544 66.4875 145.544ZM90.3758 140H96.8558V176H90.3758V140ZM79.5038 140H85.9838V176H79.5038V140ZM95.3438 146.624L81.6638 146.408V140H95.3438V146.624ZM101.16 183.704V140H107.64V144.536H108.072C108.264 143.096 108.696 141.992 109.368 141.224C110.088 140.408 111.216 140 112.752 140C114.864 140 116.304 140.648 117.072 141.944C117.888 143.192 118.32 144.872 118.368 146.984L118.44 154.832V155.984L118.368 169.016C118.368 171.128 117.96 172.832 117.144 174.128C116.328 175.376 114.864 176 112.752 176C111.216 176 110.088 175.616 109.368 174.848C108.696 174.032 108.264 172.904 108.072 171.464H107.64V183.704H101.16ZM107.64 170.024C109.32 170.6 110.496 170.576 111.168 169.952C111.84 169.328 112.176 168.2 112.176 166.568V149.432C112.176 147.8 111.84 146.672 111.168 146.048C110.496 145.424 109.32 145.4 107.64 145.976V170.024ZM140.098 167.072C140.098 168.992 139.954 170.552 139.666 171.752C139.378 172.952 138.898 173.888 138.226 174.56C137.602 175.184 136.738 175.616 135.634 175.856C134.578 176.048 133.282 176.144 131.746 176.144C130.306 176.144 129.01 176.048 127.858 175.856C126.754 175.616 125.818 175.16 125.05 174.488C124.282 173.768 123.706 172.784 123.322 171.536C122.938 170.24 122.746 168.512 122.746 166.352V147.92C122.746 146.336 122.962 145.016 123.394 143.96C123.826 142.904 124.426 142.088 125.194 141.512C125.962 140.888 126.874 140.456 127.93 140.216C129.034 139.928 130.21 139.784 131.458 139.784C134.098 139.784 136.186 140.36 137.722 141.512C139.306 142.616 140.098 144.752 140.098 147.92V155.336V167.072ZM131.386 145.544C130.282 145.544 129.61 145.808 129.37 146.336C129.13 146.864 129.01 147.728 129.01 148.928V166.136C129.01 167.672 129.178 168.776 129.514 169.448C129.85 170.072 130.522 170.408 131.53 170.456C132.538 170.408 133.162 170.072 133.402 169.448C133.69 168.776 133.834 167.672 133.834 166.136V155.336V148.928C133.834 147.68 133.69 146.816 133.402 146.336C133.162 145.808 132.49 145.544 131.386 145.544ZM161.754 176H155.274V140H161.754V176ZM172.626 176H166.146V140H172.626V176ZM145.986 169.448L172.626 169.664V176H145.986V169.448ZM150.882 176H144.402V140H150.882V176ZM161.754 176H155.274V140H161.754V176ZM185.669 170.312C186.677 170.264 187.301 169.928 187.541 169.304C187.829 168.632 187.973 167.528 187.973 165.992H194.237V167.072C194.237 168.992 194.093 170.552 193.805 171.752C193.517 172.904 193.037 173.816 192.365 174.488C191.741 175.112 190.877 175.52 189.773 175.712C188.717 175.904 187.421 176 185.885 176C184.445 176 183.149 175.904 181.997 175.712C180.893 175.52 179.957 175.088 179.189 174.416C178.469 173.744 177.917 172.784 177.533 171.536C177.149 170.24 176.957 168.512 176.957 166.352V147.992C176.957 144.824 177.701 142.664 179.189 141.512C180.725 140.312 182.885 139.712 185.669 139.712C188.405 139.712 190.517 140.312 192.005 141.512C193.493 142.664 194.237 144.824 194.237 147.992V159.296H183.149V166.208C183.149 167.744 183.317 168.8 183.653 169.376C183.989 169.952 184.661 170.264 185.669 170.312ZM187.973 154.256V149C187.973 147.752 187.853 146.864 187.613 146.336C187.373 145.76 186.677 145.472 185.525 145.472C184.421 145.472 183.749 145.76 183.509 146.336C183.269 146.912 183.149 147.8 183.149 149V154.256H187.973ZM209.415 140H215.895V176H209.415V140ZM198.543 140H205.023V176H198.543V140ZM214.383 163.04L200.703 162.824V156.416H214.383V163.04ZM231.071 140H237.551V176H231.071V140ZM220.199 140H226.679V176H220.199V140ZM236.039 163.04L222.359 162.824V156.416H236.039V163.04ZM267.343 176.072H260.863V140H267.343V176.072ZM248.335 154.256C248.767 154.016 249.223 153.8 249.703 153.608C250.135 153.464 250.639 153.344 251.215 153.248C251.791 153.104 252.391 153.032 253.015 153.032C253.591 153.032 254.239 153.104 254.959 153.248C255.679 153.392 256.351 153.68 256.975 154.112C257.599 154.544 258.127 155.168 258.559 155.984C258.991 156.752 259.207 157.76 259.207 159.008L259.135 169.016C259.135 171.176 258.439 172.88 257.047 174.128C255.655 175.376 253.519 176 250.639 176H241.855V140H248.335V154.256ZM248.335 170.024C250.063 170.6 251.239 170.576 251.863 169.952C252.535 169.328 252.871 168.2 252.871 166.568V161.384C252.871 161.048 252.823 160.688 252.727 160.304C252.631 159.872 252.415 159.512 252.079 159.224C251.791 158.888 251.335 158.696 250.711 158.648C250.135 158.552 249.343 158.672 248.335 159.008V170.024ZM274.764 158.576L270.588 140H277.5L278.292 144.176L280.236 155.912H280.596L282.396 144.176L283.116 140H290.028L285.852 158.576L290.028 176H283.116L281.892 168.152L280.956 161.24H279.876L278.796 168.224L277.5 176H270.588L274.764 158.576Z" fill="black"/>
<circle cx="523" cy="307" r="231.5" fill="#0023F4" stroke="black"/>
<mask id="path-4-inside-1_407:1156" fill="white">
<path d="M523 75C463.752 75 406.75 97.6674 363.681 138.354C320.613 179.041 294.742 234.663 291.375 293.815C288.008 352.967 307.399 411.166 345.572 456.477C383.745 501.788 437.808 530.778 496.673 537.501C555.537 544.225 614.744 528.172 662.152 492.636C709.559 457.1 741.575 404.773 751.633 346.385C761.691 287.997 749.029 227.974 716.244 178.623C683.46 129.273 633.037 94.3354 575.315 80.9753L523 307L523 75Z"/>
</mask>
<path d="M523 75C463.752 75 406.75 97.6674 363.681 138.354C320.613 179.041 294.742 234.663 291.375 293.815C288.008 352.967 307.399 411.166 345.572 456.477C383.745 501.788 437.808 530.778 496.673 537.501C555.537 544.225 614.744 528.172 662.152 492.636C709.559 457.1 741.575 404.773 751.633 346.385C761.691 287.997 749.029 227.974 716.244 178.623C683.46 129.273 633.037 94.3354 575.315 80.9753L523 307L523 75Z" fill="white" stroke="black" stroke-width="2" mask="url(#path-4-inside-1_407:1156)"/>
<mask id="path-5-inside-2_407:1156" fill="white">
<path d="M429.013 519.108C458.55 532.197 490.496 538.971 522.804 538.999C555.111 539.026 587.068 532.305 616.628 519.267C646.188 506.229 672.699 487.16 694.462 463.283C716.226 439.406 732.763 411.246 743.013 380.608C753.264 349.97 757.002 317.528 753.989 285.362C750.976 253.195 741.278 222.012 725.515 193.81C709.753 165.609 688.275 141.01 662.455 121.59C636.636 102.17 607.045 88.3569 575.578 81.0352L523 306.999L429.013 519.108Z"/>
</mask>
<path d="M429.013 519.108C458.55 532.197 490.496 538.971 522.804 538.999C555.111 539.026 587.068 532.305 616.628 519.267C646.188 506.229 672.699 487.16 694.462 463.283C716.226 439.406 732.763 411.246 743.013 380.608C753.264 349.97 757.002 317.528 753.989 285.362C750.976 253.195 741.278 222.012 725.515 193.81C709.753 165.609 688.275 141.01 662.455 121.59C636.636 102.17 607.045 88.3569 575.578 81.0352L523 306.999L429.013 519.108Z" fill="#F19FF9" stroke="black" stroke-width="2" mask="url(#path-5-inside-2_407:1156)"/>
<path d="M362.02 605.872C363.292 605.92 364.192 606.256 364.72 606.88C365.248 607.48 365.512 608.284 365.512 609.292V617.176C365.512 618.256 365.368 619.12 365.08 619.768C364.816 620.416 364.456 620.92 364 621.28C363.568 621.64 363.064 621.88 362.488 622C361.912 622.12 361.312 622.18 360.688 622.18C359.968 622.18 359.32 622.12 358.744 622C358.192 621.88 357.712 621.652 357.304 621.316C356.92 620.956 356.62 620.452 356.404 619.804C356.212 619.132 356.104 618.256 356.08 617.176L356.008 613.324H359.428L359.464 616.348C359.464 616.732 359.464 617.092 359.464 617.428C359.488 617.764 359.524 618.052 359.572 618.292C359.644 618.508 359.752 618.688 359.896 618.832C360.064 618.952 360.292 619.012 360.58 619.012C361.132 619.012 361.444 618.772 361.516 618.292C361.612 617.788 361.66 617.14 361.66 616.348V610.48C361.66 609.184 361.468 608.284 361.084 607.78C360.724 607.252 360.052 607.072 359.068 607.24L358.996 604.936L362.272 599.716H356.044L356.008 596.8H365.152V601.156L362.02 605.656V605.872ZM372.533 604H377.717C378.005 604 378.329 604.036 378.689 604.108C379.049 604.18 379.385 604.324 379.697 604.54C380.009 604.756 380.273 605.068 380.489 605.476C380.705 605.86 380.813 606.364 380.813 606.988V609.76C380.813 610.192 380.801 610.588 380.777 610.948C380.777 611.284 380.705 611.584 380.561 611.848C380.441 612.112 380.225 612.328 379.913 612.496C379.625 612.64 379.181 612.724 378.581 612.748V613C379.661 613.048 380.357 613.3 380.669 613.756C381.005 614.188 381.173 614.908 381.173 615.916V618.508C381.173 619.588 380.825 620.44 380.129 621.064C379.433 621.688 378.365 622 376.925 622H372.533V604ZM375.845 611.272C376.709 611.56 377.273 611.548 377.537 611.236C377.801 610.924 377.933 610.36 377.933 609.544V607.996C377.933 607.828 377.921 607.648 377.897 607.456C377.873 607.24 377.789 607.06 377.645 606.916C377.525 606.748 377.321 606.652 377.033 606.628C376.745 606.58 376.349 606.64 375.845 606.808V611.272ZM375.773 619.012C376.637 619.3 377.225 619.288 377.537 618.976C377.873 618.664 378.041 618.1 378.041 617.284V615.556C378.041 615.388 378.017 615.208 377.969 615.016C377.921 614.8 377.813 614.62 377.645 614.476C377.501 614.308 377.273 614.212 376.961 614.188C376.673 614.14 376.277 614.2 375.773 614.368V619.012ZM388.87 607.276L387.826 607.24L387.718 610.408C387.598 613.024 387.478 615.124 387.358 616.708C387.238 618.268 387.01 619.456 386.674 620.272C386.362 621.088 385.894 621.604 385.27 621.82C384.646 622.036 383.794 622.108 382.714 622.036L382.246 622V618.724C382.534 618.724 382.774 618.736 382.966 618.76C383.182 618.784 383.362 618.748 383.506 618.652C383.674 618.532 383.806 618.328 383.902 618.04C384.022 617.728 384.13 617.272 384.226 616.672C384.322 616.072 384.406 615.292 384.478 614.332C384.574 613.348 384.658 612.124 384.73 610.66L385.054 604H392.11V622H388.87V607.276ZM399.66 619.732H399.444C399.348 620.452 399.12 621.016 398.76 621.424C398.424 621.808 397.872 622 397.104 622C396.048 622 395.316 621.688 394.908 621.064C394.5 620.416 394.296 619.564 394.296 618.508L394.26 611.992V611.416L394.296 607.492C394.296 606.436 394.5 605.596 394.908 604.972C395.316 604.324 396.048 604 397.104 604C397.872 604 398.424 604.204 398.76 604.612C399.12 604.996 399.348 605.548 399.444 606.268H399.66V604H402.9V622H399.66V619.732ZM399.66 606.988C398.82 606.7 398.232 606.712 397.896 607.024C397.56 607.336 397.392 607.9 397.392 608.716V617.284C397.392 618.1 397.56 618.664 397.896 618.976C398.232 619.288 398.82 619.3 399.66 619.012V606.988ZM407.645 622L408.185 624.376H404.513V618.94H405.413C405.581 618.7 405.725 618.436 405.845 618.148C405.965 617.86 406.073 617.404 406.169 616.78C406.265 616.132 406.361 615.256 406.457 614.152C406.553 613.048 406.661 611.56 406.781 609.688C406.853 608.584 406.901 607.576 406.925 606.664C406.973 605.752 407.021 604.864 407.069 604H414.377V618.94H415.313V624.376H411.641L412.145 622H407.645ZM411.497 618.94V607.348H409.841C409.817 607.708 409.793 608.08 409.769 608.464C409.769 608.848 409.757 609.256 409.733 609.688C409.685 610.792 409.637 611.848 409.589 612.856C409.541 613.864 409.469 614.788 409.373 615.628C409.277 616.444 409.157 617.14 409.013 617.716C408.893 618.292 408.737 618.7 408.545 618.94H411.497ZM421.291 619.156C421.795 619.132 422.107 618.964 422.227 618.652C422.371 618.316 422.443 617.764 422.443 616.996H425.575V617.536C425.575 618.496 425.503 619.276 425.359 619.876C425.215 620.452 424.975 620.908 424.639 621.244C424.327 621.556 423.895 621.76 423.343 621.856C422.815 621.952 422.167 622 421.399 622C420.679 622 420.031 621.952 419.455 621.856C418.903 621.76 418.435 621.544 418.051 621.208C417.691 620.872 417.415 620.392 417.223 619.768C417.031 619.12 416.935 618.256 416.935 617.176V607.996C416.935 606.412 417.307 605.332 418.051 604.756C418.819 604.156 419.899 603.856 421.291 603.856C422.659 603.856 423.715 604.156 424.459 604.756C425.203 605.332 425.575 606.412 425.575 607.996V613.648H420.031V617.104C420.031 617.872 420.115 618.4 420.283 618.688C420.451 618.976 420.787 619.132 421.291 619.156ZM422.443 611.128V608.5C422.443 607.876 422.383 607.432 422.263 607.168C422.143 606.88 421.795 606.736 421.219 606.736C420.667 606.736 420.331 606.88 420.211 607.168C420.091 607.456 420.031 607.9 420.031 608.5V611.128H422.443ZM433.272 607.276L432.228 607.24L432.12 610.408C432 613.024 431.88 615.124 431.76 616.708C431.64 618.268 431.412 619.456 431.076 620.272C430.764 621.088 430.296 621.604 429.672 621.82C429.048 622.036 428.196 622.108 427.116 622.036L426.648 622V618.724C426.936 618.724 427.176 618.736 427.368 618.76C427.584 618.784 427.764 618.748 427.908 618.652C428.076 618.532 428.208 618.328 428.304 618.04C428.424 617.728 428.532 617.272 428.628 616.672C428.724 616.072 428.808 615.292 428.88 614.332C428.976 613.348 429.06 612.124 429.132 610.66L429.456 604H436.512V622H433.272V607.276ZM441.902 611.128C442.118 611.008 442.346 610.9 442.586 610.804C442.802 610.732 443.054 610.672 443.342 610.624C443.63 610.552 443.93 610.516 444.242 610.516C444.53 610.516 444.854 610.552 445.214 610.624C445.574 610.696 445.91 610.84 446.222 611.056C446.534 611.272 446.798 611.584 447.014 611.992C447.23 612.376 447.338 612.88 447.338 613.504L447.302 618.508C447.302 619.588 446.954 620.44 446.258 621.064C445.562 621.688 444.494 622 443.054 622H438.662V604H441.902V611.128ZM441.902 619.012C442.766 619.3 443.354 619.288 443.666 618.976C444.002 618.664 444.17 618.1 444.17 617.284V614.692C444.17 614.524 444.146 614.344 444.098 614.152C444.05 613.936 443.942 613.756 443.774 613.612C443.63 613.444 443.402 613.348 443.09 613.324C442.802 613.276 442.406 613.336 441.902 613.504V619.012ZM452.379 622H449.139V604H452.379V622ZM457.815 622H454.575V604H457.815V622ZM449.139 618.724L458.247 618.832L458.355 622H449.139V618.724ZM456.267 618.832H458.751L459.579 624.376H456.267V618.832ZM465.824 619.732H465.608C465.512 620.452 465.284 621.016 464.924 621.424C464.588 621.808 464.036 622 463.268 622C462.212 622 461.48 621.688 461.072 621.064C460.664 620.416 460.46 619.564 460.46 618.508L460.424 611.992V611.416L460.46 607.492C460.46 606.436 460.664 605.596 461.072 604.972C461.48 604.324 462.212 604 463.268 604C464.036 604 464.588 604.204 464.924 604.612C465.284 604.996 465.512 605.548 465.608 606.268H465.824V604H469.064V622H465.824V619.732ZM465.824 606.988C464.984 606.7 464.396 606.712 464.06 607.024C463.724 607.336 463.556 607.9 463.556 608.716V617.284C463.556 618.1 463.724 618.664 464.06 618.976C464.396 619.288 464.984 619.3 465.824 619.012V606.988ZM481.612 614.764H484.708V617.536C484.708 618.496 484.636 619.276 484.492 619.876C484.348 620.476 484.108 620.944 483.772 621.28C483.46 621.592 483.028 621.808 482.476 621.928C481.948 622.024 481.3 622.072 480.532 622.072C479.812 622.072 479.176 622.024 478.624 621.928C478.072 621.808 477.604 621.58 477.22 621.244C476.836 620.884 476.548 620.392 476.356 619.768C476.164 619.12 476.068 618.268 476.068 617.212V607.924C476.068 606.34 476.428 605.26 477.148 604.684C477.892 604.108 478.984 603.844 480.424 603.892C481.144 603.892 481.768 603.964 482.296 604.108C482.824 604.228 483.268 604.444 483.628 604.756C483.988 605.044 484.252 605.452 484.42 605.98C484.612 606.484 484.708 607.132 484.708 607.924V610.768H481.612V608.428C481.612 607.804 481.54 607.372 481.396 607.132C481.276 606.892 480.94 606.772 480.388 606.772C479.836 606.772 479.488 606.904 479.344 607.168C479.224 607.408 479.164 607.828 479.164 608.428V617.068C479.164 617.836 479.248 618.388 479.416 618.724C479.584 619.06 479.92 619.228 480.424 619.228C480.952 619.228 481.276 619.06 481.396 618.724C481.54 618.388 481.612 617.836 481.612 617.068V614.764ZM491.041 619.156C491.545 619.132 491.857 618.964 491.977 618.652C492.121 618.316 492.193 617.764 492.193 616.996H495.325V617.536C495.325 618.496 495.253 619.276 495.109 619.876C494.965 620.452 494.725 620.908 494.389 621.244C494.077 621.556 493.645 621.76 493.093 621.856C492.565 621.952 491.917 622 491.149 622C490.429 622 489.781 621.952 489.205 621.856C488.653 621.76 488.185 621.544 487.801 621.208C487.441 620.872 487.165 620.392 486.973 619.768C486.781 619.12 486.685 618.256 486.685 617.176V607.996C486.685 606.412 487.057 605.332 487.801 604.756C488.569 604.156 489.649 603.856 491.041 603.856C492.409 603.856 493.465 604.156 494.209 604.756C494.953 605.332 495.325 606.412 495.325 607.996V613.648H489.781V617.104C489.781 617.872 489.865 618.4 490.033 618.688C490.201 618.976 490.537 619.132 491.041 619.156ZM492.193 611.128V608.5C492.193 607.876 492.133 607.432 492.013 607.168C491.893 606.88 491.545 606.736 490.969 606.736C490.417 606.736 490.081 606.88 489.961 607.168C489.841 607.456 489.781 607.9 489.781 608.5V611.128H492.193ZM500.718 613.108H501.726L502.518 603.964H506.118L503.886 614.116L506.118 622H502.518L501.366 614.944H500.718V613.108ZM497.478 604H500.718V622H497.478V604ZM515.822 617.536C515.822 618.496 515.75 619.276 515.606 619.876C515.462 620.476 515.222 620.944 514.886 621.28C514.574 621.592 514.142 621.808 513.59 621.928C513.062 622.024 512.414 622.072 511.646 622.072C510.926 622.072 510.278 622.024 509.702 621.928C509.15 621.808 508.682 621.58 508.298 621.244C507.914 620.884 507.626 620.392 507.434 619.768C507.242 619.12 507.146 618.256 507.146 617.176V607.96C507.146 607.168 507.254 606.508 507.47 605.98C507.686 605.452 507.986 605.044 508.37 604.756C508.754 604.444 509.21 604.228 509.738 604.108C510.29 603.964 510.878 603.892 511.502 603.892C512.822 603.892 513.866 604.18 514.634 604.756C515.426 605.308 515.822 606.376 515.822 607.96V611.668V617.536ZM511.466 606.772C510.914 606.772 510.578 606.904 510.458 607.168C510.338 607.432 510.278 607.864 510.278 608.464V617.068C510.278 617.836 510.362 618.388 510.53 618.724C510.698 619.036 511.034 619.204 511.538 619.228C512.042 619.204 512.354 619.036 512.474 618.724C512.618 618.388 512.69 617.836 512.69 617.068V611.668V608.464C512.69 607.84 512.618 607.408 512.474 607.168C512.354 606.904 512.018 606.772 511.466 606.772ZM523.411 604H526.651V622H523.411V604ZM517.975 604H521.215V622H517.975V604ZM525.895 615.52L519.055 615.412V612.208H525.895V615.52ZM531.395 622L531.935 624.376H528.263V618.94H529.163C529.331 618.7 529.475 618.436 529.595 618.148C529.715 617.86 529.823 617.404 529.919 616.78C530.015 616.132 530.111 615.256 530.207 614.152C530.303 613.048 530.411 611.56 530.531 609.688C530.603 608.584 530.651 607.576 530.675 606.664C530.723 605.752 530.771 604.864 530.819 604H538.127V618.94H539.063V624.376H535.391L535.895 622H531.395ZM535.247 618.94V607.348H533.591C533.567 607.708 533.543 608.08 533.519 608.464C533.519 608.848 533.507 609.256 533.483 609.688C533.435 610.792 533.387 611.848 533.339 612.856C533.291 613.864 533.219 614.788 533.123 615.628C533.027 616.444 532.907 617.14 532.763 617.716C532.643 618.292 532.487 618.7 532.295 618.94H535.247ZM549.361 617.536C549.361 618.496 549.289 619.276 549.145 619.876C549.001 620.476 548.761 620.944 548.425 621.28C548.113 621.592 547.681 621.808 547.129 621.928C546.601 622.024 545.953 622.072 545.185 622.072C544.465 622.072 543.817 622.024 543.241 621.928C542.689 621.808 542.221 621.58 541.837 621.244C541.453 620.884 541.165 620.392 540.973 619.768C540.781 619.12 540.685 618.256 540.685 617.176V607.96C540.685 607.168 540.793 606.508 541.009 605.98C541.225 605.452 541.525 605.044 541.909 604.756C542.293 604.444 542.749 604.228 543.277 604.108C543.829 603.964 544.417 603.892 545.041 603.892C546.361 603.892 547.405 604.18 548.173 604.756C548.965 605.308 549.361 606.376 549.361 607.96V611.668V617.536ZM545.005 606.772C544.453 606.772 544.117 606.904 543.997 607.168C543.877 607.432 543.817 607.864 543.817 608.464V617.068C543.817 617.836 543.901 618.388 544.069 618.724C544.237 619.036 544.573 619.204 545.077 619.228C545.581 619.204 545.893 619.036 546.013 618.724C546.157 618.388 546.229 617.836 546.229 617.068V611.668V608.464C546.229 607.84 546.157 607.408 546.013 607.168C545.893 606.904 545.557 606.772 545.005 606.772ZM551.514 604H556.698C556.986 604 557.31 604.036 557.67 604.108C558.03 604.18 558.366 604.324 558.678 604.54C558.99 604.756 559.254 605.068 559.47 605.476C559.686 605.86 559.794 606.364 559.794 606.988V609.76C559.794 610.192 559.782 610.588 559.758 610.948C559.758 611.284 559.686 611.584 559.542 611.848C559.422 612.112 559.206 612.328 558.894 612.496C558.606 612.64 558.162 612.724 557.562 612.748V613C558.642 613.048 559.338 613.3 559.65 613.756C559.986 614.188 560.154 614.908 560.154 615.916V618.508C560.154 619.588 559.806 620.44 559.11 621.064C558.414 621.688 557.346 622 555.906 622H551.514V604ZM554.826 611.272C555.69 611.56 556.254 611.548 556.518 611.236C556.782 610.924 556.914 610.36 556.914 609.544V607.996C556.914 607.828 556.902 607.648 556.878 607.456C556.854 607.24 556.77 607.06 556.626 606.916C556.506 606.748 556.302 606.652 556.014 606.628C555.726 606.58 555.33 606.64 554.826 606.808V611.272ZM554.754 619.012C555.618 619.3 556.206 619.288 556.518 618.976C556.854 618.664 557.022 618.1 557.022 617.284V615.556C557.022 615.388 556.998 615.208 556.95 615.016C556.902 614.8 556.794 614.62 556.626 614.476C556.482 614.308 556.254 614.212 555.942 614.188C555.654 614.14 555.258 614.2 554.754 614.368V619.012ZM364.684 648.208H365.872V651.88H364.684V658H361.084V651.88H355.72L355.36 648.712L358.24 632.8H364.648L364.684 648.208ZM361.084 648.208V636.004H360.832L358.96 648.208H361.084ZM376.567 648.208H377.755V651.88H376.567V658H372.967V651.88H367.603L367.243 648.712L370.123 632.8H376.531L376.567 648.208ZM372.967 648.208V636.004H372.715L370.843 648.208H372.967ZM389.465 640H392.705V658H389.465V652.924C389.249 653.044 389.021 653.14 388.781 653.212C388.565 653.308 388.313 653.392 388.025 653.464C387.761 653.512 387.461 653.536 387.125 653.536C386.837 653.536 386.513 653.5 386.153 653.428C385.793 653.356 385.457 653.212 385.145 652.996C384.833 652.78 384.569 652.48 384.353 652.096C384.137 651.688 384.029 651.172 384.029 650.548V640H387.197V649C387.197 649.168 387.221 649.36 387.269 649.576C387.317 649.768 387.413 649.948 387.557 650.116C387.725 650.26 387.953 650.356 388.241 650.404C388.553 650.428 388.961 650.356 389.465 650.188V640ZM399.213 655.156C399.717 655.132 400.029 654.964 400.149 654.652C400.293 654.316 400.365 653.764 400.365 652.996H403.497V653.536C403.497 654.496 403.425 655.276 403.281 655.876C403.137 656.452 402.897 656.908 402.561 657.244C402.249 657.556 401.817 657.76 401.265 657.856C400.737 657.952 400.089 658 399.321 658C398.601 658 397.953 657.952 397.377 657.856C396.825 657.76 396.357 657.544 395.973 657.208C395.613 656.872 395.337 656.392 395.145 655.768C394.953 655.12 394.857 654.256 394.857 653.176V643.996C394.857 642.412 395.229 641.332 395.973 640.756C396.741 640.156 397.821 639.856 399.213 639.856C400.581 639.856 401.637 640.156 402.381 640.756C403.125 641.332 403.497 642.412 403.497 643.996V649.648H397.953V653.104C397.953 653.872 398.037 654.4 398.205 654.688C398.373 654.976 398.709 655.132 399.213 655.156ZM400.365 647.128V644.5C400.365 643.876 400.305 643.432 400.185 643.168C400.065 642.88 399.717 642.736 399.141 642.736C398.589 642.736 398.253 642.88 398.133 643.168C398.013 643.456 397.953 643.9 397.953 644.5V647.128H400.365ZM411.194 643.276L410.15 643.24L410.042 646.408C409.922 649.024 409.802 651.124 409.682 652.708C409.562 654.268 409.334 655.456 408.998 656.272C408.686 657.088 408.218 657.604 407.594 657.82C406.97 658.036 406.118 658.108 405.038 658.036L404.57 658V654.724C404.858 654.724 405.098 654.736 405.29 654.76C405.506 654.784 405.686 654.748 405.83 654.652C405.998 654.532 406.13 654.328 406.226 654.04C406.346 653.728 406.454 653.272 406.55 652.672C406.646 652.072 406.73 651.292 406.802 650.332C406.898 649.348 406.982 648.124 407.054 646.66L407.378 640H414.434V658H411.194V643.276ZM425.26 653.536C425.26 654.496 425.188 655.276 425.044 655.876C424.9 656.476 424.66 656.944 424.324 657.28C424.012 657.592 423.58 657.808 423.028 657.928C422.5 658.024 421.852 658.072 421.084 658.072C420.364 658.072 419.716 658.024 419.14 657.928C418.588 657.808 418.12 657.58 417.736 657.244C417.352 656.884 417.064 656.392 416.872 655.768C416.68 655.12 416.584 654.256 416.584 653.176V643.96C416.584 643.168 416.692 642.508 416.908 641.98C417.124 641.452 417.424 641.044 417.808 640.756C418.192 640.444 418.648 640.228 419.176 640.108C419.728 639.964 420.316 639.892 420.94 639.892C422.26 639.892 423.304 640.18 424.072 640.756C424.864 641.308 425.26 642.376 425.26 643.96V647.668V653.536ZM420.904 642.772C420.352 642.772 420.016 642.904 419.896 643.168C419.776 643.432 419.716 643.864 419.716 644.464V653.068C419.716 653.836 419.8 654.388 419.968 654.724C420.136 655.036 420.472 655.204 420.976 655.228C421.48 655.204 421.792 655.036 421.912 654.724C422.056 654.388 422.128 653.836 422.128 653.068V647.668V644.464C422.128 643.84 422.056 643.408 421.912 643.168C421.792 642.904 421.456 642.772 420.904 642.772ZM427.412 640H432.596C432.884 640 433.208 640.036 433.568 640.108C433.928 640.18 434.264 640.324 434.576 640.54C434.888 640.756 435.152 641.068 435.368 641.476C435.584 641.86 435.692 642.364 435.692 642.988V645.76C435.692 646.192 435.68 646.588 435.656 646.948C435.656 647.284 435.584 647.584 435.44 647.848C435.32 648.112 435.104 648.328 434.792 648.496C434.504 648.64 434.06 648.724 433.46 648.748V649C434.54 649.048 435.236 649.3 435.548 649.756C435.884 650.188 436.052 650.908 436.052 651.916V654.508C436.052 655.588 435.704 656.44 435.008 657.064C434.312 657.688 433.244 658 431.804 658H427.412V640ZM430.724 647.272C431.588 647.56 432.152 647.548 432.416 647.236C432.68 646.924 432.812 646.36 432.812 645.544V643.996C432.812 643.828 432.8 643.648 432.776 643.456C432.752 643.24 432.668 643.06 432.524 642.916C432.404 642.748 432.2 642.652 431.912 642.628C431.624 642.58 431.228 642.64 430.724 642.808V647.272ZM430.652 655.012C431.516 655.3 432.104 655.288 432.416 654.976C432.752 654.664 432.92 654.1 432.92 653.284V651.556C432.92 651.388 432.896 651.208 432.848 651.016C432.8 650.8 432.692 650.62 432.524 650.476C432.38 650.308 432.152 650.212 431.84 650.188C431.552 650.14 431.156 650.2 430.652 650.368V655.012ZM442.561 655.156C443.065 655.132 443.377 654.964 443.497 654.652C443.641 654.316 443.713 653.764 443.713 652.996H446.845V653.536C446.845 654.496 446.773 655.276 446.629 655.876C446.485 656.452 446.245 656.908 445.909 657.244C445.597 657.556 445.165 657.76 444.613 657.856C444.085 657.952 443.437 658 442.669 658C441.949 658 441.301 657.952 440.725 657.856C440.173 657.76 439.705 657.544 439.321 657.208C438.961 656.872 438.685 656.392 438.493 655.768C438.301 655.12 438.205 654.256 438.205 653.176V643.996C438.205 642.412 438.577 641.332 439.321 640.756C440.089 640.156 441.169 639.856 442.561 639.856C443.929 639.856 444.985 640.156 445.729 640.756C446.473 641.332 446.845 642.412 446.845 643.996V649.648H441.301V653.104C441.301 653.872 441.385 654.4 441.553 654.688C441.721 654.976 442.057 655.132 442.561 655.156ZM443.713 647.128V644.5C443.713 643.876 443.653 643.432 443.533 643.168C443.413 642.88 443.065 642.736 442.489 642.736C441.937 642.736 441.601 642.88 441.481 643.168C441.361 643.456 441.301 643.9 441.301 644.5V647.128H443.713ZM452.238 649.108H453.246L454.038 639.964H457.638L455.406 650.116L457.638 658H454.038L452.886 650.944H452.238V649.108ZM448.998 640H452.238V658H448.998V640ZM464.066 655.732H463.85C463.754 656.452 463.526 657.016 463.166 657.424C462.83 657.808 462.278 658 461.51 658C460.454 658 459.722 657.688 459.314 657.064C458.906 656.416 458.702 655.564 458.702 654.508L458.666 647.992V647.416L458.702 643.492C458.702 642.436 458.906 641.596 459.314 640.972C459.722 640.324 460.454 640 461.51 640C462.278 640 462.83 640.204 463.166 640.612C463.526 640.996 463.754 641.548 463.85 642.268H464.066V640H467.306V658H464.066V655.732ZM464.066 642.988C463.226 642.7 462.638 642.712 462.302 643.024C461.966 643.336 461.798 643.9 461.798 644.716V653.284C461.798 654.1 461.966 654.664 462.302 654.976C462.638 655.288 463.226 655.3 464.066 655.012V642.988ZM479.746 640H482.986V658H479.746V640ZM474.31 640H477.55V658H474.31V640ZM482.23 643.312L475.39 643.204V640H482.23V643.312ZM493.815 653.536C493.815 654.496 493.743 655.276 493.599 655.876C493.455 656.476 493.215 656.944 492.879 657.28C492.567 657.592 492.135 657.808 491.583 657.928C491.055 658.024 490.407 658.072 489.639 658.072C488.919 658.072 488.271 658.024 487.695 657.928C487.143 657.808 486.675 657.58 486.291 657.244C485.907 656.884 485.619 656.392 485.427 655.768C485.235 655.12 485.139 654.256 485.139 653.176V643.96C485.139 643.168 485.247 642.508 485.463 641.98C485.679 641.452 485.979 641.044 486.363 640.756C486.747 640.444 487.203 640.228 487.731 640.108C488.283 639.964 488.871 639.892 489.495 639.892C490.815 639.892 491.859 640.18 492.627 640.756C493.419 641.308 493.815 642.376 493.815 643.96V647.668V653.536ZM489.459 642.772C488.907 642.772 488.571 642.904 488.451 643.168C488.331 643.432 488.271 643.864 488.271 644.464V653.068C488.271 653.836 488.355 654.388 488.523 654.724C488.691 655.036 489.027 655.204 489.531 655.228C490.035 655.204 490.347 655.036 490.467 654.724C490.611 654.388 490.683 653.836 490.683 653.068V647.668V644.464C490.683 643.84 490.611 643.408 490.467 643.168C490.347 642.904 490.011 642.772 489.459 642.772ZM501.511 650.764H504.607V653.536C504.607 654.496 504.535 655.276 504.391 655.876C504.247 656.476 504.007 656.944 503.671 657.28C503.359 657.592 502.927 657.808 502.375 657.928C501.847 658.024 501.199 658.072 500.431 658.072C499.711 658.072 499.075 658.024 498.523 657.928C497.971 657.808 497.503 657.58 497.119 657.244C496.735 656.884 496.447 656.392 496.255 655.768C496.063 655.12 495.967 654.268 495.967 653.212V643.924C495.967 642.34 496.327 641.26 497.047 640.684C497.791 640.108 498.883 639.844 500.323 639.892C501.043 639.892 501.667 639.964 502.195 640.108C502.723 640.228 503.167 640.444 503.527 640.756C503.887 641.044 504.151 641.452 504.319 641.98C504.511 642.484 504.607 643.132 504.607 643.924V646.768H501.511V644.428C501.511 643.804 501.439 643.372 501.295 643.132C501.175 642.892 500.839 642.772 500.287 642.772C499.735 642.772 499.387 642.904 499.243 643.168C499.123 643.408 499.063 643.828 499.063 644.428V653.068C499.063 653.836 499.147 654.388 499.315 654.724C499.483 655.06 499.819 655.228 500.323 655.228C500.851 655.228 501.175 655.06 501.295 654.724C501.439 654.388 501.511 653.836 501.511 653.068V650.764ZM510.94 655.156C511.444 655.132 511.756 654.964 511.876 654.652C512.02 654.316 512.092 653.764 512.092 652.996H515.224V653.536C515.224 654.496 515.152 655.276 515.008 655.876C514.864 656.452 514.624 656.908 514.288 657.244C513.976 657.556 513.544 657.76 512.992 657.856C512.464 657.952 511.816 658 511.048 658C510.328 658 509.68 657.952 509.104 657.856C508.552 657.76 508.084 657.544 507.7 657.208C507.34 656.872 507.064 656.392 506.872 655.768C506.68 655.12 506.584 654.256 506.584 653.176V643.996C506.584 642.412 506.956 641.332 507.7 640.756C508.468 640.156 509.548 639.856 510.94 639.856C512.308 639.856 513.364 640.156 514.108 640.756C514.852 641.332 515.224 642.412 515.224 643.996V649.648H509.68V653.104C509.68 653.872 509.764 654.4 509.932 654.688C510.1 654.976 510.436 655.132 510.94 655.156ZM512.092 647.128V644.5C512.092 643.876 512.032 643.432 511.912 643.168C511.792 642.88 511.444 642.736 510.868 642.736C510.316 642.736 509.98 642.88 509.86 643.168C509.74 643.456 509.68 643.9 509.68 644.5V647.128H512.092ZM526.053 658H522.813V640H526.053V658ZM531.489 658H528.249V640H531.489V658ZM518.169 654.724L531.885 654.832L531.489 658H518.169V654.724ZM529.905 654.832H532.389L533.217 660.376H529.905V654.832ZM520.617 658H517.377V640H520.617V658ZM526.053 658H522.813V640H526.053V658ZM540.074 655.732H539.858C539.762 656.452 539.534 657.016 539.174 657.424C538.838 657.808 538.286 658 537.518 658C536.462 658 535.73 657.688 535.322 657.064C534.914 656.416 534.71 655.564 534.71 654.508L534.674 647.992V647.416L534.71 643.492C534.71 642.436 534.914 641.596 535.322 640.972C535.73 640.324 536.462 640 537.518 640C538.286 640 538.838 640.204 539.174 640.612C539.534 640.996 539.762 641.548 539.858 642.268H540.074V640H543.314V658H540.074V655.732ZM540.074 642.988C539.234 642.7 538.646 642.712 538.31 643.024C537.974 643.336 537.806 643.9 537.806 644.716V653.284C537.806 654.1 537.974 654.664 538.31 654.976C538.646 655.288 539.234 655.3 540.074 655.012V642.988ZM558.643 653.536C558.643 654.496 558.571 655.276 558.427 655.876C558.283 656.476 558.043 656.944 557.707 657.28C557.395 657.592 556.963 657.808 556.411 657.928C555.883 658.024 555.235 658.072 554.467 658.072C553.747 658.072 553.099 658.024 552.523 657.928C551.971 657.808 551.503 657.58 551.119 657.244C550.735 656.884 550.447 656.392 550.255 655.768C550.063 655.12 549.967 654.256 549.967 653.176V644.284C549.967 642.7 550.327 641.572 551.047 640.9C551.791 640.204 552.883 639.868 554.323 639.892C555.763 639.94 556.843 640.288 557.563 640.936C558.283 641.584 558.643 642.7 558.643 644.284V653.536ZM554.287 642.772C553.735 642.772 553.399 642.964 553.279 643.348C553.159 643.708 553.099 644.188 553.099 644.788V653.068C553.099 653.836 553.183 654.388 553.351 654.724C553.519 655.036 553.855 655.204 554.359 655.228C554.863 655.204 555.175 655.036 555.295 654.724C555.439 654.388 555.511 653.836 555.511 653.068V644.788C555.511 644.164 555.439 643.672 555.295 643.312C555.175 642.952 554.839 642.772 554.287 642.772ZM545.611 648.1L551.011 648.208V651.412H545.611V648.1ZM548.707 658H545.467V640H548.707V658ZM562.568 640H565.808V658H562.568V640ZM568.544 643.312L559.868 643.204V640H568.544V643.312ZM580.577 650.764H583.673V653.536C583.673 654.496 583.601 655.276 583.457 655.876C583.313 656.476 583.073 656.944 582.737 657.28C582.425 657.592 581.993 657.808 581.441 657.928C580.913 658.024 580.265 658.072 579.497 658.072C578.777 658.072 578.141 658.024 577.589 657.928C577.037 657.808 576.569 657.58 576.185 657.244C575.801 656.884 575.513 656.392 575.321 655.768C575.129 655.12 575.033 654.268 575.033 653.212V643.924C575.033 642.34 575.393 641.26 576.113 640.684C576.857 640.108 577.949 639.844 579.389 639.892C580.109 639.892 580.733 639.964 581.261 640.108C581.789 640.228 582.233 640.444 582.593 640.756C582.953 641.044 583.217 641.452 583.385 641.98C583.577 642.484 583.673 643.132 583.673 643.924V646.768H580.577V644.428C580.577 643.804 580.505 643.372 580.361 643.132C580.241 642.892 579.905 642.772 579.353 642.772C578.801 642.772 578.453 642.904 578.309 643.168C578.189 643.408 578.129 643.828 578.129 644.428V653.068C578.129 653.836 578.213 654.388 578.381 654.724C578.549 655.06 578.885 655.228 579.389 655.228C579.917 655.228 580.241 655.06 580.361 654.724C580.505 654.388 580.577 653.836 580.577 653.068V650.764ZM590.006 655.156C590.51 655.132 590.822 654.964 590.942 654.652C591.086 654.316 591.158 653.764 591.158 652.996H594.29V653.536C594.29 654.496 594.218 655.276 594.074 655.876C593.93 656.452 593.69 656.908 593.354 657.244C593.042 657.556 592.61 657.76 592.058 657.856C591.53 657.952 590.882 658 590.114 658C589.394 658 588.746 657.952 588.17 657.856C587.618 657.76 587.15 657.544 586.766 657.208C586.406 656.872 586.13 656.392 585.938 655.768C585.746 655.12 585.65 654.256 585.65 653.176V643.996C585.65 642.412 586.022 641.332 586.766 640.756C587.534 640.156 588.614 639.856 590.006 639.856C591.374 639.856 592.43 640.156 593.174 640.756C593.918 641.332 594.29 642.412 594.29 643.996V649.648H588.746V653.104C588.746 653.872 588.83 654.4 588.998 654.688C589.166 654.976 589.502 655.132 590.006 655.156ZM591.158 647.128V644.5C591.158 643.876 591.098 643.432 590.978 643.168C590.858 642.88 590.51 642.736 589.934 642.736C589.382 642.736 589.046 642.88 588.926 643.168C588.806 643.456 588.746 643.9 588.746 644.5V647.128H591.158ZM599.683 649.108H600.691L601.483 639.964H605.083L602.851 650.116L605.083 658H601.483L600.331 650.944H599.683V649.108ZM596.443 640H599.683V658H596.443V640ZM614.787 653.536C614.787 654.496 614.715 655.276 614.571 655.876C614.427 656.476 614.187 656.944 613.851 657.28C613.539 657.592 613.107 657.808 612.555 657.928C612.027 658.024 611.379 658.072 610.611 658.072C609.891 658.072 609.243 658.024 608.667 657.928C608.115 657.808 607.647 657.58 607.263 657.244C606.879 656.884 606.591 656.392 606.399 655.768C606.207 655.12 606.111 654.256 606.111 653.176V643.96C606.111 643.168 606.219 642.508 606.435 641.98C606.651 641.452 606.951 641.044 607.335 640.756C607.719 640.444 608.175 640.228 608.703 640.108C609.255 639.964 609.843 639.892 610.467 639.892C611.787 639.892 612.831 640.18 613.599 640.756C614.391 641.308 614.787 642.376 614.787 643.96V647.668V653.536ZM610.431 642.772C609.879 642.772 609.543 642.904 609.423 643.168C609.303 643.432 609.243 643.864 609.243 644.464V653.068C609.243 653.836 609.327 654.388 609.495 654.724C609.663 655.036 609.999 655.204 610.503 655.228C611.007 655.204 611.319 655.036 611.439 654.724C611.583 654.388 611.655 653.836 611.655 653.068V647.668V644.464C611.655 643.84 611.583 643.408 611.439 643.168C611.319 642.904 610.983 642.772 610.431 642.772ZM622.375 640H625.615V658H622.375V640ZM616.939 640H620.179V658H616.939V640ZM624.859 651.52L618.019 651.412V648.208H624.859V651.52ZM630.36 658L630.9 660.376H627.228V654.94H628.128C628.296 654.7 628.44 654.436 628.56 654.148C628.68 653.86 628.788 653.404 628.884 652.78C628.98 652.132 629.076 651.256 629.172 650.152C629.268 649.048 629.376 647.56 629.496 645.688C629.568 644.584 629.616 643.576 629.64 642.664C629.688 641.752 629.736 640.864 629.784 640H637.092V654.94H638.028V660.376H634.356L634.86 658H630.36ZM634.212 654.94V643.348H632.556C632.532 643.708 632.508 644.08 632.484 644.464C632.484 644.848 632.472 645.256 632.448 645.688C632.4 646.792 632.352 647.848 632.304 648.856C632.256 649.864 632.184 650.788 632.088 651.628C631.992 652.444 631.872 653.14 631.728 653.716C631.608 654.292 631.452 654.7 631.26 654.94H634.212ZM652.394 658.036H649.154V640H652.394V658.036ZM642.89 647.128C643.106 647.008 643.334 646.9 643.574 646.804C643.79 646.732 644.042 646.672 644.33 646.624C644.618 646.552 644.918 646.516 645.23 646.516C645.518 646.516 645.842 646.552 646.202 646.624C646.562 646.696 646.898 646.84 647.21 647.056C647.522 647.272 647.786 647.584 648.002 647.992C648.218 648.376 648.326 648.88 648.326 649.504L648.29 654.508C648.29 655.588 647.942 656.44 647.246 657.064C646.55 657.688 645.482 658 644.042 658H639.65V640H642.89V647.128ZM642.89 655.012C643.754 655.3 644.342 655.288 644.654 654.976C644.99 654.664 645.158 654.1 645.158 653.284V650.692C645.158 650.524 645.134 650.344 645.086 650.152C645.038 649.936 644.93 649.756 644.762 649.612C644.618 649.444 644.39 649.348 644.078 649.324C643.79 649.276 643.394 649.336 642.89 649.504V655.012ZM362.02 677.872C363.292 677.92 364.192 678.256 364.72 678.88C365.248 679.48 365.512 680.284 365.512 681.292V689.176C365.512 690.256 365.368 691.12 365.08 691.768C364.816 692.416 364.456 692.92 364 693.28C363.568 693.64 363.064 693.88 362.488 694C361.912 694.12 361.312 694.18 360.688 694.18C359.968 694.18 359.32 694.12 358.744 694C358.192 693.88 357.712 693.652 357.304 693.316C356.92 692.956 356.62 692.452 356.404 691.804C356.212 691.132 356.104 690.256 356.08 689.176L356.008 685.324H359.428L359.464 688.348C359.464 688.732 359.464 689.092 359.464 689.428C359.488 689.764 359.524 690.052 359.572 690.292C359.644 690.508 359.752 690.688 359.896 690.832C360.064 690.952 360.292 691.012 360.58 691.012C361.132 691.012 361.444 690.772 361.516 690.292C361.612 689.788 361.66 689.14 361.66 688.348V682.48C361.66 681.184 361.468 680.284 361.084 679.78C360.724 679.252 360.052 679.072 359.068 679.24L358.996 676.936L362.272 671.716H356.044L356.008 668.8H365.152V673.156L362.02 677.656V677.872ZM373.586 673.552C373.586 672.928 373.514 672.46 373.37 672.148C373.25 671.812 372.914 671.644 372.362 671.644C371.81 671.644 371.462 671.812 371.318 672.148C371.198 672.484 371.138 672.952 371.138 673.552V678.952C371.45 678.808 371.762 678.664 372.074 678.52C372.362 678.424 372.662 678.34 372.974 678.268C373.31 678.172 373.634 678.124 373.946 678.124C374.234 678.124 374.558 678.16 374.918 678.232C375.278 678.304 375.614 678.448 375.926 678.664C376.238 678.88 376.502 679.192 376.718 679.6C376.934 679.984 377.042 680.488 377.042 681.112V689.176C377.042 691.072 376.646 692.392 375.854 693.136C375.086 693.856 373.97 694.216 372.506 694.216C371.786 694.216 371.126 694.156 370.526 694.036C369.926 693.916 369.41 693.676 368.978 693.316C368.57 692.956 368.246 692.452 368.006 691.804C367.79 691.132 367.682 690.256 367.682 689.176V672.796C367.682 671.212 368.102 670.096 368.942 669.448C369.806 668.776 370.958 668.464 372.398 668.512C373.838 668.536 374.966 668.86 375.782 669.484C376.622 670.108 377.042 671.212 377.042 672.796V675.64H373.586V673.552ZM371.138 688.348C371.138 688.732 371.138 689.104 371.138 689.464C371.162 689.8 371.21 690.1 371.282 690.364C371.354 690.604 371.474 690.796 371.642 690.94C371.834 691.084 372.086 691.156 372.398 691.156C372.734 691.156 372.974 691.084 373.118 690.94C373.286 690.796 373.406 690.604 373.478 690.364C373.55 690.1 373.586 689.8 373.586 689.464C373.586 689.104 373.586 688.732 373.586 688.348V682.264C373.586 682 373.502 681.712 373.334 681.4C373.166 681.064 372.806 680.896 372.254 680.896C371.966 680.896 371.606 680.968 371.174 681.112L371.138 688.348ZM389.5 676H392.74V694H389.5V688.924C389.284 689.044 389.056 689.14 388.816 689.212C388.6 689.308 388.348 689.392 388.06 689.464C387.796 689.512 387.496 689.536 387.16 689.536C386.872 689.536 386.548 689.5 386.188 689.428C385.828 689.356 385.492 689.212 385.18 688.996C384.868 688.78 384.604 688.48 384.388 688.096C384.172 687.688 384.064 687.172 384.064 686.548V676H387.232V685C387.232 685.168 387.256 685.36 387.304 685.576C387.352 685.768 387.448 685.948 387.592 686.116C387.76 686.26 387.988 686.356 388.276 686.404C388.588 686.428 388.996 686.356 389.5 686.188V676ZM399.249 691.156C399.753 691.132 400.065 690.964 400.185 690.652C400.329 690.316 400.401 689.764 400.401 688.996H403.533V689.536C403.533 690.496 403.461 691.276 403.316 691.876C403.173 692.452 402.933 692.908 402.597 693.244C402.285 693.556 401.853 693.76 401.301 693.856C400.773 693.952 400.125 694 399.357 694C398.637 694 397.989 693.952 397.413 693.856C396.861 693.76 396.393 693.544 396.009 693.208C395.649 692.872 395.373 692.392 395.181 691.768C394.989 691.12 394.893 690.256 394.893 689.176V679.996C394.893 678.412 395.265 677.332 396.009 676.756C396.777 676.156 397.857 675.856 399.249 675.856C400.617 675.856 401.673 676.156 402.417 676.756C403.161 677.332 403.533 678.412 403.533 679.996V685.648H397.989V689.104C397.989 689.872 398.073 690.4 398.241 690.688C398.409 690.976 398.745 691.132 399.249 691.156ZM400.401 683.128V680.5C400.401 679.876 400.341 679.432 400.221 679.168C400.101 678.88 399.753 678.736 399.177 678.736C398.625 678.736 398.289 678.88 398.169 679.168C398.049 679.456 397.989 679.9 397.989 680.5V683.128H400.401ZM411.229 679.276L410.185 679.24L410.077 682.408C409.957 685.024 409.837 687.124 409.717 688.708C409.597 690.268 409.369 691.456 409.033 692.272C408.721 693.088 408.253 693.604 407.629 693.82C407.005 694.036 406.153 694.108 405.073 694.036L404.605 694V690.724C404.893 690.724 405.133 690.736 405.325 690.76C405.541 690.784 405.721 690.748 405.865 690.652C406.033 690.532 406.165 690.328 406.261 690.04C406.381 689.728 406.489 689.272 406.585 688.672C406.681 688.072 406.765 687.292 406.837 686.332C406.933 685.348 407.017 684.124 407.089 682.66L407.413 676H414.469V694H411.229V679.276ZM425.295 689.536C425.295 690.496 425.223 691.276 425.079 691.876C424.935 692.476 424.695 692.944 424.359 693.28C424.047 693.592 423.615 693.808 423.063 693.928C422.535 694.024 421.887 694.072 421.119 694.072C420.399 694.072 419.751 694.024 419.175 693.928C418.623 693.808 418.155 693.58 417.771 693.244C417.387 692.884 417.099 692.392 416.907 691.768C416.715 691.12 416.619 690.256 416.619 689.176V679.96C416.619 679.168 416.727 678.508 416.943 677.98C417.159 677.452 417.459 677.044 417.843 676.756C418.227 676.444 418.683 676.228 419.211 676.108C419.763 675.964 420.351 675.892 420.975 675.892C422.295 675.892 423.339 676.18 424.107 676.756C424.899 677.308 425.295 678.376 425.295 679.96V683.668V689.536ZM420.939 678.772C420.387 678.772 420.051 678.904 419.931 679.168C419.811 679.432 419.751 679.864 419.751 680.464V689.068C419.751 689.836 419.835 690.388 420.003 690.724C420.171 691.036 420.507 691.204 421.011 691.228C421.515 691.204 421.827 691.036 421.947 690.724C422.091 690.388 422.163 689.836 422.163 689.068V683.668V680.464C422.163 679.84 422.091 679.408 421.947 679.168C421.827 678.904 421.491 678.772 420.939 678.772ZM427.447 676H432.631C432.919 676 433.243 676.036 433.603 676.108C433.963 676.18 434.299 676.324 434.611 676.54C434.923 676.756 435.187 677.068 435.403 677.476C435.619 677.86 435.727 678.364 435.727 678.988V681.76C435.727 682.192 435.715 682.588 435.691 682.948C435.691 683.284 435.619 683.584 435.475 683.848C435.355 684.112 435.139 684.328 434.827 684.496C434.539 684.64 434.095 684.724 433.495 684.748V685C434.575 685.048 435.271 685.3 435.583 685.756C435.919 686.188 436.087 686.908 436.087 687.916V690.508C436.087 691.588 435.739 692.44 435.043 693.064C434.347 693.688 433.279 694 431.839 694H427.447V676ZM430.759 683.272C431.623 683.56 432.187 683.548 432.451 683.236C432.715 682.924 432.847 682.36 432.847 681.544V679.996C432.847 679.828 432.835 679.648 432.811 679.456C432.787 679.24 432.703 679.06 432.559 678.916C432.439 678.748 432.235 678.652 431.947 678.628C431.659 678.58 431.263 678.64 430.759 678.808V683.272ZM430.687 691.012C431.551 691.3 432.139 691.288 432.451 690.976C432.787 690.664 432.955 690.1 432.955 689.284V687.556C432.955 687.388 432.931 687.208 432.883 687.016C432.835 686.8 432.727 686.62 432.559 686.476C432.415 686.308 432.187 686.212 431.875 686.188C431.587 686.14 431.191 686.2 430.687 686.368V691.012ZM442.596 691.156C443.1 691.132 443.412 690.964 443.532 690.652C443.676 690.316 443.748 689.764 443.748 688.996H446.88V689.536C446.88 690.496 446.808 691.276 446.664 691.876C446.52 692.452 446.28 692.908 445.944 693.244C445.632 693.556 445.2 693.76 444.648 693.856C444.12 693.952 443.472 694 442.704 694C441.984 694 441.336 693.952 440.76 693.856C440.208 693.76 439.74 693.544 439.356 693.208C438.996 692.872 438.72 692.392 438.528 691.768C438.336 691.12 438.24 690.256 438.24 689.176V679.996C438.24 678.412 438.612 677.332 439.356 676.756C440.124 676.156 441.204 675.856 442.596 675.856C443.964 675.856 445.02 676.156 445.764 676.756C446.508 677.332 446.88 678.412 446.88 679.996V685.648H441.336V689.104C441.336 689.872 441.42 690.4 441.588 690.688C441.756 690.976 442.092 691.132 442.596 691.156ZM443.748 683.128V680.5C443.748 679.876 443.688 679.432 443.568 679.168C443.448 678.88 443.1 678.736 442.524 678.736C441.972 678.736 441.636 678.88 441.516 679.168C441.396 679.456 441.336 679.9 441.336 680.5V683.128H443.748ZM452.273 685.108H453.281L454.073 675.964H457.673L455.441 686.116L457.673 694H454.073L452.921 686.944H452.273V685.108ZM449.033 676H452.273V694H449.033V676ZM469.586 676H472.826V694H469.586V676ZM464.15 676H467.39V694H464.15V676ZM472.07 687.52L465.23 687.412V684.208H472.07V687.52ZM480.774 683.164H480.522L478.218 693.964V694H474.978V676H478.218L477.894 686.728H478.146L480.378 676L480.414 676.432V676H483.654V694H480.414L480.774 683.164ZM489.047 685.108H490.055L490.847 675.964H494.447L492.215 686.116L494.447 694H490.847L489.695 686.944H489.047V685.108ZM485.807 676H489.047V694H485.807V676ZM504.151 689.536C504.151 690.496 504.079 691.276 503.935 691.876C503.791 692.476 503.551 692.944 503.215 693.28C502.903 693.592 502.471 693.808 501.919 693.928C501.391 694.024 500.743 694.072 499.975 694.072C499.255 694.072 498.607 694.024 498.031 693.928C497.479 693.808 497.011 693.58 496.627 693.244C496.243 692.884 495.955 692.392 495.763 691.768C495.571 691.12 495.475 690.256 495.475 689.176V679.96C495.475 679.168 495.583 678.508 495.799 677.98C496.015 677.452 496.315 677.044 496.699 676.756C497.083 676.444 497.539 676.228 498.067 676.108C498.619 675.964 499.207 675.892 499.831 675.892C501.151 675.892 502.195 676.18 502.963 676.756C503.755 677.308 504.151 678.376 504.151 679.96V683.668V689.536ZM499.795 678.772C499.243 678.772 498.907 678.904 498.787 679.168C498.667 679.432 498.607 679.864 498.607 680.464V689.068C498.607 689.836 498.691 690.388 498.859 690.724C499.027 691.036 499.363 691.204 499.867 691.228C500.371 691.204 500.683 691.036 500.803 690.724C500.947 690.388 501.019 689.836 501.019 689.068V683.668V680.464C501.019 679.84 500.947 679.408 500.803 679.168C500.683 678.904 500.347 678.772 499.795 678.772ZM506.303 676H509.543V694H506.303V676ZM513.467 676L512.747 679.204L507.023 678.124V676H513.467ZM515.891 694L516.431 696.376H512.759V690.94H513.659C513.827 690.7 513.971 690.436 514.091 690.148C514.211 689.86 514.319 689.404 514.415 688.78C514.511 688.132 514.607 687.256 514.703 686.152C514.799 685.048 514.907 683.56 515.027 681.688C515.099 680.584 515.147 679.576 515.171 678.664C515.219 677.752 515.267 676.864 515.315 676H522.623V690.94H523.559V696.376H519.887L520.391 694H515.891ZM519.743 690.94V679.348H518.087C518.063 679.708 518.039 680.08 518.015 680.464C518.015 680.848 518.003 681.256 517.979 681.688C517.931 682.792 517.883 683.848 517.835 684.856C517.787 685.864 517.715 686.788 517.619 687.628C517.523 688.444 517.403 689.14 517.259 689.716C517.139 690.292 516.983 690.7 516.791 690.94H519.743ZM530.582 691.732H530.366C530.27 692.452 530.042 693.016 529.682 693.424C529.346 693.808 528.794 694 528.026 694C526.97 694 526.238 693.688 525.83 693.064C525.422 692.416 525.218 691.564 525.218 690.508L525.182 683.992V683.416L525.218 679.492C525.218 678.436 525.422 677.596 525.83 676.972C526.238 676.324 526.97 676 528.026 676C528.794 676 529.346 676.204 529.682 676.612C530.042 676.996 530.27 677.548 530.366 678.268H530.582V676H533.822V694H530.582V691.732ZM530.582 678.988C529.742 678.7 529.154 678.712 528.818 679.024C528.482 679.336 528.314 679.9 528.314 680.716V689.284C528.314 690.1 528.482 690.664 528.818 690.976C529.154 691.288 529.742 691.3 530.582 691.012V678.988ZM546.262 676H549.502V694H546.262V676ZM540.826 676H544.066V694H540.826V676ZM548.746 687.52L541.906 687.412V684.208H548.746V687.52ZM556.01 691.156C556.514 691.132 556.826 690.964 556.946 690.652C557.09 690.316 557.162 689.764 557.162 688.996H560.294V689.536C560.294 690.496 560.222 691.276 560.078 691.876C559.934 692.452 559.694 692.908 559.358 693.244C559.046 693.556 558.614 693.76 558.062 693.856C557.534 693.952 556.886 694 556.118 694C555.398 694 554.75 693.952 554.174 693.856C553.622 693.76 553.154 693.544 552.77 693.208C552.41 692.872 552.134 692.392 551.942 691.768C551.75 691.12 551.654 690.256 551.654 689.176V679.996C551.654 678.412 552.026 677.332 552.77 676.756C553.538 676.156 554.618 675.856 556.01 675.856C557.378 675.856 558.434 676.156 559.178 676.756C559.922 677.332 560.294 678.412 560.294 679.996V685.648H554.75V689.104C554.75 689.872 554.834 690.4 555.002 690.688C555.17 690.976 555.506 691.132 556.01 691.156ZM557.162 683.128V680.5C557.162 679.876 557.102 679.432 556.982 679.168C556.862 678.88 556.514 678.736 555.938 678.736C555.386 678.736 555.05 678.88 554.93 679.168C554.81 679.456 554.75 679.9 554.75 680.5V683.128H557.162ZM568.847 685.288L566.759 676H570.215L570.611 678.088L571.583 683.956H571.763L572.663 678.088L573.023 676H576.479L574.391 685.288L576.479 694H573.023L572.411 690.076L571.943 686.62H571.403L570.863 690.112L570.215 694H566.759L568.847 685.288ZM586.17 689.536C586.17 690.496 586.098 691.276 585.954 691.876C585.81 692.476 585.57 692.944 585.234 693.28C584.922 693.592 584.49 693.808 583.938 693.928C583.41 694.024 582.762 694.072 581.994 694.072C581.274 694.072 580.626 694.024 580.05 693.928C579.498 693.808 579.03 693.58 578.646 693.244C578.262 692.884 577.974 692.392 577.782 691.768C577.59 691.12 577.494 690.256 577.494 689.176V679.96C577.494 679.168 577.602 678.508 577.818 677.98C578.034 677.452 578.334 677.044 578.718 676.756C579.102 676.444 579.558 676.228 580.086 676.108C580.638 675.964 581.226 675.892 581.85 675.892C583.17 675.892 584.214 676.18 584.982 676.756C585.774 677.308 586.17 678.376 586.17 679.96V683.668V689.536ZM581.814 678.772C581.262 678.772 580.926 678.904 580.806 679.168C580.686 679.432 580.626 679.864 580.626 680.464V689.068C580.626 689.836 580.71 690.388 580.878 690.724C581.046 691.036 581.382 691.204 581.886 691.228C582.39 691.204 582.702 691.036 582.822 690.724C582.966 690.388 583.038 689.836 583.038 689.068V683.668V680.464C583.038 679.84 582.966 679.408 582.822 679.168C582.702 678.904 582.366 678.772 581.814 678.772ZM590.914 694L591.454 696.376H587.782V690.94H588.682C588.85 690.7 588.994 690.436 589.114 690.148C589.234 689.86 589.342 689.404 589.438 688.78C589.534 688.132 589.63 687.256 589.726 686.152C589.822 685.048 589.93 683.56 590.05 681.688C590.122 680.584 590.17 679.576 590.194 678.664C590.242 677.752 590.29 676.864 590.338 676H597.646V690.94H598.582V696.376H594.91L595.414 694H590.914ZM594.766 690.94V679.348H593.11C593.086 679.708 593.062 680.08 593.038 680.464C593.038 680.848 593.026 681.256 593.002 681.688C592.954 682.792 592.906 683.848 592.858 684.856C592.81 685.864 592.738 686.788 592.642 687.628C592.546 688.444 592.426 689.14 592.282 689.716C592.162 690.292 592.006 690.7 591.814 690.94H594.766ZM606.001 683.164H605.749L603.445 693.964V694H600.205V676H603.445L603.121 686.728H603.373L605.605 676L605.641 676.432V676H608.881V694H605.641L606.001 683.164ZM616.577 679.276L615.533 679.24L615.425 682.408C615.305 685.024 615.185 687.124 615.065 688.708C614.945 690.268 614.717 691.456 614.381 692.272C614.069 693.088 613.601 693.604 612.977 693.82C612.353 694.036 611.501 694.108 610.421 694.036L609.953 694V690.724C610.241 690.724 610.481 690.736 610.673 690.76C610.889 690.784 611.069 690.748 611.213 690.652C611.381 690.532 611.513 690.328 611.609 690.04C611.729 689.728 611.837 689.272 611.933 688.672C612.029 688.072 612.113 687.292 612.185 686.332C612.281 685.348 612.365 684.124 612.437 682.66L612.761 676H619.817V694H616.577V679.276ZM627.763 683.164H627.511L625.207 693.964V694H621.967V676H625.207L624.883 686.728H625.135L627.367 676L627.403 676.432V676H630.643V694H627.403L627.763 683.164ZM637.646 676H642.83C643.118 676 643.442 676.036 643.802 676.108C644.162 676.18 644.498 676.324 644.81 676.54C645.122 676.756 645.386 677.068 645.602 677.476C645.818 677.86 645.926 678.364 645.926 678.988V681.76C645.926 682.192 645.914 682.588 645.89 682.948C645.89 683.284 645.818 683.584 645.674 683.848C645.554 684.112 645.338 684.328 645.026 684.496C644.738 684.64 644.294 684.724 643.694 684.748V685C644.774 685.048 645.47 685.3 645.782 685.756C646.118 686.188 646.286 686.908 646.286 687.916V690.508C646.286 691.588 645.938 692.44 645.242 693.064C644.546 693.688 643.478 694 642.038 694H637.646V676ZM640.958 683.272C641.822 683.56 642.386 683.548 642.65 683.236C642.914 682.924 643.046 682.36 643.046 681.544V679.996C643.046 679.828 643.034 679.648 643.01 679.456C642.986 679.24 642.902 679.06 642.758 678.916C642.638 678.748 642.434 678.652 642.146 678.628C641.858 678.58 641.462 678.64 640.958 678.808V683.272ZM640.886 691.012C641.75 691.3 642.338 691.288 642.65 690.976C642.986 690.664 643.154 690.1 643.154 689.284V687.556C643.154 687.388 643.13 687.208 643.082 687.016C643.034 686.8 642.926 686.62 642.758 686.476C642.614 686.308 642.386 686.212 642.074 686.188C641.786 686.14 641.39 686.2 640.886 686.368V691.012ZM658.835 686.764H661.931V689.536C661.931 690.496 661.859 691.276 661.715 691.876C661.571 692.476 661.331 692.944 660.995 693.28C660.683 693.592 660.251 693.808 659.699 693.928C659.171 694.024 658.523 694.072 657.755 694.072C657.035 694.072 656.399 694.024 655.847 693.928C655.295 693.808 654.827 693.58 654.443 693.244C654.059 692.884 653.771 692.392 653.579 691.768C653.387 691.12 653.291 690.268 653.291 689.212V679.924C653.291 678.34 653.651 677.26 654.371 676.684C655.115 676.108 656.207 675.844 657.647 675.892C658.367 675.892 658.991 675.964 659.519 676.108C660.047 676.228 660.491 676.444 660.851 676.756C661.211 677.044 661.475 677.452 661.643 677.98C661.835 678.484 661.931 679.132 661.931 679.924V682.768H658.835V680.428C658.835 679.804 658.763 679.372 658.619 679.132C658.499 678.892 658.163 678.772 657.611 678.772C657.059 678.772 656.711 678.904 656.567 679.168C656.447 679.408 656.387 679.828 656.387 680.428V689.068C656.387 689.836 656.471 690.388 656.639 690.724C656.807 691.06 657.143 691.228 657.647 691.228C658.175 691.228 658.499 691.06 658.619 690.724C658.763 690.388 658.835 689.836 658.835 689.068V686.764ZM668.264 691.156C668.768 691.132 669.08 690.964 669.2 690.652C669.344 690.316 669.416 689.764 669.416 688.996H672.548V689.536C672.548 690.496 672.476 691.276 672.332 691.876C672.188 692.452 671.948 692.908 671.612 693.244C671.3 693.556 670.868 693.76 670.316 693.856C669.788 693.952 669.14 694 668.372 694C667.652 694 667.004 693.952 666.428 693.856C665.876 693.76 665.408 693.544 665.024 693.208C664.664 692.872 664.388 692.392 664.196 691.768C664.004 691.12 663.908 690.256 663.908 689.176V679.996C663.908 678.412 664.28 677.332 665.024 676.756C665.792 676.156 666.872 675.856 668.264 675.856C669.632 675.856 670.688 676.156 671.432 676.756C672.176 677.332 672.548 678.412 672.548 679.996V685.648H667.004V689.104C667.004 689.872 667.088 690.4 667.256 690.688C667.424 690.976 667.76 691.132 668.264 691.156ZM669.416 683.128V680.5C669.416 679.876 669.356 679.432 669.236 679.168C669.116 678.88 668.768 678.736 668.192 678.736C667.64 678.736 667.304 678.88 667.184 679.168C667.064 679.456 667.004 679.9 667.004 680.5V683.128H669.416ZM677.941 685.108H678.949L679.741 675.964H683.341L681.109 686.116L683.341 694H679.741L678.589 686.944H677.941V685.108ZM674.701 676H677.941V694H674.701V676ZM693.045 689.536C693.045 690.496 692.973 691.276 692.829 691.876C692.685 692.476 692.445 692.944 692.109 693.28C691.797 693.592 691.365 693.808 690.813 693.928C690.285 694.024 689.637 694.072 688.869 694.072C688.149 694.072 687.501 694.024 686.925 693.928C686.373 693.808 685.905 693.58 685.521 693.244C685.137 692.884 684.849 692.392 684.657 691.768C684.465 691.12 684.369 690.256 684.369 689.176V679.96C684.369 679.168 684.477 678.508 684.693 677.98C684.909 677.452 685.209 677.044 685.593 676.756C685.977 676.444 686.433 676.228 686.961 676.108C687.513 675.964 688.101 675.892 688.725 675.892C690.045 675.892 691.089 676.18 691.857 676.756C692.649 677.308 693.045 678.376 693.045 679.96V683.668V689.536ZM688.689 678.772C688.137 678.772 687.801 678.904 687.681 679.168C687.561 679.432 687.501 679.864 687.501 680.464V689.068C687.501 689.836 687.585 690.388 687.753 690.724C687.921 691.036 688.257 691.204 688.761 691.228C689.265 691.204 689.577 691.036 689.697 690.724C689.841 690.388 689.913 689.836 689.913 689.068V683.668V680.464C689.913 679.84 689.841 679.408 689.697 679.168C689.577 678.904 689.241 678.772 688.689 678.772ZM700.633 676H703.873V694H700.633V676ZM695.197 676H698.437V694H695.197V676ZM703.117 687.52L696.277 687.412V684.208H703.117V687.52ZM708.617 694L709.157 696.376H705.485V690.94H706.385C706.553 690.7 706.697 690.436 706.817 690.148C706.937 689.86 707.045 689.404 707.141 688.78C707.237 688.132 707.333 687.256 707.429 686.152C707.525 685.048 707.633 683.56 707.753 681.688C707.825 680.584 707.873 679.576 707.897 678.664C707.945 677.752 707.993 676.864 708.041 676H715.349V690.94H716.285V696.376H712.613L713.117 694H708.617ZM712.469 690.94V679.348H710.813C710.789 679.708 710.765 680.08 710.741 680.464C710.741 680.848 710.729 681.256 710.705 681.688C710.657 682.792 710.609 683.848 710.561 684.856C710.513 685.864 710.441 686.788 710.345 687.628C710.249 688.444 710.129 689.14 709.985 689.716C709.865 690.292 709.709 690.7 709.517 690.94H712.469ZM730.652 694.036H727.412V676H730.652V694.036ZM721.148 683.128C721.364 683.008 721.592 682.9 721.832 682.804C722.048 682.732 722.3 682.672 722.588 682.624C722.876 682.552 723.176 682.516 723.488 682.516C723.776 682.516 724.1 682.552 724.46 682.624C724.82 682.696 725.156 682.84 725.468 683.056C725.78 683.272 726.044 683.584 726.26 683.992C726.476 684.376 726.584 684.88 726.584 685.504L726.548 690.508C726.548 691.588 726.2 692.44 725.504 693.064C724.808 693.688 723.74 694 722.3 694H717.908V676H721.148V683.128ZM721.148 691.012C722.012 691.3 722.6 691.288 722.912 690.976C723.248 690.664 723.416 690.1 723.416 689.284V686.692C723.416 686.524 723.392 686.344 723.344 686.152C723.296 685.936 723.188 685.756 723.02 685.612C722.876 685.444 722.648 685.348 722.336 685.324C722.048 685.276 721.652 685.336 721.148 685.504V691.012Z" fill="black"/>
<ellipse cx="318.5" cy="609.5" rx="27.5" ry="14.5" fill="#0023F4"/>
<ellipse cx="318.5" cy="645.5" rx="27.5" ry="14.5" fill="#F19FF9"/>
<path d="M345.5 681.5C345.5 685.227 342.626 688.72 337.712 691.311C332.821 693.89 326.029 695.5 318.5 695.5C310.971 695.5 304.179 693.89 299.288 691.311C294.374 688.72 291.5 685.227 291.5 681.5C291.5 677.773 294.374 674.28 299.288 671.689C304.179 669.11 310.971 667.5 318.5 667.5C326.029 667.5 332.821 669.11 337.712 671.689C342.626 674.28 345.5 677.773 345.5 681.5Z" stroke="black"/>
</svg>
